<?xml version="1.0" encoding="utf-8"?>
<!-- Generator: Adobe Illustrator 23.0.3, SVG Export Plug-In . SVG Version: 6.00 Build 0)  -->
<svg version="1.1" id="Layer_1" xmlns="http://www.w3.org/2000/svg" xmlns:xlink="http://www.w3.org/1999/xlink" x="0px" y="0px"
	 viewBox="0 0 1280 1024" style="enable-background:new 0 0 1280 1024;" xml:space="preserve">
<style type="text/css">
	.st0{fill:#CCCCCC;stroke:#FFFFFF;stroke-width:0.5;}
</style>
<g>
	<path id="AE" class="st0" d="M781.5,509.6l0.6-0.2l0.1,1l2.7-0.6l2.9,0.1l2.1,0.1l2.4-2.5l2.6-2.4l2.2-2.3l0.6,1.3l0.5,3l-1.8,0
		l-0.3,2.5l0.6,0.5l-1.6,0.7l0,1.5l-1,1.5l-0.1,1.5l-0.7,0.8l-10.3-1.9l-1.3-3.8L781.5,509.6z"/>
	<path id="AF" class="st0" d="M814.6,464.4l3.5,1.6l2.6-0.6l0.7-1.9l2.7-0.6l1.9-1.3l0.7-3.4l2.9-0.8l0.5-1.5l1.6,1.2l1,0.1l1.9,0
		l2.6,0.9l1,0.5l2.5-1.4l1.2,0.8l1.1-2l2.1,0.1l0.5-0.6l0.4-1.8l1.5-1.5l1.8,1l-0.4,1.3l1,0.2l-0.3,3.6l1.4,1.4l1.2-0.9l1.5-0.4
		l2.1-1.9l2.4,0.3h3.6l0.6,1.2l-2,0.5l-1.7,0.8l-4,0.5l-3.7,0.9l-2,1.8l0.8,1.8l0.4,2.1l-1.7,1.8l0.1,1.6l-0.9,1.5l-3.3-0.1l1.3,2.7
		l-2.2,1l-1.5,2.5l0.2,2.4l-1.3,1.1l-1.3-0.4l-2.6,0.5l-0.4,1.1h-2.6l-1.9,2.3l-0.1,3.4l-4.5,1.6l-2.4-0.3l-0.7,0.9l-2-0.5l-3.5,0.6
		l-5.8-2l3.1-3.6l-0.3-2.6l-2.6-0.7l-0.3-2.6l-1.1-3.2l1.5-2.2l-1.5-0.6l0.9-3L814.6,464.4z"/>
	<path id="AL" class="st0" d="M674.7,437.1l-0.4,1.6l0.5,1.9l1.4,1.1l-0.1,1.2l-1.1,0.7l-0.2,1.5l-1.6,2.2l-0.6-0.3l-0.1-1l-1.9-1.5
		l-0.3-2.1l0.3-3.1l0.5-1.4l-0.6-0.7l-0.2-1.5l1.5-2.3l0.2,0.9l0.9-0.4l0.7,1.2l0.8,0.5L674.7,437.1z"/>
	<path id="AM" class="st0" d="M753.9,440.6l4.8-0.7l0.7,1.2l1.3,0.8L760,443l1.8,1.5l-1,1.4l1.5,1.2l1.5,0.7l0.1,3.1l-1.2,0.1
		l-1.4-2.6l0-0.7l-1.5,0l-1-1.2l-0.7,0.1l-1.4-1.3l-2.6-1.1l0.3-2.2L753.9,440.6z"/>
	<path id="AO" class="st0" d="M660.1,615.3l0.8,2.6l1,2.1l0.8,1.1l1.3,1.8l2.3-0.3l1.1-0.5l1.9,0.5l0.5-0.9l0.9-2l2.1-0.1l0.2-0.6
		l1.8,0l-0.3,1.2l4.2,0l0.1,2.2l0.7,1.3l-0.5,2.1l0.3,2.1l1.2,1.3l-0.2,4.1l0.8-0.3l1.5,0.1l2.1-0.5l1.6,0.2l0.4,1.1l-0.4,1.7
		l0.6,1.6l-0.5,1.3l0.3,1.2l-7.2,0l-0.2,11.2l2.3,2.9l2.2,2.2l-6.3,1.5l-8.3-0.5l-2.4-1.7l-14,0.2l-0.5,0.3l-2-1.6l-2.2-0.1
		l-2.1,0.6l-1.7,0.7l-0.3-2.2l0.5-3.1l1.2-3.3l0.2-1.5l1.1-3.2l0.8-1.4l2-2.3l1.1-1.6l0.4-2.6l-0.2-2l-1-1.2l-0.9-2.1l-0.8-2.1
		l0.2-0.7l1.1-1.4l-1-3.3l-0.7-2.3l-1.7-2.2l0.3-0.7l1.4-0.5l1,0.1l1.2-0.4L660.1,615.3z M646.7,614.7l-0.9,0.4l-0.9-2.6l1.4-1.5
		l1-0.6l1.3,1.2l-1.2,0.7l-0.6,0.9L646.7,614.7z"/>
	<path id="AQ" class="st0" d="M253.3,961l-1.8-4.6l2.2-1.9l4.4,1.5l5,0.9l3.8,1.5l3.8-1.3l2,6.4l-2.7-0.9l-4.2,0.4l-4.3-0.4
		l-4.7,0.7L253.3,961z M189.8,982.2l3.2-3.2l1.9-4.3l-4.1,2.1l-4.4-1.9l-4.1-2.1l-0.7,4l3.4,4.4L189.8,982.2z M381.8,1093.8l7.7-1.3
		l7.2,3l1-9.7l1-10.4l-3.6-8l-1.8,6.9l-2.6,8.3l-7.4-2l-7.8-0.8l1.9,6.1v0.8L381.8,1093.8z M430,1096l7.2-4.3l6.5-5l5.6-5.3l5.3-6.3
		l-0.1-9.9l-0.4-8l-1.5-10.7l-4.3-7.3l-5.2-3.6l-5.1,3.6h-1.8l-2.2,7l-2.1,6.2l-1.5,6.7l-2.2,8.1l-3,6.5l-7.4,5.5l-0.6,8.5l4.5,7.2
		L430,1096z M348.3,961.7l3.8-1.5l4-1.5l-1.7,4.4l4.5,0.2l3.8-2.2l4.1-1.5l0.9-4.1l0.6-4.3l-0.4-4.8l-0.9-4.7l-1.1-4.4l-1.5-4.5
		l-0.8-3.7l-1.8-3.6l-3.2,1.5l-1.9,4.6l0.1,8l-0.2,3.8l-1,5.4l-4-0.4l-2.4,1.2l-3.8,4.2l0.2,4.6L348.3,961.7z M174.7,979l2,0.5
		l-5.3-4.8l-3.4-2.8l-2.5,2.6l4.7,3.3L174.7,979z M1259.9,1529.4v-74v-53.7v-42.2v-34.7v-29.5v-25.7v-22.7v-20.4V1208v-16.9v-15.6
		l-1.5-3.6l-10.1,5.8l-0.8,1.9l-4.4,14.5l-5-14.5l-0.4-0.2l-0.5-0.4l-3.6,11l-0.4,1.2l-6.2-10.9l-3.1,20.7l-0.2-0.3l-5.9-8.8
		l-7.9-10.9l-9.5,8.8l-2.6-10.2l-0.7-2.6l-9.9-7l-1.8-15.1l-7.9-9.1l-5.2-8.7l-4.8-8.3l-4.2-8.5l-3-9.1l-1.8-9.6l-4.6-7.4l1.8-8
		l1.5-7.7l0.6-9.3l2.9-10.7l6.5-0.7l5.3-3.9l6.2-2.8l-1.3-7.5l-6.4-2.3l-1.6-5.8l-0.7-6l-1.9-6.1l-0.1-5.6l0.3-6.6l0.9-5.3l1.4-5.7
		l2.5-4.3l2.4-4.9l1.5-5.1l4.5-2.7l2-4.4l4.5-1.9l1.6-5l1.2-4.2l1.5-5.2l1.8-4l0.4-4.3l-2.4-3.2l-3.6-2.1l-3.6-2.5l-3.8-1.4
		l-4.1-0.8l-4.1,0.2l-3.7-0.6l-4,0.2l-3.8-1.6l-2.6-3.6l-3.9-2.4l-1.7-3.9l-4-1.2l-4.2-1l-3-2.3l-2.6-3l-3-2.6l-2.2,3.2l-3.9-0.2
		l-3.5-1.5l-4.7-1.5l-4.5-1.7l-3.8-2.4l-3.7-2.2l-2.2-2.7l0.7-3.3l-2.4-2.8l-3.8-0.7l-4.5-0.3l-3.2,0.2h-4.5l-3.1,0.5l-4.5,0.2
		l-3.9,0.5l-2.9-1.5l-1.4-2.9l-1.1-3.5l-0.6-3.8l-2.2-2.3l-0.1,3.4l-0.9,4.1l-3.1,0.7l-3.2,0.8h-3.9l-3.5,0.3l-3.7,1.3l-3.1,1.5
		l-3.2-0.8l-3-0.8h-3.1l-3.2,1.4l-3.6-0.8l-3.1-1.2l-3.1,0.7l-2.3,2.7l-2.7,2.8l-3.6,0.7l-4.3-0.9l-4.1-2.2l-2.4-2.2l-3.8,0.3
		l-2.4-2.7l-1.8-2.7l-2.7-1.7l-2.6,1.8l-3.8,0.3l-2.4,2.5l-2.8,2.4l-3.7,1.2l-3.7,1h-3.2l-3.4-0.2l-4.4-5.3l-2.3-3l-2.6-2.3
		l-2.2-1.1l-4.3,6.3l-2.4,2.4l-1.8,2.9l-2.3,3l-3.6-1.2l-3.2,1.2h-3.7l-3.1,1.2l-2.6-1.9l-2.9-0.5l-2.2,0.9l-3.2-0.2l-3.5-0.7
		l-3.3,1l-3.3-0.7l-2.9-1.7l-1.6-4.1l-1.3-2.4L905,907l-2.5,2.4l-3.8-0.5l-3.4,1l-3.1,0.9l-3.4-0.9l-2.5,1.4l-1.9,1.6l-1.9,3
		l-2.9,1.8l-3.4,2.4l-2.4,3.5l-1,3.6l-1.7,3.8l-3.5,1.5l-3.4,1.2l-3.9,0.4l-2.2,1l-1.8,5l-0.9,3.7l-2.2,3.1l-1.9,3.3l-1.1,4
		l-1.9,4.3l-4,2l-4-1.1l-2.6-3.5l1.6-4.5l1.8-4l0.5-4.1l-3.8,0.2l-0.5-4l2.7-3.8l3.3-2.5l0.4-4.4l0.1-2.5l-2.8-9.7h-3.4l-3.4-0.7
		l-3.2-1.1l-3.4-1.1l-3.2-1.9l-3,3.7l-2.8,1.8l-3.3-0.5l-2.8-2.5l-2.3-2.5l-4.1-1l-2.1-2.4l-3-2.9l-0.3-3.7l-2.8-2.3l-3.2-0.8
		l-3-0.5l-3.2,0.7l-3.4,1.3l-2.8,1.7l-2.9,2.4l-0.7,3.1l-2.8,2.1l-3.2-0.2l-2.2,2.4l-3.1,3.2l-3.2-1.1l-2.7,1.9l-2.8,2.1l-2.7,2
		l-4.1,1.8l-3.4,1.3l-3.6,3.2l-3.1,1.7l-1.2,4.2l-3.5,2.3l-2.6-2.5l-2.4-3.4l-3.6,0.8l-3-2.3l-1.3-3.4l-3.6-1.5l-1.9,3.1l-1.9,5.3
		l-2.6,2.7l-3.5,1l-3.2,1.8l-3,2.8l-3.7,1.2l-3.4,1.4l-3.8,0.2h-3.9l-4,0.4l-3.8,1.8l-2.2-3l-1.6-3.4l-3.7-0.6l-3.8-1.2l-3.7-0.2
		l-4,0.4l-3.7,1.2l-2.8,3.8l-1.3-3.8l-4.5-0.6l-3.5,2.8l-1.5,4l-3.9,2l-1.9-3.7l-2.5-4.8l-3.6,1.4l-2.6-2.6l-2.1,3.6l-3,2.2
		l-3.8,1.6l-3.5,2.5l-3.8,1.4l-3.9,1.4l-3.5,1.9l-3.8,3.6l-1.5-4.4l-3.9-0.6l-4.3,1.2l-4.4,1.9l-4.1-0.6l-0.9-4l-3.7-1l-1.8,4.2
		l-0.1,4l-4.1-0.4l-1.7-3.6l-4.1-0.6l-2.5,3l-1.7,5.2l-2.7,4.4l-3.5,3.6l-3.8,2.7l-3.6,2.3l-2.3,3.8l-1.2,5l3.7,2.9l-1,5l-3.2,3.8
		l-3,4.4l-4.8,4.3l-3.8,3.2l-4.2,3.3l-4.3,2.8l-5.1,2l-5.3,0.6l-2.4,1.1l-4.7,2l-4.7,2.6l-3.1,5.9l-4.2,4.6l-4.2,4.7l-5.8,3.8
		l-4.9,3.9l-1.5,3.6l-0.5,13.1l0.9,6.9h6.7l7.1-2.9l6.7-0.7v7l1.5,6.9l2.4,7.1l-5.3,5.3l-7.6,3.7l-7.1,3l-6.5,4.8l-6.8,4.9l-8.7,0.4
		l-4.8,6.9l-2.2,10.5l-7-5.8l-8.4-3.3l-8.6,0.5l-6.1,6.7l-7.1,6.4l-6,8.2l-5.7,8l-4.2,10l-1.7-10.6l-3.4-12.6l-6.4-8.5l-5.9-7.2
		l-8.4-6.5l-8.6-3.6l-6.3-7l-4.9-6.8l-6.2-5.8l-7.3-3.2l-4.4-7.4l-0.7-7.2l-4-6.2l0.1-7.1l0.2-7.2l4.9-4.3l5.9,1.6l3.8-5.2l-2.2-5.7
		l-3.8-4.3l-5.3-2.7l-1.1-6h5.8l5.5-1.2l6.1,0.6l5.5-0.6l2.8-6l4.7-3.1l4.3-3.1l4.6-2.2l5.2-5.1l2.1-4.5l1.5-4.6l4.6-1.8l2-4.2
		l1.9-5.1l0.5-6.4l-1.1-4.6l-0.3-4.5l-1-4.2l-0.5-10l-1-3.9l-1.6-3.4l-1-4l-0.7-3.7l-1.4-3.8l-2.6-3l-2.8-2.2l-1.8-3l-1.2-3.8
		l0.5-3.4l2.2-3.9l2-2.8l1.9-2.9l3.2-0.7l2.4-2l-1.6-2.8l-0.2-3.1l0.5-3.2l1.7-2.4l2.5-2l2.4-1.9l2.8-0.8l2.6,1.2l1.5-1.7l3.5-2.3
		l1.3-2.6l-2-1.9l-2.7,0.9l-1.9,2.4l-2.5,2l-2.8,0.9l-2.4,1.5l-2.2,2.5l-3.3,0.5l-2.2,2l-1.9,2.2l-1.3,3.6l-2.8,2.5l-2.4,2.7
		l-2.2,3.2l-1.9,2.6l-1.7,4l0.4,3.5l0.7,3.9l-0.5,3.7l-1.3,3.9l-1.6,3.6l-0.3,3.9l0.2,3.9l0.9,3.6l1.1,4.1l1.2,4.2l1.1,4.2l0.4,4.5
		l-0.8,4.9l-2,3.6l-3.4,2.5l-4.4,1.6l-4.9,1.4l-4.2,1.6l-3.5,3.1l-3.6,2.7l-4.6,1.2l-2.4-4.1l-3.5-2.6l-4.7,1.2l-3.4-4.7l-1.3,4.2
		l-2.7,4.6l-4.1-2.7l-4.2-1.4l-4.5-0.5l-2.8-4.7l-4.3,1.2l-4-2.1l-2.8-5.2l-3,9l-4.6,0.9l-3.5-2.8l-4.3,1.4l-4.7,2.4l-4.4,1.7
		l-4.7-0.7l-1.5-4.3l-3.5-3.5l-4-1.8l-4.4,0.7l-4.5-0.7l-2.6-1.6l1.2,8.8l0.7,4.5l1.9,4.6l4.4,1l1.7,4.5l2.2,4.3l-1.8,5.8l-4.7-2.4
		l-4.7-1.8l-5.2-0.5l-4.4,2.4l-4.9,0.8l-4-3.7l-4.7-1.5l-4.1-4.8l-3.6,3.8l-2.2-4.3l-1.2-4.5l-2.2-3.9l-3.7,4.4l-4.1,2.2l-4.3-2.7
		l-4.2,2l-3.5,3.7l-4.7,0.5l-5.1-0.3l-5-0.3l-4.8,0.5l-5.1-1.3l-4.7-1.2l-4.5,1.8l-4.7,0.3l-4.6-2.3l-5.1,1.8l-2.4-1l-2.7-0.7
		l-4.2,2.8l-3.7,2.8l-4.7,3.1l-4.7,1.3l-4.9,0.3l-4,3.4l-5.1,2.8l-2-4.5l-4.4,2.4l-1,4.9l1.2,5.3l0.1,5.4l-5.2,1.4l-3.9,5l-4.3,4.2
		l-4.6,3.4l-5.5,1.5l-2.8-6.7l-5.5,2.1l-5.7,1.5l-3.1-4.9l-1.7-1.5l1.1,18l2.7,5.9l4.4,5.4l2.2,6.6l6.7,1.8l6.2,2.5l7.1,1.1l5.1,5.5
		l4.4,5.3l1.2,8.3l-2.8,7l-5.7,8.1l-6.1,6.6l-5-7.5l-8,3.5l-8.4-1.3l5.3,7.1l2.6,8.3l5.7,6.7l0.7,10.5l-1.3,10l-1.3,11.7l-0.6,13.6
		l9.2,6.9l2.9,13.1l11.1,8.3l13.6,1.4l-0.8,18l-9.7,11.2l-9.1,12.8l-8.3-13.6l-14.6-8.1l-9.9,11.4l-13.3-9.8l-7.8-12.3l-9.8-9.5
		l-5.2-11.8l-1.6-4.1l-1.7-4.1v15.6v16.9v18.5v20.4v22.7v25.7v29.5v34.7v42.2v53.7v74L1259.9,1529.4L1259.9,1529.4z M42.4,1054.4
		l2,6.4l4.5,6.6l6.6-2.6l-0.9-8.3l-2.6-6.3l-3.4-5.4l-6.4-2.7l-2.1,6.4l2.2,4.8L42.4,1054.4z"/>
	<path id="AR" class="st0" d="M378.3,823.1l-3.3,0.3l-1.8-2.1l-2.1-0.2h-3.7v-13l1.3,2.6l1.7,4.3l4.5,3.5l4.8,1.5L378.3,823.1z
		 M380.1,672.7l2,2.7l1.3-3l3.9,0.1l0.6,0.8l6.3,6.1l2.8,0.6l4.2,2.8l3.6,1.5l0.5,1.7l-3.4,5.8l3.5,1l3.9,0.6l2.7-0.6l3.1-3l0.6-3.4
		l1.7-0.7l1.7,2.2l-0.1,3.1l-2.9,2.1l-2.3,1.6l-3.9,3.8l-4.6,5.4l-0.9,3.2l-0.9,4.1l0,4.1l-0.7,0.9l-0.3,2.7l-0.2,2.2l4.4,3.6
		l-0.5,2.9l2.1,1.8l-0.2,2.1l-3.3,5.5l-5.1,2.3l-6.9,0.9l-3.8-0.4l0.7,2.6l-0.7,3.3l0.6,2.3l-2.1,1.6l-3.5,0.6l-3.3-1.7l-1.3,1.2
		l0.5,4.6l2.3,1.4l1.9-1.5l1,2.4l-3.2,1.4l-2.8,2.9l-0.5,4.8l-0.8,2.6l-3.3,0l-2.7,2.5l-1,3.7l3.4,3.7l3.3,1l-1.2,4.6l-4.1,2.9
		l-2.2,6.2l-3.1,2.1l-1.4,2.5l1.1,5.7l2.3,3.2l-1.4-0.3l-3.2-0.9l-8.3-0.7l-1.4-3.2l0.1-4.1l-2.3,0.3l-1.2-2l-0.3-5.6l2.6-2.3
		l1.1-3.3l-0.4-2.6l1.8-4.3l1.2-6.6l-0.4-2.9l1.5-0.9l-0.4-1.8l-1.6-1l1.1-2l-1.6-1.8l-0.8-5.4l1.4-0.9l-0.6-5.6l0.8-4.6l0.9-4
		l2.1-1.6l-1-4.3l0-4l2.6-2.8l-0.1-3.5l2-4.1l0-3.8l-0.9-0.7l-1.6-7l2.1-4.1l-0.3-3.8l1.2-3.6l2.3-3.6l2.4-2.4l-1-1.5l0.7-1.2
		l-0.1-6.3l3.7-1.8l1.2-3.9l-0.4-0.9l2.9-3.3L380.1,672.7z"/>
	<path id="AT" class="st0" d="M662.3,406.6l-0.3,2.1l-1.9,0l0.7,1.1l-1.1,3.3l-0.6,0.8l-3,0.1l-1.7,1.1l-2.9-0.4l-4.9-1.3l-0.8-1.8
		l-3.4,0.9l-0.4,0.9l-2.1-0.7l-1.8-0.1l-1.6-0.9l0.5-1.2l-0.1-0.9l1-0.3l1.7,1.4l0.5-1.3l3,0.2l2.5-0.9l1.6,0.1l1.1,1l0.3-0.9
		l-0.5-3.3l1.2-0.7l1.2-2.4l2.6,1.7l1.9-2.1l1.2-0.4l2.7,1.6l1.6-0.3l1.6,1l-0.3,0.7L662.3,406.6z"/>
	<path id="AU" class="st0" d="M1104.6,748.5l3.3,1.6l1.9-0.6l2.7-0.9l2.1,0.3l0.2,5.4l-1.2,1.6l-0.4,3.8l-1.2-1.3l-2.4,3.3l-0.7-0.3
		l-2.1-0.1l-2.1-4l-0.5-3.1l-2-4l0.1-2.1L1104.6,748.5z M1098.2,642.7l1.2,2.8l2.2-1.3l1.1,1.5l1.7,1.4l-0.4,1.6l0.7,3.1l0.5,1.8
		l0.9,0.4l0.9,3.1l-0.3,1.9l1.1,2.4l3.7,1.9l2.4,1.7l2.3,1.6l-0.5,0.9l2,2.3l1.3,4l1.4-0.8l1.4,1.6l0.8-0.6l0.6,3.9l2.4,2.3l1.6,1.4
		l2.7,3.1l1,3.1l0.1,2.2l-0.2,2.4l1.6,3.3l-0.2,3.5l-0.6,1.8l-0.9,3.5l0.1,2.3l-0.7,2.9l-1.5,3.7l-2.6,2l-1.2,3.2l-1.2,2l-1,3.6
		l-1.3,2.1l-0.9,3.2l-0.4,3l0.2,1.4l-2,1.5l-3.9,0.2l-3.2,1.8l-1.6,1.7l-2.1,1.9l-2.9-1.9l-2.1-0.8l0.5-2.3l-1.9,0.8l-3,3.2l-3-1.2
		l-1.9-0.7l-2-0.3l-3.3-1.3l-2.2-2.7l-0.6-3.3l-0.8-2.1l-1.7-1.7l-3.3-0.5l1.1-2l-0.8-3.1l-1.7,2.9l-3.1,0.8l1.8-2.3l0.5-2.4l1.3-2
		l-0.3-3l-2.8,3.5l-2.1,1.4l-1.3,3.3l-2.7-1.7l0.1-2.2l-2.1-3l-1.8-1.5l0.6-0.9l-4.4-2.5l-2.4-0.1l-3.3-2l-6.2,0.4l-4.5,1.4
		l-3.9,1.3l-3.3-0.3l-3.7,2.1l-3,0.9l-0.7,2.1l-1.3,1.7l-2.9,0.1l-2.2,0.4l-3.1-0.7l-2.5,0.5l-2.4,0.2l-2,2.2l-1-0.2l-1.7,1.2
		l-1.7,1.3l-2.5-0.2h-2.3l-3.7-2.7l-1.8-0.8l0.1-2.4l1.7-0.6l0.6-0.9l-0.1-1.5l0.4-2.8l-0.4-2.4l-1.8-4l-0.6-2.3l0.1-2.2l-1.4-2.6
		l-0.1-1.1l-1.5-1.5l-0.4-3l-2-3.1l-0.5-1.6l1.5,1.7l-1.2-3.5l1.7,1.1l1,1.5l-0.1-1.9l-1.7-3l-0.3-1.2l-0.8-1.1l0.4-2.2l0.7-0.9
		l0.5-1.9l-0.4-2.2l1.4-2.7l0.3,2.8l1.4-2.5l2.8-1.2l1.7-1.6l2.6-1.3l1.6-0.3l0.9,0.5l2.7-1.4l2.1-0.4l0.5-0.8l0.9-0.3l1.9,0.1
		l3.6-1.1l1.9-1.6l0.9-1.9l2-1.8l0.2-1.4l0.1-1.9l2.4-3l1.4,3.1l1.5-0.7l-1.2-1.7l1.1-1.7l1.5,0.8l0.4-2.7l1.9-1.7l0.8-1.4l1.7-0.6
		l0-1l1.5,0.4l0.1-0.9l1.5-0.5l1.7-0.5l2.5,1.6l1.9,2.1l2.1,0l2.2,0.3l-0.7-1.9l1.6-2.8l1.5-0.9l-0.5-0.9l1.5-2l2.1-1.2l1.8,0.4
		l2.9-0.7l-0.1-1.8l-2.5-1.2l1.8-0.5l2.3,0.9l1.8,1.4l2.9,0.9l1-0.4l2.1,1.1l2-1l1.3,0.3l0.8-0.7l1.6,1.7l-0.9,1.9l-1.3,1.4
		l-1.2,0.1l0.4,1.4l-1,1.8l-1.2,1.7l0.2,1l2.7,2l2.7,1.1l1.8,1.2l2.5,2.1h1l1.8,0.9l0.5,1.1l3.3,1.2l2.3-1.2l0.7-1.9l0.7-1.6
		l0.4-1.9l1-2.8l-0.5-1.7l0.2-1l-0.4-2l0.5-2.7l0.7-0.7l-0.5-1.2l0.8-1.8l0.6-1.9l0.1-1l1.3-1.3l1,1.7l0.2,2.2l0.9,0.4l0.1,1.5
		l1.2,1.8l0.3,2L1098.2,642.7z"/>
	<path id="AZ" class="st0" d="M758.8,446.7l1,1.2l1.5,0l0,0.7l1.4,2.6l-2.4-0.6l-1.7-2l-0.5-1.7L758.8,446.7z M767,440l1.5,0.3
		l0.6-1.2l2-1.8l1.8,2.4l1.8,3.2l1.6,0.2l1.1,1.2l-2.8,0.4l-0.6,3.5l-0.6,1.5l-1.3,1l0.1,2.2l-0.9,0.2l-2.1-2.3l1.2-2.2l-1-1.3
		l-1.3,0.3L764,451l-0.1-3.1l-1.5-0.7l-1.5-1.2l1-1.4l-1.8-1.5l0.7-1.1l-1.3-0.8l-0.7-1.2l0.8-0.7l2.6,1.3l1.8,0.3l0.5-0.5l-1.7-2.5
		l0.9-0.6l1,0.2L767,440z"/>
	<path id="BA" class="st0" d="M669.3,422.9l1.2,0l-0.9,2.1l1.7,1.8l-0.5,2.2l-0.8,0.2l-0.6,0.4l-1.1,1.1l-0.5,2.6l-3.1-1.8l-1.3-2
		l-1.3-1l-1.6-1.8l-0.7-1.5l-1.7-2.2l0.7-2l1.2,1.1l0.7-1l1.6-0.1l3,0.8l2.4-0.1L669.3,422.9z"/>
	<path id="BD" class="st0" d="M923,517.8l-0.1,2.6l-1.2-0.6l0.2,3l-1-1.9l-0.2-1.9l-0.7-1.8l-1.4-2.2l-3.2-0.1l0.3,1.5l-1.1,2
		l-1.5-0.7l-0.5,0.7l-1-0.4l-1.3-0.3l-0.5-3.1l-1.2-2.8l0.6-2.3l-2.1-1l0.8-1.4l2.1-1.4l-2.5-2l1.2-2.6l2.7,1.6l1.6,0.2l0.3,2.6
		l3.3,0.5l3.2-0.1l2,0.6l-1.6,3.2l-1.5,0.2l-1.1,2.1l1.9,1.9l0.6-2.4l1,0L923,517.8z"/>
	<path id="BE" class="st0" d="M615.3,389.5l2.5,0.4l3.2-1.1l2.2,2.4l1.9,1.3l-0.4,3.7l-0.9,0.2l-0.4,3l-3-2.4l-1.8,0.4l-2.4-2.5
		l-1.6-2.2l-1.6-0.1l-0.5-1.9L615.3,389.5z"/>
	<path id="BF" class="st0" d="M594.1,562.1l-2.4-0.9l-1.6,0.1l-1.2,0.9l-1.5-0.7l-0.6-1.1l-1.5-0.8l-0.2-2l0.9-1.5l-0.1-1.2l2.7-2.9
		l0.5-2.4l0.9-0.9l1.7,0.5l1.4-0.7l0.5-0.9l2.7-1.6l0.6-1.1l3.2-1.5l1.9-0.5l0.9,0.7l2.2,0l-0.3,1.7l0.5,1.6l1.9,2.3l0.1,1.7l4,0.8
		l-0.1,2.4l-0.7,1.1l-1.7,0.3l-0.7,1.5l-1.2,0.4l-3-0.1l-1.6-0.3l-1.1,0.6l-1.5-0.3l-6,0.2l-0.1,2L594.1,562.1z"/>
	<path id="BG" class="st0" d="M681.9,425.9l1,2l1.3-0.4l2.7,0.7l5.1,0.2l1.7-1.2l4.1-1.1l2.5,1.7l2,0.5l-1.8,1.9l-1.2,3.4l1.1,2.7
		l-3-0.6l-3.5,1.4l0,2.3l-3.1,0.4l-2.4-1.6l-2.8,1.3l-2.5-0.1l-0.2-3l-1.7-1.5l0.6-0.7l-0.4-0.6l0.6-1.5l1.3-1.5l-1.7-2L681,427
		L681.9,425.9z"/>
	<path id="BI" class="st0" d="M704.9,610.6l-0.2-4.1l-0.9-1.5l2.1,0.3l1.1-1.9l1.8,0.2l0.2,1.3l0.7,0.8l0,1.1l-0.8,0.7l-1.3,1.8
		l-1.2,1.2L704.9,610.6z"/>
	<path id="BJ" class="st0" d="M613.1,573.7l-2.9,0.4l-0.8-2.4l0.2-7.9l-0.7-0.7l-0.1-1.7l-1.2-1.2l-1-1l0.4-1.8l1.2-0.4l0.7-1.5
		l1.7-0.3l0.7-1.1l1.2-1l1.2,0l2.6,2l-0.1,1.2l0.8,2.1l-0.7,1.4l0.4,0.9l-1.7,2.1l-1.1,1.1l-0.6,2.2l0.1,2.2L613.1,573.7z"/>
	<path id="BN" class="st0" d="M997.1,579.7l1.4-1.3l2.9-1.9l-0.2,1.7l-0.2,2.2l-1.6-0.1l-0.7,1.2L997.1,579.7z"/>
	<path id="BO" class="st0" d="M387.4,672.5l-3.9-0.2l-1.3,3l-2-2.7l-4.5-0.9l-2.9,3.3l-2.5,0.5l-1.3-5.1l-1.8-4.1l1.1-3.5l-1.8-1.5
		l-0.5-2.6l-1.7-2.5l2.2-3.9l-1.5-3l0.8-1.2l-0.6-1.3l1.3-1.8l0.1-3l0.2-2.5l0.7-1.2l-3-5.6l2.6,0.3l1.8-0.1l0.8-1l3-1.4l1.8-1.3
		l4.5-0.6l-0.4,2.6l0.4,1.3l-0.3,2.3l3.7,3.1l3.9,0.6l1.3,1.3l2.3,0.7l1.4,1l2.2,0l2,1l0.1,2l0.7,1l0,1.5l-1,0l1.3,4.1l6.6,0.1
		l-0.5,2.1l0.4,1.4l1.9,1l0.8,2.2l-0.6,2.9l-0.9,1.6l0.3,2.1l-1.1,0.7l0-1.1l-3.2-1.8l-3.2-0.1l-6,1.1l-1.6,3.2l-0.1,2l-1.4,4.4
		L387.4,672.5z"/>
	<path id="BR" class="st0" d="M405.4,703.8l4.6-5.4l3.9-3.8l2.3-1.6l2.9-2.1l0.1-3.1l-1.7-2.2l-1.7,0.7l0.7-2.2l0.5-2.2v-2.1
		l-1.2-0.7l-1.3,0.6l-1.3-0.2l-0.4-1.4l-0.3-3.4l-0.6-1.1l-2.3-1l-1.4,0.7l-3.6-0.7l0.2-5l-1-2l1.1-0.7l-0.3-2.1l0.9-1.6l0.6-2.9
		l-0.8-2.2l-1.9-1l-0.4-1.4l0.5-2.1l-6.6-0.1l-1.3-4.1l1,0l0-1.5l-0.7-1l-0.1-2l-2-1l-2.2,0l-1.4-1l-2.3-0.7l-1.3-1.3l-3.9-0.6
		l-3.7-3.1l0.3-2.3l-0.4-1.3l0.4-2.6l-4.5,0.6l-1.8,1.3l-3,1.4l-0.8,1l-1.8,0.1l-2.6-0.3l-1.9,0.6l-1.6-0.4l0.2-5.3l-2.8,2l-3-0.1
		l-1.3-1.8l-2.3-0.2l0.7-1.5l-1.9-2.1l-1.4-3.1l0.9-0.6v-1.5l2.1-1l-0.3-1.8l0.9-1.2l0.3-1.6l3.9-2.3l2.8-0.6l0.5-0.5l3.1,0.2
		l1.5-9.4l0.1-1.5l-0.5-1.9l-1.5-1.2l0-2.5l1.9-0.6l0.7,0.4l0.1-1.3l-2-0.4l0-2.1l6.7,0.1l1.1-1.2l1,1.1l0.7,2l0.6-0.4l1.9,1.8
		l2.7-0.2l0.7-1.1l2.6-0.8l1.4-0.6l0.4-1.4l2.5-1l-0.2-0.7l-2.9-0.3l-0.5-2.2l0.1-2.3l-1.5-0.9l0.6-0.3l2.6,0.4l2.7,0.9l1-0.8
		l2.5-0.5l3.9-1.3l1.3-1.3l-0.5-1l1.8-0.1l0.8,0.8l-0.5,1.5l1.2,0.5l0.8,1.6l-1,1.2l-0.6,2.9l0.9,1.7l0.2,1.6l2.1,1.6l1.7,0.2
		l0.4-0.7l1.1-0.1l1.6-0.6l1.1-0.9l1.9,0.3l0.8-0.1l1.9,0.3l0.3-0.7l-0.6-0.7l0.3-1l1.4,0.3l1.6-0.4l2,0.7l1.5,0.7l1.1-0.9l0.8,0.1
		l0.5,1l1.6-0.2l1.3-1.3l1.1-2.5l2-3.1l1.2-0.2l0.8,1.9l1.9,6l1.8,0.6l0.1,2.4l-2.6,2.8l1.1,1l6.1,0.5l0.1,3.4l2.6-2.2l4.3,1.2
		l5.7,2.1l1.7,2l-0.6,1.9l4-1.1l6.7,1.8l5.1-0.1l5.1,2.8l4.4,3.8l2.7,1l3,0.1l1.2,1.1l1.2,4.4l0.6,2.1l-1.4,5.7l-1.8,2.3l-4.9,4.8
		l-2.2,3.9l-2.5,3.1l-0.9,0.1l-1,2.6l0.2,6.6l-1,5.5l-0.4,2.4l-1.1,1.4l-0.6,4.8l-3.5,4.8l-0.6,3.8l-2.8,1.6l-0.8,2.2l-3.7,0
		l-5.4,1.4l-2.4,1.7l-3.9,1.1l-4.1,3l-2.9,3.8l-0.5,2.9l0.6,2.1l-0.6,3.9l-0.8,1.9l-2.4,2.1l-3.8,7l-3,3.2l-2.3,1.9l-1.6,3.9
		l-2.3,2.3l-1-2.3l1.5-1.9l-2-2.8l-2.7-2.2l-3.6-2.6l-1.3,0.1l-3.5-3.1L405.4,703.8z"/>
	<path id="BS" class="st0" d="M336.8,511.5l-0.8,0.2l-0.9-2.2l-1.3-1.1l0.7-2.4l1,0.1l1.2,3.1L336.8,511.5z M335.8,500.8l-3.8,0.6
		l-0.2-1.4l1.6-0.3l2.3,0.1L335.8,500.8z M338.7,500.7l-0.6,2.7l-0.6-0.5l0.1-2l-1.5-1.5l0-0.4L338.7,500.7z"/>
	<path id="BT" class="st0" d="M919.6,496.2l1.4,1.2l-0.2,2.4l-2.8,0.1l-2.9-0.3l-2.2,0.6l-3.1-1.5l-0.1-0.8l2.3-2.9l1.8-1l2.5,0.9
		l1.8,0.1L919.6,496.2z"/>
	<path id="BW" class="st0" d="M692.2,659.8l0.7,0.6l1.1,2.1l3.9,4l1.5,0.4l0,1.3l1,2.3l2.7,0.6l2.2,1.7l-4.9,2.7l-3.1,2.8l-1.1,2.5
		l-1,1.4l-1.9,0.3l-0.6,1.8l-0.4,1.2l-2.2,0.9l-2.8-0.2l-1.6-1.1l-1.4-0.5l-1.7,0.9l-0.8,1.8l-1.6,1.1l-1.7,1.7l-2.5,0.4l-0.8-1.3
		l0.3-2.3l-2-3.6l-0.9-0.6v-10.9l3.4-0.1l0.1-13l2.6-0.1l5.3-1.3l1.3,1.5l2.2-1.4l1.1,0l1.9-0.8l0.6,0.3L692.2,659.8z"/>
	<path id="BY" class="st0" d="M684.7,375l3.3,0l3.7-2.2l0.8-3.3l2.8-1.9l-0.3-2.7l2.1-1l3.7-2.4l3.6,1.5l0.5,1.5l1.8-0.7l3.4,1.4
		l0.3,2.8l-0.7,1.6l2.2,3.9l1.4,1.1l-0.2,1.1l2.3,1l1,1.5l-1.3,1.2l-2.8-0.2l-0.7,0.5l0.8,1.9l0.8,3.6l-3,0.3l-1.1,1.2l-0.2,2.8
		l-1.4-0.5l-3.1,0.3l-0.9-1.3l-1.3,1l-1.3-0.8l-2.7-0.1l-3.8-1.3l-3.5-0.4l-2.7,0.1l-1.9,1.5l-1.6,0.2l-0.1-2.5l-1.1-2.6l2.1-1.2
		l0-2.3l-1-2.2L684.7,375z"/>
	<path id="BZ" class="st0" d="M296.9,533.3l0-0.5l0.4-0.2l0.6,0.4l1.2-2.2l0.6,0l0,0.5l0.6,0l0,1l-0.6,1.6l0.3,0.6l-0.4,1.3l0.2,0.3
		l-0.4,1.8l-0.7,1l-0.6,0.1l-0.7,1.2h-1l0.3-4L296.9,533.3z"/>
	<path id="CA" class="st0" d="M264.5,144.2l-0.3-7.2l4.5,0.7l2,1.2l4.1,6l-0.9,6.1l-5.1,3.4l-2.8-3.8L264.5,144.2z M280.7,159.8
		l0.4-1.8l-2.4-3l-6.9-0.2l0.9,4.5l6.4,1L280.7,159.8z M325.3,217.5l3.8,6.3l1,0.7l3.8-1.6l3.7,0.2l3.7,0.3l-0.3-3.2l-5.9-6.6
		l-7.9-1.3l-1.7,0.8L325.3,217.5z M245,140.4l-3.3,5.1l7.7,0.6l5.7,5.5l5.6,1.8l-1.3-7l-2.6-8.3l-9.3-6.6l-6.8-2.5l0.2,7L245,140.4z
		 M276.8,127.9l6.3-0.1l-2.7,4.9l0,6.5l3.7,7.1l7.1,2.2l6.1-1.2l6.4-13.2l4.7-5.5l-4.2-6.1l-2.7-13.1l-5.6-3.9l-5.8-4.5l-4.4-11.7
		l-8,1.2l1.5,5.1l-3.5,1.5l-2.4,6.5l-2.4,9.2l2.2,8.9L276.8,127.9z M198.5,193.4l4.8,2.4l15.6-1.6l-7.1,5.9l0.4,4.2l5.2-0.3l8.7-5.6
		l11.7-2l2.1-6.4l-0.6-6.8l-3.6-0.6l-3.1,2.4l-1.3-5.1l-1.2-7l-3.6-1.7l-3.2,5.4l4.9,13.6l-6-1l-6.1-8.3l-9.7-4.9l-3.2,4.1
		L198.5,193.4z M226.2,141.8l-4.5-3.6l-1.8-0.8l-3.5,5.3l-0.1,2.5l5.7,0L226.2,141.8z M224.4,156.9l1.1-4.9l-4.9-2.6l-5,1.7
		l-2.8,5.2l5.1,5.2L224.4,156.9z M260.1,197.8l5.7-1.4l1.6-10.1l-0.1-7.3l-2.6-6.8l-0.3,2l-4.8-0.9l-5.2,5l-3.7-0.5l0.2,11l5.6-1.1
		l-0.1,8L260.1,197.8z M256.1,253.8l-6.2-4.8l-5.8-5.2l-1.1-7.6l-2.2-11l-3.9-4.7l-3.4-1.9l-3,1.7l2.4,11.8l-1.7,4.6l-2.8-11
		l-3.1-3.8l-3.9,5.9l-4.8-5.8l-7.7,3.5l1.7-5.5l-3.5-2.3l-9.2,7.2l-2.4,4.6l-2.9,8.3l6,2.9l5.3-0.1l-8,4.3l1.8,3.8l4.9,0.2l7.4-0.8
		l6.7,2.4l-4.5,1.8l-4.9-0.5l-5.3,1.7l-2.3,1.1l4.2,7.8l3.1-1.1l4.7,2.6l1.9,4.5l6.1-0.9l8.7-1.4l6.5-3.3l4-0.6l5.9,2.6l6.2,1.5
		l1.2-3.5l-2.2-3.7l5.6-0.8L256.1,253.8z M265.6,252.6l-2.4,4.3l-3,3.1l4.7,4.3l2.8-1l4.6,2.9l2.1-3.4l-2.1-3.7l-1-1.9l-2.1-1.8
		L265.6,252.6z M244,216.4l-2.6-2.7l-4.6,0.5l-1.2,1.7l5.4,8.3L244,216.4z M279.2,232.6l3.7-8.5l4.1-2.3l5.1-10.7l-6.6-3l-7.2-0.4
		L275,211l-1.8,5.2l0,5.9l2.1,10.1L279.2,232.6z M300.3,204.3l7.1-0.2l9.9-2l4.4,1.6l5.1-2.8l2.1-3.5l-0.8-5.5l-3.7-5.2l-5.6-1
		l-7,1.2l-5.5,3l-5-1.2l-4.6-0.6l-2.2-3.3l-4-3.2l0.8-5.4l-3-4.9l-6.8,0l-3.8-4.9l-7.1-1l-1.3,6.3l4,4.6l7.1,1.8l3.5,6.2l0.4,6.9
		l1.2,7.4l9.2,4.2L300.3,204.3z M190.9,181.9l6.4-6.2l3.2-0.7l2.7-5.2l0.5-12l-4.7,2.3l-5.3-0.2l-7.1,10.1l-5.8,11l4.7,3.1
		L190.9,181.9z M279.6,201.7l1.9-5.1l-1.2-4.3l-3-4.8l-4.9,3.7l-1.8,6l4.2,3.4L279.6,201.7z M269.4,215.8l-0.9-3.5l-6.1,1.5
		l-4.1-2.6l-4.1,5.9l3.8,7.7l-7-1.4l-0.1,3.7l8.6,8.7l2.4,4.2l3.3,0.9l5.6-4.2l0.6-10.1l-5.2-5L269.4,215.8z M178.5,404.6l-1.4-2.9
		l-3.4-2.2l-1.7-2.5l-1.2-1.8l-3.2-0.6l-2.1-0.8l-3.6-1.2l-0.3,1.2l1.3,2.9l3.6,1l0.6,1.5l3.1,1.8l1,1.8l5.6,2.4L178.5,404.6z
		 M328,309.3l-2.5-2.6l-2.5,0.6l-0.3-3.8l-3.9-2.5l-3.8-2.8l-2-2.1l-1.8,1.3l-0.6-3.6l-2.5-0.7l-1.2,7.5l-0.4,6.3l-3,3.9l4.7-0.7
		l1.2,4.5l4.9-4l3.4-4.2l1.9,3.5l5.4,1.8L328,309.3z M179.9,244.7l9.1-5.1v-4.8l4.3-7.9l8.5-8.2l4.3-3l-3.7-5.2L199,207l-8.8-0.7
		l-4.9-2.7l-11.6,2l3.4,7.7l-3,7.9l-2.4,8.4l-1.5,4.7l8,5.8L179.9,244.7z M344.8,278.3l0.4-1.2l0-3.9l-2.7-2.6l-3.2,1.3l-1.5,5.1
		l0.9,4.4l3.9-0.4L344.8,278.3z M374.1,287.5l5.4,8.1l4.2,3.5l6-9.7l1.1-6.1l-5.4-0.6l-4.9-8.2l-5.5-2l-8.1-6.1l6.3-4.5l-3.3-9.3
		l-3-4.1l-8.3-4.1l-3.6-6.8l-6.4,2.4l-0.4-4.7l-4.7-5.3l-7.6-5.8l-3.3,4.6l-6.8,3.3l0.5-7.4l-5.9-12.3l-8.7,5l-3.2,9.5l-2.7-7.3
		l2.5-7.8l-8.9,3.3l-3.5,4.9l-2.6,10.3l1.1,11.1l4.9,0l-3.6,4.8l2.9,3.6l5.6,1.5l7.3,3l12.5,2.2l6.2-1.3l1.8-3l2.7,3.4l3,0.6
		l3.7,6.1l-2.2,2.4l7,3.2l5.3,4.5l1.3,3.1l0.9,4l-4.5,8.5l-1.2,4.2l1.2,3l-7.1,1.1l-6.5,0.1l-2.3,6l2.9,2.7l10-1.3l0-2.3l5,3.9
		l5.1,4l-1.2,2.2l4.2,3.7l7.4,4.3l9.3,2.9l-0.6-2.6l-3.6-4.5l-4.9-6.6l8.6,6.1l4.3,2l1.2-5.5l-2.2-7.7l-1.4-2.1l-4.7-3.7l-3.6-4.8
		l0.4-4.8L374.1,287.5z M293.2,89.1l2.9,9l6.1,7.2l12.1-1.3l7.8,2.4l-5.4,7.4l-2.7-2.2l-9.4-0.9l1.5,10.2l4.9,7.4l-1,6.4l-6.1,4.3
		l-2.8,6.7l5.6,3.3l4.7,10.5l-9.2-7l-2.1,1.2l1.7,11.5l-6.4,3.5l0.4,7.2l6.5,0.8l5.1,1.8l10.1-2.3l9,4l9.2-8.8l-0.1-3.7l-5.9,0.6
		l-0.5-3.5l4.8-4.7l1.6-6.3l5.3-4.7l3.3-5.8l-2.9-8.7l2.4-3.3l-4.7-2.3l10.4-2l2.2-3.9l7.1-3.2l5.9-16.5l5.6-6.1l8.1-13.7l-7.5,0.1
		l3.1-5.3l8.3-4.9l8.4-10.9l0.1-7l-6.3-7.4l-7.4-3.6l-9.2-2.2l-7.5-1.8l-7.5-1.8l-9.9,4.9l-1.8-3.1l-10.5,1.2l-6.2,3.2l-4.5,4.5
		l-2.6,14.4l-3.8-7.4l-4.3-1.4l-5.1,9.8l-6.8,4.1l-4,0.8l-5.1,4.7l0.7,8.2L293.2,89.1z M384.6,414.6l-1.2-2.4l-1.3,1.5l0.9,1.7
		l4.4,2.1l1.3-0.3l1.7-2l-3.2,0.1L384.6,414.6z M314.6,319l0.7,2l2.4,0.2l4-4.1l0.1-1.5l-4.7-0.1L314.6,319z M390.9,400.6l-3.5-2.2
		l-4.5-1.3l-1.2,0.5l3.2,2.5l4.5,1.6l1.7-0.1L390.9,400.6z M421.5,406.4l-0.4-2.8l-2.4,0.9l1.1-3.8l-3.4-1.6l-1.6,1.3l-3.1-1.4
		l1.2-1.8l-2.3-1.1l-2.2,1.8l2.3-4.7l1.8-3.4l0.7-1.5l-1.6-0.2l-3,1.9l-2.1,3.1l-3.6,8.5l-2.9,3.1l1.5,1.4l-2.1,1.8l0.5,1.5l6.7,0.2
		l3.7-0.3l3.3,1.2l-2.4,2.4l2,0.2l4-4.4l1,0.6l-0.7,4.1l2.3,0.9l1.6-0.2l1.4-4.4L421.5,406.4z M395.4,412.3l-3.5,5.6l-5.7,0.7
		l-4.5-2.5l-1.1-3.8l-1.1-5.5l3.3-3.5l-3.1-2.6l-5.1,0.5l-7.2,4.3l-5.5,6.7l-2.9,0.8l4-4.7l5-6.8l4.4-2.3l2.9-3.8l3.6-0.4l5.2,0
		l7.4,1.1l5.8-0.9l4.3-4.4l5.7-1.9l2.5-1.9l2.5-2.1l-0.2-6.4l-1.4-2.2l-2.7-0.8l-1.4-5l-2.2-1.9l-5.5-1.5l-3.1-3.5l-4.6-3.5l1.4-3.9
		l-3.8-7.7l-4.5-8.5l-2.7-6.1l-2.3,3.2l-3.3,7.4l-5,3.7l-2.5-3.9l-3.1-1l-1.1-8.6l0.1-5.9l-6.1-0.5l-1-2.8l-4.2-4.2l-3.2-2.5
		l-2.9,1.9l-3.5-0.7l-5.9-2l-2.4,1.7l1.2,11.3l1.5,6.3l-4.1,7.1l4.2,4.9l2.3,5.5l0.3,4.2l-1.9,4.3l-3.9,4.3l-5.5,2.8l2.4,3.1
		l1.8,9.1l-1.9,5.7l-2.7,1.8l-5.1-5.3l-2.5-6.3l-1.1-5.8l0.6-5.1l-3.7-0.6l-5.7-0.3l-3.7-2.6l-4.3-1.7l-2.5-2.9l-3.4-2.4l-6.4-2.7
		l-4.8,1.2l-1.6-4.9l-1.5-6.1l-5.1-1.1l0.2-7.9l1.3-5.5l3.7-8.1l4.2-6l4-0.9l0.2-5l2.7-3.3l4.9-0.5l4-5.4l1-3.6l3.3-7l1-4.3l3.6,2.6
		l4.8-1.3l6.7-6.1l0.4-4.3l-2.4-4.9l2.6-5l-0.2-4.8l-4.6-4.9l-5.1-1.5l-4.9-0.8l-0.2,10.7l-2.5,8.1l-3.6,6.5l-3.3-6.1l1-6.9
		l-4.1-6.2l-4.6,7.5l0-9.8l-6.4-2l3.1-4.9l-4.7-11.8l-3.5-4.8l-4.5-1.8l-4.1,7.9l-0.3,11.5l4,4l3.7,6l-1.6,9.5l-2.8-0.2l-2.2,7.2
		l0-8.6l-5.3-3.2l-3.1,1.6l0.4,5.7l-5-0.2l-5.3,1.4l-6.1-4.1l-3.8,0.7l-3.5-5l-2.8-2.3l-2.8,0.9l-4.2,0.4l-2.2,3.2l3.5,3.9l-3.7,4.6
		l-3.7-5.4l-2.9,1.6l-9.3,1.1l-6.2-1.9l4.8-4.6l-4.6-4.8l-3.4,0.6l-4.7-1.6l-8.1-3.6l-5.3-4.1l-4.2-0.6l-1.3,2.9l-4.2,1.6l-0.5-7.6
		l-4.6,6.8l-5.8-9l-2.4-1.1l-0.8,4.8l-2.6,2.3l-2.4-4.2l-5.6,2.5l-5.2,4.4l-5.1-1.2l-4.2,3.1l-3,4l-3.6-0.9l-5.4-4.7l-6.4-2.4l0,34
		l0,43.5l3.4,0.2l3.4,1.9l2.4,3l3.1,4.4l3.4-3.7l3.5-2.2l1.8,3.5l2.3,2.7l3.2,3l2.1,4.7l3.5,7.2l5.9,3.9l0.1,3.8l-1.9,2.9l0.1,3.1
		l4.2,4.2l0.6,4.6l4.4,2.4l-0.5,3.4l1.9,4.9l6.2,2.2l2.5,2.3l6.7,5.2l0.5,0h9.8h10.2h3.4h10.5h10.2h10.3h10.3h11.7h11.8h7.1l0-2
		l1.2,0l0.6,2.9l1.1,0.9l2.4,0.3l3.5,0.8l3.3,1.6l2.8-0.7l4.2,1.3l1.4-2l1.9-0.8l0.8-1.3l0.8-0.7l3.2,1.1l2.4,0.1l0.8,0.7l1.2,2.9
		l3.9,0.8l-0.6,1.4l1.4,1.5l-0.6,1.9l1.4,0.6l-0.7,1.7l0.9,0.2l0.6-0.7l0.7,1.1l2.6,0.6l2.6,0l2.8,0.5l3.1,1l1.1,1.5l2.2,3.7
		l-1.1,1.6l-2.8-0.7l-1.7-3l0.4,3.1l-1.6,2.7l0.2,2.3l-0.3,1.3l-2.2,1.6l-1.6,2.6l-0.8,1.6l1.9,0.3l2.6-1.5l1.5-1.3l1-0.2l1.9,0.5
		l0.9-0.7l1.7-0.6l3-0.6l0,0l0,0l-0.3-1.4l-0.2,0l-1.1,0.2l-1.4-0.4l1-1.6l1-0.6l2.4-0.7l2.9-0.6l1.5,0.9l1-1l1.1-0.7l0.7,0.4l0,0.1
		l3.5-3.4l1.6-0.9l5.2,0h6.3l0.3-1.2l1.1-0.2l1.5-0.8l1.2-2.2l1.1-3.9l2.6-3.8l1.1,1.3l2.3-0.9l1.5,1.5v6.8l2.2,2.8l3.8-0.6l5.5-0.2
		l-6,4l0.1,4l2.6,0.3l3.8-3.4l3.4-1.9l7.6-2.9l4.3-3.2l-2.2-1.8L395.4,412.3z M329.5,325l1.3-3.8l-0.9-1.5l-1.4-0.2l-1.3,2.2
		l-0.2,0.5l0.9,2.2L329.5,325z M154.3,369.7L154.3,369.7l1.9-2.9L154.3,369.7z"/>
	<path id="CD" class="st0" d="M710,583.2l-0.2,4l1.4,0.5l-1.1,1.2l-1.3,0.9l-1.3,1.8l-0.7,1.6l-0.2,2.8l-0.8,1.3l0,2.6l-1,1l-0.1,2
		l-0.5,0.3l-0.3,1.9l0.9,1.5l0.2,4.1l0.6,3.2l-0.3,1.8l0.7,2l2,1.9l1.8,4.4l-1.3-0.4l-4.6,0.6l-0.9,0.4l-1,2.2l0.8,1.5l-0.6,4.1
		l-0.4,3.5l0.9,0.6l2.4,1.3l0.9-0.6l0.3,3.8l-2.6,0l-1.4-1.9l-1.3-1.5l-2.6-0.5l-0.8-1.8l-2.1,1.1l-2.8-0.5l-1.2-1.6l-2.2-0.3
		l-1.6,0.1l-0.2-1.1l-1.2-0.1l-1.6-0.2l-2.1,0.5L681,633l-0.9,0.3l0.2-4.1l-1.1-1.3l-0.3-2.1l0.5-2.1l-0.7-1.3l-0.1-2.2l-4.2,0
		l0.3-1.2l-1.8,0l-0.2,0.6l-2.1,0.1l-0.9,2l-0.5,0.9l-1.9-0.5l-1.1,0.5l-2.3,0.3l-1.3-1.8l-0.8-1.1l-1-2.1l-0.8-2.6l-10.2,0
		l-1.2,0.4l-1-0.1l-1.4,0.5l-0.5-1.1l0.9-0.4l0.1-1.5l0.6-0.9l1.2-0.7l0.9,0.3l1.2-1.3l1.9,0l0.2,1l1.3,0.6l2-2.2l2-1.7l0.9-1.1
		l-0.1-2.8l1.5-3.3l1.6-1.8l2.3-1.6l0.4-1.1l0.1-1.2l0.6-1.2l-0.2-1.9l0.4-3l0.7-2.1l1-1.8l0.2-2.1l0.3-2.4l1.3-1.7l1.8-1.1l2.8,1.2
		l2.2,1.3l2.5,0.3l2.6,0.7l1-2.1l0.5-0.3l1.6,0.3l3.8-1.7l1.3,0.7l1.1-0.1l0.5-0.8l1.3-0.3l2.6,0.4l2.2,0.1l1.1-0.4l2.1,2.8l1.5,0.4
		l0.9-0.6l1.6,0.2l1.9-0.7l0.8,1.5L710,583.2z"/>
	<path id="CF" class="st0" d="M656.5,569.7l2.9-0.3l0.6-0.9l0.6,0.1l0.9,0.8l4.3-1.3l1.5-1.3l1.8-1.2l-0.3-1.2l1-0.3l3.3,0.2
		l3.2-1.6l2.5-3.8l1.8-1.4l2.2-0.6l0.4,1.5l2,2.2v1.4l-0.6,1.4l0.2,1.1l1.2,1l2.6,1.5l1.9,1.4l0,1.1l2.3,1.8l1.4,1.5l0.9,2.1
		l2.6,1.4l0.6,1.1l-1.1,0.4l-2.2-0.1l-2.6-0.4l-1.3,0.3l-0.5,0.8l-1.1,0.1l-1.3-0.7l-3.8,1.7l-1.6-0.3l-0.5,0.3l-1,2.1l-2.6-0.7
		l-2.5-0.3l-2.2-1.3l-2.8-1.2l-1.8,1.1l-1.3,1.7l-0.3,2.4l-2.2-0.2l-2.3-0.6l-2,1.8l-1.8,3.2l-0.4-1l-0.1-1.6l-1.6-1.1l-1.3-1.8
		l-0.3-1.2l-1.6-1.8l0.3-1l-0.3-1.4l0.3-2.7l0.8-0.6L656.5,569.7z"/>
	<path id="CG" class="st0" d="M648.6,611.6l-1.3-1.2l-1,0.6l-1.4,1.5l-2.8-3.6l2.6-1.9l-1.3-2.3l1.2-0.9l2.3-0.4l0.3-1.5l1.8,1.6
		l3.1,0.1l1.1-1.6l0.4-2.3l-0.4-2.7l-1.6-2l1.5-4l-0.9-0.7l-2.6,0.3l-1-1.8l0.3-1.5l4.3,0.1l2.8,0.9l2.7,0.8l0.2-1.8l1.8-3.2l2-1.8
		l2.3,0.6l2.2,0.2l-0.2,2.1l-1,1.8l-0.7,2.1l-0.4,3l0.2,1.9l-0.6,1.2l-0.1,1.2l-0.4,1.1l-2.3,1.6l-1.6,1.8l-1.5,3.3l0.1,2.8
		l-0.9,1.1l-2,1.7l-2,2.2l-1.3-0.6l-0.2-1l-1.9,0l-1.2,1.3L648.6,611.6z"/>
	<path id="CH" class="st0" d="M636.9,409.7l0.1,0.9l-0.5,1.2l1.6,0.9l1.8,0.1l-0.3,2l-1.5,0.8l-2.6-0.6l-0.7,2l-1.6,0.2l-0.6-0.8
		l-1.9,1.7l-1.7,0.2l-1.5-1.1l-1.2-2.2l-1.6,0.8l0-2.3l2.5-2.8l-0.1-1.3l1.6,0.5l0.9-0.9l2.9,0l0.7-1.1L636.9,409.7z"/>
	<path id="CI" class="st0" d="M594,578.1l-1.6,0l-2.4-0.7l-2.2,0l-4.1,0.6l-2.4,1l-3.4,1.2l-0.7-0.1l0.3-2.8l0.3-0.4l-0.1-1.4
		l-1.5-1.4l-1.1-0.2l-1-0.9l0.7-1.5l-0.3-1.7l0.2-1h0.6l0.2-1.5l-0.3-0.7l0.3-0.5l1.3-0.4L576,563l-0.8-1.4l0.3-1.2l0.7-0.3l0.4-0.3
		l1,0.5l2.7,0l0.6-1l0.6,0.1l1-0.4l0.5,1.5l0.8-0.4l1.4-0.5l1.5,0.8l0.6,1.1l1.5,0.7l1.2-0.9l1.6-0.1l2.4,0.9l0.9,4.9l-1.4,2.9
		l-0.9,3.9l1.5,3L594,578.1z"/>
	<path id="CL" class="st0" d="M367.5,808.1v13h3.7l2.1,0.2l-1.1,2.4l-3,1.9l-1.7-0.2l-2-0.5l-2.5-1.8l-3.6-0.9l-4.3-3.3l-3.5-3.2
		l-4.7-6.4l2.8,1.2l4.8,3.8l4.6,2.1l1.8-2.7l1.1-3.9l3.2-2.3L367.5,808.1z M368.9,670.5l1.3,5.1l2.5-0.5l0.4,0.9l-1.2,3.9l-3.7,1.8
		l0.1,6.3l-0.7,1.2l1,1.5l-2.4,2.4l-2.3,3.6l-1.2,3.6l0.3,3.8l-2.1,4.1l1.6,7l0.9,0.7l0,3.8l-2,4.1l0.1,3.5l-2.6,2.8l0,4l1,4.3
		l-2.1,1.6l-0.9,4l-0.8,4.6l0.6,5.6l-1.4,0.9l0.8,5.4l1.6,1.8l-1.1,2l1.6,1l0.4,1.8L357,768l0.4,2.9l-1.2,6.6l-1.8,4.3l0.4,2.6
		l-1.1,3.3L351,790l0.3,5.6l1.2,2l2.3-0.3l-0.1,4.1l1.4,3.2l8.3,0.7l3.2,0.9l-3.1,0l-1.7,1.4l-3.1,2l-0.6,5.4l-1.5,0.1l-3.9-1.9
		l-3.9-4l0,0l-4.3-3.2l-1.1-3.5l1-3.2l-1.7-3.6l-0.4-9l1.5-4.9l3.6-3.9l-5.2-1.5l3.3-4.4l1.2-8.1l3.8,1.7l1.8-9.8l-2.3-1.2l-1.1,5.8
		l-2.2-0.7l1.1-6.7l1.2-8.4l1.6-3.1l-1-4.3l-0.3-4.9l1.4-0.1l2.1-6.9l2.4-6.7l1.5-6.1l-0.8-6l1-3.3l-0.4-4.9l2-4.8l0.6-7.4l1.1-7.8
		l1.1-8.3l-0.3-6l-0.7-5.1l1.8-0.9l0.9-1.8l1.7,2.4l0.5,2.6l1.8,1.5l-1.1,3.5L368.9,670.5z"/>
	<path id="CM" class="st0" d="M648.9,587.4l-0.4-0.2l-2,0.4l-2.1-0.5l-1.6,0.2l-5.6-0.1l0.5-2.7l-1.3-2.3l-1.6-0.6l-0.7-1.5
		l-0.9-0.5l0-0.9l0.9-2.4l1.6-3.3l1,0l2-2l1.3,0l1.9,1.4l2.4-1.2l0.3-1.4l0.8-1.4l0.5-1.7l1.8-1.4l0.7-2.4l0.7-0.8l0.5-1.8l0.9-2.2
		l2.9-2.7l0.2-1.2l0.4-0.6l-1.4-1.4l0.1-1.1l1-0.2l1.4,2.2l0.2,2.3l-0.1,2.3l1.9,3.2l-1.9,0l-1,0.2l-1.6-0.3l-0.7,1.6l2,2l1.5,0.6
		l0.5,1.4l1.1,2.4l-0.5,0.9l-1.7,3.5l-0.8,0.6l-0.3,2.7l0.3,1.4l-0.3,1l1.6,1.8l0.3,1.2l1.3,1.8l1.6,1.1l0.1,1.6l0.4,1l-0.2,1.8
		l-2.7-0.8l-2.8-0.9L648.9,587.4z"/>
	<path id="CN" class="st0" d="M985.4,525l0.8,1.4l-1.5,1.6l-0.8,2.1l-3,1.7l-2.8-1.1l-0.1-3.1l1.7-1.6l3.8-1L985.4,525z
		 M1063.1,406.3l-3,2h-5.2l-1.4-4.9l-4.1-3.7l-6-1.7l-1.3-5.3l-1.2-3.4l-1.3-2.4l-2.1-5.7l-3-2.1l-5.2-1.7l-4.6,0.2l-4.3,1l-2.9,2.8
		l1.9,1.3l0,3.1l-1.9,1.8l-3.1,5.8l0,2.4l-4.9,3.4l-4.1-2l-1.7,4l-2.4,5.2l0.9,2.1l1.9-0.6l3.4,0.8l2.7-1.9l2.8,1.6l3.1,3.6
		l-0.4,1.8l-2.7-0.6l-5,0.7l-2.4,1.4l-2.5,3.3l-5.3,1.9l-3.4,2.6l-3.5-1l-1.9-0.4l-1.8,3.1l1.1,1.8l0.6,1.6l-2.4,1.6l-2.5,2.5
		l-4,1.6l-5.2,0.2l-5.6,1.6l-4,2.5l-1.5-1.4h-4.2l-5.1-2.8l-3.4-0.7l-4.6,0.6l-7.1-1l-3.8,0.1l-2-2.8l-1.6-4.4l-2.1-0.5l-4.2-3
		l-4.6-0.7l-4.1-0.8l-1.2-2.1l1.3-5.8l-2.4-4.1l-4.9-1.9l-2.9-2.7l-0.9-3.7l-1.3,0.4l-2.6,3.5l-2.9,0.5l-0.2,5.1l-1.9,2.3l-6.8-1.7
		l-2.5,8.9l-1.8,1.1l-6.8,1.9l3.1,8.3l-2.4,1.2l0.3,2.7l-0.5,1l-5.4,2.5l-1.2,1.8l-4.4,0.5l-1.3,2.9l-3.7-0.6l-2.4,0.9l-3.3,2.1
		l0.5,1l-1,1l0.9,4.1l1.1-0.4l2.1,1l-0.1,1.7l0.5,2.5l0.6,1.2l2.5,2l1,3.3l5.4,1.6l0.2,0l4.8-1.7l3.5,1.7l-1.1,3.4l-2,2.7l-1.5,0.1
		h-0.1l-0.2,2.1l1.4,2.1l-0.1,2.1L874,477l1,4.5l3.4,2.5l4.8,2.8l1.4-0.9l2.8,1.2l3.5,2.6l1.9,0.6l1.2,1.9l2.7,0.8l2.8,1.7l3.9,0.9
		l4,0.4l2.1-0.8l0.3,3.1l2.3-2.9l1.8-1l2.5,0.9l1.8,0.1l1.5,1l2.8-0.5l3.1-2.9l4-2.5l2.9,1l2.5-1.7l1.6,2.4l-1.2,1.6l3.7,0.6l2-0.3
		l1.2,2.3l1.5,0.9l0.1,3l-0.1,3.2l-3.3,3.2l-0.4,4.5l3.6-0.6l0.8,3.4l2.2,0.7l-1,3.1l2.6,1.4l1.5,0.7l2.5-1.1l0.1,1.5l0.3,0.9
		l1.8,0.1l-0.5-4.2l1.8-0.5l1.8-0.9l2.8,0l3.4-0.4l2.9-2l1.7,1.4l3.1,0.7l-0.5,2.1l1.6,1.5l3.5,1l1.6-0.6l4.6,1.2l-0.8,1.4l0.9,2.7
		l1.9-0.2l1.2-3.9l3.7-0.6l4.8-1.8l1.9-1.8l1.2,1.2l2.1-1.6l3.9-0.4l4.8-3.1l4.7-3.5l3.2-4.5l2.8-5l2.5-4.2l1.9-0.3l0.9-3.1l0.5-3.2
		l-2-1.2l-0.8-2.1l2.2-1.1l0.1-3l-2.3-3.1l-2.1-3.7l-1.3-4.1l-3.7-2.3l1.8-2.9l3.4-2.1l1.6-2.3l4.9-1.2l-0.6-2.3l-2.2-0.1l-3.1-1.7
		l-3.9,3.1l-2.7-1.2l-0.1-1.9l-2.8-0.7l-1.8-3l1.8-2.1l3.4-0.2l2.1-2.9l3.9-3.1l3-1.6l1.8,2.4l-2.7,3l0.7,1.7l-1.8,2l3.7-1.2
		l2.5-2.1l4.8-1.3l2.8-2.9l3.8-2.4l2.4-3.2l1.6,1.4l3,0.2l-0.5-2.4l5.3-2l1.4-2.6l2.2,2.8l0-2.4l1.8-0.1l0.5-5.6l-0.9-4.1l3-1.7
		l4.2,0.9l2.3-4.8l1.2-5.5l1.3-1.8l1.8-4.6L1063.1,406.3z"/>
	<path id="CO" class="st0" d="M344.3,595.7l-1.5-0.8l-1.7-1.1l-1,0.5l-2.9-0.5l-0.8-1.5l-0.6,0.1l-3.5-1.9l-0.5-1.1l1.3-0.3
		l-0.1-1.7l0.8-1.2l1.7-0.2l1.5-2.1l1.3-1.8l-1.3-0.8l0.6-2l-0.8-3.1l0.7-0.9l-0.5-2.9l-1.4-1.8l0.4-1.7l1.1,0.2l0.6-1l-0.8-2
		l0.4-0.5l1.8,0.1l2.6-2.4l1.4-0.4l0-1.1l0.6-2.9l2-1.6l2.2-0.1l0.3-0.7l2.7,0.3l2.7-1.8l1.3-0.8l1.7-1.7l1.2,0.2l0.9,0.9l-0.7,1.2
		l-2.2,0.6l-0.9,1.7l-1.3,1l-1,1.3l-0.4,2.5l-0.9,2l1.8,0.2l0.4,1.6l0.8,0.8l0.3,1.4l-0.4,1.3l0.1,0.7l0.8,0.3l0.8,1.2l4.4-0.3
		l2,0.4l2.4,3l1.4-0.4l2.5,0.2l2-0.4l1.2,0.6l-0.6,1.8l-0.8,1.2l-0.3,2.5l0.7,2.3l1,1l0.1,0.8l-1.7,1.7l1.2,0.7l0.9,1.2l1,3.4
		l-0.6,0.4l-0.7-2l-1-1.1l-1.1,1.2l-6.7-0.1l0,2.1l2,0.4l-0.1,1.3l-0.7-0.4l-1.9,0.6l0,2.5l1.5,1.2l0.5,1.9l-0.1,1.5l-1.5,9.4
		l-1.7-1.8l-1-0.1l2.2-3.5l-2.6-1.6l-2.1,0.3l-1.2-0.6l-1.9,0.9l-2.6-0.4l-2-3.6l-1.6-0.9l-1.1-1.6l-2.3-1.6L344.3,595.7z"/>
	<path id="CR" class="st0" d="M318.1,567l-1.9-0.8l-0.7-0.7l0.4-0.6l-0.1-0.8l-1-0.8l-1.3-0.7l-1.2-0.4l-0.2-1l-0.9-0.6l0.2,1
		l-0.7,0.8l-0.8-1l-1.1-0.3l-0.5-0.7l0-1.1l0.5-1.1l-1-0.5l0.8-0.7l0.5-0.5l2.3,0.9l0.8-0.5l1.1,0.3l0.6,0.7l1,0.2l0.8-0.7l0.9,1.9
		l1.3,1.4l1.6,1.5l-1.3,0.3l0,1.4l0.7,0.5l-0.5,0.4l0.1,0.6l-0.3,0.7L318.1,567z"/>
	<path id="CU" class="st0" d="M320.5,513.6l3,0.3l2.7,0l3.2,1.3l1.4,1.4l3.2-0.4l1.2,0.9l2.9,2.3l2.1,1.7l1.1,0l2.1,0.7l-0.3,1
		l2.5,0.1l2.6,1.5l-0.4,0.8l-2.3,0.5l-2.3,0.2l-2.4-0.3l-4.9,0.4l2.3-2l-1.4-0.9l-2.2-0.2l-1.2-1.1l-0.8-2.1l-1.9,0.1l-3.2-1l-1-0.8
		l-4.5-0.6l-1.2-0.7l1.3-0.9l-3.4-0.2l-2.5,1.9l-1.4,0l-0.5,0.9l-1.7,0.4l-1.5-0.4l1.8-1.1l0.7-1.3l1.6-0.8l1.8-0.7l2.6-0.4
		L320.5,513.6z"/>
	<path id="CY" class="st0" d="M720.6,466.1l2.3-1.8l-3.1,1.2l-2.5-0.1l-0.5,1l-0.2,0l-1.6,0.1l0.8,1.7l1.7,0.5l3.5-1.7l-0.1-0.3
		L720.6,466.1z"/>
	<path id="CZ" class="st0" d="M662.3,404.2l-1.6-1l-1.6,0.3l-2.7-1.6l-1.2,0.4l-1.9,2.1l-2.6-1.7l-1.9-2.2l-1.8-1.3l-0.4-2.2
		l-0.6-1.6l2.5-1.2l1.3-1.3l2.5-1.1l0.9-1l0.9,0.6l1.5-0.6l1.6,1.8l2.6,0.5l-0.2,1.5l1.9,1.1l0.5-1.4l2.4,0.6l0.3,1.7l2.6,0.3
		l1.6,2.6l-1,0l-0.5,0.9l-0.8,0.2l-0.2,1.2l-0.7,0.3l-0.1,0.5l-1.2,0.5l-1.5-0.1L662.3,404.2z"/>
	<path id="DE" class="st0" d="M638,368.6l0.1,2.3l3.5,1.4l0,2.1l3.5-1.1l1.9-1.6l3.9,2.3l1.6,1.8l0.8,2.9l-1,1.5l1.2,2l0.9,3
		l-0.3,1.9l1.4,3.5l-1.5,0.6l-0.9-0.6l-0.9,1l-2.5,1.1l-1.3,1.3l-2.5,1.2l0.6,1.6l0.4,2.2l1.8,1.3l1.9,2.2l-1.2,2.4l-1.2,0.7
		l0.5,3.3l-0.3,0.9l-1.1-1l-1.6-0.1l-2.5,0.9l-3-0.2l-0.5,1.3l-1.7-1.4l-1,0.3l-3.7-1.5l-0.7,1.1l-2.9,0l0.4-3.7l1.7-3.6l-5-1
		l-1.6-1.4l0.2-2.3l-0.7-1.2l0.4-3.7l-0.6-5.8h2.1l0.9-2.1l0.9-5.2l-0.6-1.9l0.7-1.2l2.9-0.3l0.6,1.3l2.3-2.9l-0.8-2.2l-0.2-3.4
		l2.6,0.8L638,368.6z"/>
	<path id="DJ" class="st0" d="M752.2,551.4l0.8,1.1l-0.1,1.5l-2,0.8l1.5,0.9l-1.3,1.9l-0.8-0.6l-0.8,0.2l-1.9-0.1l-0.1-1.1l-0.3-1
		l1.2-1.6l1.2-1.5l1.5,0.3L752.2,551.4z"/>
	<path id="DK" class="st0" d="M647.5,364.8l-2.1,4.9l-3.6-3.4l-0.5-2.5l5-2L647.5,364.8z M641.4,359.6l-0.8,2.3l-1-0.7l-2.5,4.4
		l0.9,2.9l-2.2,0.9l-2.6-0.8l-1.4-3.3l-0.1-6.3l0.6-1.7l1-1.9l3-0.4l1.2-1.8l2.8-1.8l-0.1,3.3l-1,2.1l0.4,1.8L641.4,359.6z"/>
	<path id="DO" class="st0" d="M356.9,526.4l0.4-0.6l2.7,0l2,0.9l0.9-0.1l0.6,1.3l1.9-0.1l-0.1,1.1l1.5,0.1l1.7,1.3l-1.3,1.5
		l-1.6-0.8l-1.6,0.1l-1.1-0.2l-0.6,0.7l-1.3,0.2l-0.5-0.9l-1.1,0.5l-1.4,2.5l-0.9-0.6l-0.2-1l0.1-1l-0.9-1.1l0.8-0.6l0.3-1.4
		L356.9,526.4z"/>
	<path id="DZ" class="st0" d="M645.2,512.5l-11.8,7.1l-10,7.2l-4.9,1.6l-3.8,0.4l0-2.3l-1.6-0.6l-2.1-1l-0.8-1.7l-11.6-8l-11.6-8.2
		l-13-9.2l0.1-0.7v-0.3l0-4.6l5.6-2.9l3.4-0.6l2.8-1.1l1.3-2l4-1.6l0.1-3l2-0.4l1.6-1.5l4.5-0.7l0.6-1.6l-0.9-0.9l-1.2-4.3l-0.2-2.5
		l-1.3-2.7l3.3-2.3l3.7-0.7l2.2-1.8l3.3-1.3l5.8-0.8l5.7-0.4l1.7,0.6l3.2-1.7l3.7,0l1.4,1l2.3-0.3l-0.7,2.2l0.6,4l-0.8,3.5l-2.1,2.3
		l0.3,3.1l2.8,2.4l0,1l2.1,1.6l1.5,7.2l1.1,3.5l0.2,1.8l-0.6,3.2l0.2,1.8l-0.4,2.1l0.3,2.4l-1.4,1.6l2,2.8l0.1,1.6l1.2,2.1l1.6-0.7
		l2.7,1.7L645.2,512.5z"/>
	<path id="EC" class="st0" d="M327.3,606.8l1.8-2.6l-0.7-1.5l-1.3,1.6l-2.1-1.5l0.7-1l-0.6-3.1l1.2-0.5l0.6-2.1l1.3-2.2l-0.2-1.4
		l1.9-0.7l2.4-1.4l3.5,1.9l0.6-0.1l0.8,1.5l2.9,0.5l1-0.5l1.7,1.1l1.5,0.8l0.5,2.6l-1.1,2.2l-3.8,3.6l-4.1,1.3l-2.1,3l-0.6,2.3
		l-1.9,1.4l-1.4-1.7l-1.4-0.4l-1.4,0.3l-0.1-1.2l1-0.8L327.3,606.8z"/>
	<path id="EE" class="st0" d="M687.6,351.2l0.4-3.8l-1.3,0.8l-2.2-2.3l-0.3-3.8l4.4-1.9l4.3-1l3.7,1.1l3.6-0.2l0.5,1.2l-2.4,3.9
		l1,6.1l-1.5,2l-2.9,0l-3-2.4l-1.5-0.8L687.6,351.2z"/>
	<path id="EG" class="st0" d="M724.1,489.4l-1,1.6l-0.7,3l-0.9,2l-0.8,0.7l-1.1-1.2l-1.6-1.7l-2.5-5.6l-0.3,0.4l1.4,4.1l2.1,3.9
		l2.6,6l1.3,2.1l1.1,2.1l3.1,4.2l-0.7,0.6l0.1,2.4l4,3.3l0.6,0.8h-13.7h-13.4h-13.8v-13.8v-13.7l-1-3.2l0.9-2.5l-0.5-1.7l1.2-1.9
		l4.6-0.1l3.3,1.1l3.4,1.2l1.6,0.6l2.7-1.3l1.4-1.1l3.1-0.3l2.4,0.5l0.9,2l0.8-1.3l2.8,0.9l2.7,0.2l1.7-1L724.1,489.4z"/>
	<path id="ER" class="st0" d="M749.7,551.9l-1.2-1.1l-1.4-2l-1.5-1.1l-0.9-1.2l-3-1.4l-2.4,0l-0.8-0.7l-2,0.8l-2.1-1.6l-1.1,2.6
		l-4-0.7l-0.4-1.4l1.5-5.2l0.3-2.4l1.1-1.1l2.5-0.6l1.7-2l2,4.2l0.9,3.3l1.9,1.7l4.7,3.3l1.9,2l1.9,2l1.1,1.2l1.7,1.1l-1,0.9
		L749.7,551.9z"/>
	<path id="ES" class="st0" d="M572.7,437l0.2-3.3l-1.4-2l4.9-3.4l4.2,0.9l4.6,0l3.7,0.8l2.9-0.2l5.6,0.1l1.4,1.8l6.3,2.1l1.2-1
		l3.9,2.1l4-0.6l0.2,2.7L611,440l-4.4,1l-0.3,1.5l-2.1,2.5l-1.3,3.6l1.3,2.5l-2,2l-0.7,2.8l-2.6,0.9l-2.4,3.3l-4.4,0.1l-3.3-0.1
		l-2.1,1.5l-1.3,1.6l-1.7-0.4l-1.3-1.4l-1-2.5l-3.2-0.7l-0.3-1.4l1.3-1.6l0.5-1.2l-1.2-1.3l0.9-2.9l-1.4-2.7l1.5-0.4l0.1-2.1
		l0.6-0.6l0-3.5l1.6-1.2l-1-2.3l-2-0.2l-0.6,0.6l-2,0l-0.9-2.3l-1.4,0.7L572.7,437z"/>
	<path id="ET" class="st0" d="M734.4,543.4l2.1,1.6l2-0.8l0.8,0.7l2.4,0l3,1.4l0.9,1.2l1.5,1.1l1.4,2l1.2,1.1l-1.2,1.5l-1.2,1.6
		l0.3,1l0.1,1.1l1.9,0.1l0.8-0.2l0.8,0.6l-0.7,1.2l1.3,1.9l1.3,1.7l1.3,1.2l11.3,4.1l2.9,0l-9.7,10.3l-4.5,0.1l-3.1,2.4l-2.2,0.1
		l-0.9,1.1h-2.4l-1.4-1.2l-3.1,1.4l-1,1.4l-2.3-0.3l-0.8-0.4l-0.8,0.1l-1.1,0l-4.4-2.9h-2.4l-1.2-1.1v-1.9l-1.8-0.6l-2-3.7l-1.6-0.8
		l-0.6-1.4l-1.7-1.7l-2.1-0.2l1.2-2l1.8-0.1l0.5-1.1l0-3.1l1-3.6l1.6-1l0.4-1.4l1.5-2.7l2.1-1.7l1.4-3.5l0.6-3l4,0.7L734.4,543.4z"
		/>
	<path id="FK" class="st0" d="M393.1,803.7l4.1-3.3l2.9,1.4l2.1-2.2l2.8,2.5l-1,1.9l-4.7,1.7l-1.5-1.9l-2.9,2.5L393.1,803.7z"/>
	<path id="FI" class="st0" d="M702.3,263.2l-0.5,6.6l5.3,6.1l-3.2,6.7l4,9.8l-2.3,7.1l3.1,6l-1.4,5.1l5.1,5.2l-1.3,3.8l-3.2,4.2
		l-7.4,9.1l-6.2,0.6l-6.1,2.5l-5.6,1.4l-2-3.8l-3.3-2.3l0.8-7l-1.7-6.6l1.6-4.4l3.1-4.8l7.9-8.6l2.3-1.7l-0.4-3.5l-4.8-4l-1.2-3.3
		l-0.1-13.7l-5.4-6.3l-4.6-4.7l2.1-2.6l3.8,5.1l4.5-0.5l3.7,2.3l3.3-4.2l1.7-7.2l5.3-3.4l4.4,4L702.3,263.2z"/>
	<path id="FJ" class="st0" d="M1224.4,650.7l-0.4,1.7l-0.3,0.2l-2.2,0.9l-2.2,0.7l-0.4-1.3l1.7-0.7l1.1-0.2l2-1.1L1224.4,650.7z
		 M1217.3,656l-1.6-0.4l-1.3,1.2l0.3,1.6l1.9,0.4l2.1-0.5l0.6-1.9l-1.2-1L1217.3,656z"/>
	<path id="FR" class="st0" d="M636.8,435.7l-1.1,3.6l-1.6-0.9l-0.8-3.1l0.7-1.7l2.2-1.8L636.8,435.7z M616.2,394.8l2.4,2.5l1.8-0.4
		l3,2.4l0.8,0.5l1-0.1l1.6,1.4l5,1l-1.7,3.6l-0.4,3.7l-0.9,0.9l-1.6-0.5l0.1,1.3l-2.5,2.8l0,2.3l1.6-0.8l1.2,2.2l-0.1,1.4l1,1.8
		l-1.2,1.5l0.9,3.7l1.9,0.6l-0.4,2.1l-3.1,2.7l-6.8-1.3l-5,1.5l-0.4,2.8l-4,0.6l-3.9-2.1l-1.2,1l-6.3-2.1l-1.4-1.8l1.8-2.9l0.6-9.7
		l-3.6-5.2l-2.5-2.6l-5.3-2l-0.3-3.8l4.5-1.1l5.8,1.3l-1.1-5.9l3.3,2.3l8-4.1l1-4.4l3-1.1l0.5,1.9l1.6,0.1L616.2,394.8z"/>
	<path id="GA" class="st0" d="M642.1,608.8l-3.5-3.5l-2.3-2.8l-2.1-3.5l0.1-1.1l0.7-1.1l0.8-2.5l0.7-2.5l1.2-0.2l5,0l0-4.1l1.6-0.2
		l2.1,0.5l2-0.4l0.4,0.2l-0.3,1.5l1,1.8l2.6-0.3l0.9,0.7l-1.5,4l1.6,2l0.4,2.7l-0.4,2.3l-1.1,1.6l-3.1-0.1l-1.8-1.6l-0.3,1.5
		l-2.3,0.4l-1.2,0.9l1.3,2.3L642.1,608.8z"/>
	<path id="GB" class="st0" d="M584.3,371.2l-1.8,4l-2.6-1.2l-2.1,0.1l0.7-3.2l-0.7-3.2l2.9-0.2L584.3,371.2z M593.5,345.7l-3.7,7
		l3.5-0.9l3.8,0l-0.9,5.2l-3.1,5.6l3.6,0.4l0.3,0.6l3.1,7.1l2.4,0.9l2.1,6.6l1,2.3l4.2,1.1l-0.4,3.6l-1.8,1.6l1.4,2.9l-3.1,2.9
		l-4.6,0l-5.9,1.5l-1.6-1.1l-2.3,2.5l-3.2-0.6l-2.4,2l-1.8-1.1l5-5.7l3.1-1.2h0l-5.4-0.9l-1-2.2l3.6-1.7l-1.9-3.1l0.6-3.8l5.1,0.5
		l0,0l0.5-3.4l-2.3-3.6l0-0.1l-4.2-1l-0.8-1.6l1.2-2.7l-1.1-1.7l-1.8,2.9l-0.2-5.9l-1.7-3.2l1.2-6.6l2.7-5.3l2.8,0.5L593.5,345.7z"
		/>
	<path id="GE" class="st0" d="M746.9,438.6l0.5-2l-0.9-3.2l-2-1.7l-1.9-0.5l-1.3-1.4l0.4-0.6l2.9,0.8l5.1,0.8l4.7,2.2l0.6,0.9
		l2.1-0.7l3.2,1l1,1.9l2.2,1.1l-0.9,0.6l1.7,2.5l-0.5,0.5l-1.8-0.3l-2.6-1.3l-0.8,0.7l-4.8,0.7l-3.3-2.2L746.9,438.6z"/>
	<path id="GF" class="st0" d="M422.8,586.6l-1.3,1.3l-1.6,0.2l-0.5-1l-0.8-0.1l-1.1,0.9l-1.5-0.7l0.9-1.5l0.3-1.6l0.6-1.5l-1.3-2
		l-0.3-2.3l1.8-3l1.2,0.4l2.5,0.8l3.7,2.9l0.6,1.4l-2,3.1L422.8,586.6z"/>
	<path id="GH" class="st0" d="M607.5,574.9l-5.4,2l-1.9,1.2l-3.1,1l-3.1-1l0.2-1.4l-1.5-3l0.9-3.9l1.4-2.9l-0.9-4.9l-0.5-2.6l0.1-2
		l6-0.2l1.5,0.3l1.1-0.6l1.6,0.3l-0.3,1.1l1.4,1.8v2.5l0.3,2.7l0.9,1.3l-0.8,3.1l0.3,1.7l0.9,2.2L607.5,574.9z"/>
	<path id="GL" class="st0" d="M442.8,55.4l11.6-16.7l12.1,1.3l4.4-11l12.2-3l27.5,3.9l21.5,22.8L525.7,63l-13.2,1.1L494,66.6
		l1.7,4.5l12.2-2.8l10.4,8.5l6.7-7.5l2.9,8.8l-3.8,13.5l8.8-8.5l16.7-9.3l10.3,4.7l1.9,10l-14,15.5l-1.9,4.8l-11,3.5l8,1l-4,14.1
		l-2.8,11.8l0.1,18.7l4.1,10.2l-5.4,0.6l-5.7,4.8l6.3,7.7l0.8,11.8l-3.7,1.2l4.5,11.2l-7.6,0.9l4,5.1l-1.1,4.3l-4.9,1.8l-4.8,0
		l4.3,8l0,5.1l-6.8-4.7l-1.8,3.1l4.6,2.8l4.5,6.7l1.3,8.5l-6.1,2l-2.7-4l-4.3-6.1l1.2,7.2l-4,5.4l9.1,0.4l4.8,0.6l-9.2,8.6l-9.4,7.5
		l-10.1,3.2l-3.8,0l-3.6,3.5l-4.8,9.4l-7.4,6l-2.4,0.4l-4.6,2l-4.9,1.9l-3,5.1l0,5.6l-1.7,5.1l-5.6,6.1l1.4,5.8l-1.5,6l-1.8,6.8
		l-4.9,0.4l-5.1-5.7l-6.9,0l-3.3-3.9l-2.3-7.1l-6-9.4l-1.7-5.1l-0.5-7.2L419,290l1.2-6.3l-2.3-3.1l3.4-10.6l5.2-3.5l1.4-4l0.7-7.7
		l-3.9,3.5l-1.9,1.5l-3.1,1.4l-4.2-3.2l-0.2-6.8l1.3-5.5l3.2-0.1l7,2.8l-5.9-6.7l-3.1-3.7l-3.4,1.5l-2.9-2.7l3.8-10.4l-2.1-4.3
		l-2.7-8.3l-4.1-13.4l-4.4-5.1l0-5.7l-9.2-8.2l-7.3-1l-9.2,0.6l-8.4,1.1l-4-4.6l-6-9.4l9-4.9l6.9-0.8l-14.7-4.1l-7.8-6.7l0.5-6.6
		l13-8.4l12.6-8.8l1.3-6.9l-9.3-7.1l3-8.2l11.9-15.1l5-2.4l-1.4-10.5l8.2-6.4l10.6-3.9l10.6-0.2l3.8,7.7l9.1-13.9l8.2,9.6l4.8,1.9
		l7.2,7.9l-8.2-13.2L442.8,55.4z"/>
	<path id="GM" class="st0" d="M545.8,549.8l0.4-1.6l3.7-0.1l0.8-0.8l1.1-0.1l1.3,0.9l1.1,0l1.1-0.6l0.7,1l-1.5,0.8l-1.5-0.1
		l-1.5-0.7l-1.3,0.8l-0.6,0l-0.8,0.5L545.8,549.8z"/>
	<path id="GN" class="st0" d="M574.8,568.8l-1-0.1l-0.7,1.4l-1,0l-0.7-0.7l0.2-1.4l-1.4-2.1l-0.9,0.4l-0.7,0.1l-0.9,0.2l0-1.3
		l-0.6-0.9l0.1-1l-0.7-1.5l-1-1.2h-2.8l-0.8,0.6l-1,0.1l-0.6,0.7l-0.4,1l-1.8,1.5l-1.5-2l-1.3-1.4l-0.9-0.4l-0.9-0.7l-0.4-1.5
		l-0.5-0.8l-1-0.6l1.5-1.7l1,0.1l0.9-0.6h0.8l0.5-0.5l-0.3-1.2l0.4-0.4l0.1-1.2l1.7,0l2.5,0.9l0.8-0.1l0.3-0.4l1.9,0.3l0.5-0.2
		l0.2,1.3l0.6,0l0.9-0.5l0.6,0.1l1,0.9l1.5,0.3l0.9-0.8l1.1-0.5l0.8-0.5l0.7,0.1l0.8,0.8l0.4,1l1.4,1.5l-0.7,0.9l-0.1,1.1l0.7-0.3
		l0.4,0.4l-0.2,1l1.1,1l-0.7,0.3l-0.3,1.2l0.8,1.4l0.8,2.8l-1.3,0.4l-0.3,0.5l0.3,0.7l-0.2,1.5L574.8,568.8L574.8,568.8z"/>
	<path id="GQ" class="st0" d="M636.5,591.7l-0.6-0.5l1.2-3.8l5.6,0.1l0,4.1l-5,0L636.5,591.7z"/>
	<path id="GR" class="st0" d="M685.5,464.2l1.9,1.4l2.7-0.2l2.6,0.3l-0.1,0.7l1.9-0.5l-0.4,1.2l-5,0.4l0-0.7l-4.2-0.8L685.5,464.2z
		 M695.5,438.4l-1.1,2.9l-0.8,0.5l-2.1-0.1l-1.8-0.4l-4.2,1.2l2.4,2.5l-1.7,0.7h-1.9l-1.8-2.3l-0.6,1l0.8,2.7l1.7,2.1l-1.3,1l1.9,2
		l1.7,1.3l0,2.5l-1.7-1.4l-1.5,0.3l1,2.2l-1.1,0.2l-1.2-0.8l1.5,4.9h-0.7l-0.6-1.5l-0.7,0l-0.3,1.6l-0.6-0.4l0.1-0.9l-0.7-1.3h-0.8
		l0.1,1l-0.3,0.3l-0.8-0.7l-0.5-1.3l0.6-0.7l-0.4-0.9l-0.5-0.5l-0.5-0.1l-0.6-1.2l0.7-0.6l0.4-0.6l0.7,0.1l0.3-0.5l0.7-0.2l0.8,0.6
		l0.7,0.2l0.5-0.8l-1.2-0.1l-0.7-0.2l-1.5,0.3l-1.5,0.1l-1.3-2l-0.2-0.3l0.2-0.8l-1.7-1.4l-0.2-1.3l1.6-2.2l0.2-1.5l1.1-0.6l0.1-1.2
		l2.2-0.4l1.3-1l1.9,0.1l0.6-0.8l0.6-0.1l2.5,0.1l2.8-1.2l2.4,1.6l3.1-0.4l0-2.3L695.5,438.4z"/>
	<path id="GT" class="st0" d="M293.6,547.7l-1.8-0.6l-2.1-0.1l-1.6-0.7l-1.8-1.4l0.1-1l0.4-0.8l-0.5-0.7l1.7-2.9l4.4,0l0.1-1.2
		l-0.6-0.2l-0.4-0.8l-1.3-0.8l-1.3-1.2h1.6v-2h3.2l3.2,0l0,2.8l-0.3,4h1l1.1,0.6l0.3-0.5l1,0.5l-1.6,1.4l-1.6,1l-0.2,0.7l0.3,0.7
		l-0.7,0.9l-0.8,0.2l0.2,0.4l-0.6,0.4l-1.2,0.9L293.6,547.7z"/>
	<path id="GW" class="st0" d="M551.7,557.2l-1.8-1.5l-1.4-0.2l-0.8-1l0-0.5l-1-0.7l-0.2-0.7l1.8-0.6l1.1,0.1l0.9-0.4l6.4,0.1
		l-0.1,1.2l-0.4,0.4l0.3,1.2l-0.5,0.5h-0.8l-0.9,0.6l-1-0.1L551.7,557.2z"/>
	<path id="GY" class="st0" d="M398.1,566.5l2.3,1.3l2.1,2.2l0.1,1.8l1.3,0.1l1.8,1.7l1.4,1.2l-0.6,3.1l-2.1,0.9l0.2,0.8l-0.6,1.8
		l1.5,2.5l1.1,0l0.5,1.9l2.1,3l-0.8,0.1l-1.9-0.3l-1.1,0.9l-1.6,0.6l-1.1,0.1l-0.4,0.7l-1.7-0.2l-2.1-1.6l-0.2-1.6l-0.9-1.7l0.6-2.9
		l1-1.2L398,580l-1.2-0.5l0.5-1.5l-0.8-0.8l-1.8,0.1l-2.3-2.6l0.9-0.9l-0.1-1.6l2.1-0.6l0.8-0.6l-1.2-1.3l0.3-1.3L398.1,566.5z"/>
	<path id="HN" class="st0" d="M303.1,550.4l-0.6-1.1l-1.1-0.3l0.2-1.4l-0.5-0.4l-0.7-0.2l-1.5,0.4l-0.1-0.5l-1-0.6l-0.7-0.7l-1-0.3
		l0.7-0.9l-0.3-0.7l0.2-0.7l1.6-1l1.6-1.4l0.4,0.1l0.8-0.6l1,0l0.3,0.3l0.5-0.2l1.6,0.3l1.6-0.1l1.1-0.4l0.4-0.4l1.1,0.2l0.8,0.2
		l0.9-0.1l0.7-0.3l1.6,0.5l0.6,0.1l1,0.7l1,0.8l1.2,0.5l0.9,1l-1.2-0.1l-0.5,0.5l-1.2,0.5h-0.9l-0.8,0.5l-0.7-0.2l-0.6-0.5l-0.4,0.1
		l-0.4,0.8l-0.3,0l-0.1,0.7l-1.2,1l-0.6,0.4l-0.4,0.4l-1-0.7l-0.7,0.9l-0.7,0l-0.8,0.1l0.1,1.7l-0.5,0l-0.4,0.8L303.1,550.4z"/>
	<path id="HR" class="st0" d="M668.7,417.8l0.8,1.9l1.1,1.4l-1.3,1.8l-1.6-1.1l-2.4,0.1l-3-0.8l-1.6,0.1l-0.7,1l-1.2-1.1l-0.7,2
		l1.7,2.2l0.7,1.5l1.6,1.8l1.3,1l1.3,2l3.1,1.8l-0.4,0.8l-3.2-1.7l-2-1.7l-3.1-1.4l-2.9-3.5l0.7-0.4l-1.6-2l-0.1-1.6l-2.2-0.8
		l-1.1,2.1l-1-1.6l0.1-1.7l0.1-0.1l2.4,0.2l0.6-0.8l1.2,0.8l1.3,0.1l0-1.4l1.2-0.5l0.3-2l2.7-1.3l1.1,0.6l2.6,2.1l2.8,0.9
		L668.7,417.8z"/>
	<path id="HT" class="st0" d="M351.8,525.6l2.1,0.2l3,0.6l0.3,2l-0.3,1.4l-0.8,0.6l0.9,1.1l-0.1,1l-2.3-0.6l-1.6,0.2l-2.1-0.3
		l-1.6,0.7l-1.8-1.1l0.3-1.2l3.2,0.5l2.6,0.3l1.2-0.8l-1.6-1.6l0-1.4l-2.2-0.6L351.8,525.6z"/>
	<path id="HU" class="st0" d="M659.6,413.1l1.1-3.3l-0.7-1.1l1.9,0l0.3-2.1l1.8,1.3l1.3,0.6l2.9-0.6l0.3-1l1.4-0.2l1.7-0.8l0.4,0.3
		l1.6-0.6l0.8-1.2l1.1-0.3l3.7,1.6l0.7-0.5l1.9,1.4l0.2,1.4l-2.1,1.1l-1.6,3.4l-2.1,3.4l-2.8,0.9l-2.1-0.2l-2.6,1.3l-1.3,0.7
		l-2.8-0.9l-2.6-2.1l-1.1-0.6l-0.7-1.7L659.6,413.1z"/>
	<path id="ID" class="st0" d="M1019.6,630.4l-1.4,0.1l-4.6-2.4l3.2-0.7l1.8,1.1l1.2,1.1L1019.6,630.4z M1032.4,630.1l-3,0.8
		l-0.4-0.4l0.3-1.2l1.5-2.1l3.4-1.4l0.3,0.7l0.1,1.1L1032.4,630.1z M1009.9,623l1.2,0.9l2.1-0.3l0.9,1.5l-4,0.7l-2.4,0.5l-1.8,0
		l1.2-2l1.9,0L1009.9,623z M1027.1,623l-0.5,1.9l-5.2,1l-4.6-0.4l0-1.3l2.7-0.7l2.2,1l2.3-0.3L1027.1,623z M977.9,618.4l6.6,0.3
		l0.8-1.4l6.4,1.7l1.2,2.2l5.2,0.6l4.2,2l-3.9,1.3l-3.8-1.4l-3.1,0.1l-3.6-0.3l-3.2-0.6l-4-1.3l-2.5-0.3l-1.4,0.4l-6.3-1.4l-0.6-1.5
		l-3.2-0.3l2.4-3.3l4.2,0.2l2.8,1.3l1.4,0.3L977.9,618.4z M1067.8,616.5l-1.8,2.3l-0.3-2.6l0.6-1.2l0.7-1.2l0.8,1L1067.8,616.5z
		 M1042.1,607l-1.3,1.1l-2.4-0.6l-0.7-1.5l3.5-0.2L1042.1,607z M1053.2,605.8l1.2,2.6l-2.9-1.4l-2.9-0.3l-1.9,0.2l-2.4-0.1l0.8-1.9
		l4.3-0.1L1053.2,605.8z M1065.8,599.1l1,5.5l3.6,2l2.9-3.6l4-2.1h3.1l3,1.2l2.6,1.2l3.7,0.6l0.1,11.2l0.1,11.2l-3.1-2.8l-3.5-0.7
		l-0.8,1l-4.4,0.1l1.5-2.8l2.2-1l-0.9-3.7l-1.7-2.9l-6.7-2.9l-2.8-0.3l-5.2-3.2l-1,1.7l-1.3,0.3l-0.8-1.2l0-1.5l-2.6-1.7l3.7-1.2
		l2.5,0.1l-0.3-0.9l-5,0l-1.4-2l-3.1-0.6l-1.5-1.7l4.6-0.8l1.8-1.1l5.5,1.4L1065.8,599.1z M1035.1,590.3l-2.8,3.4l-2.6,0.7l-3.3-0.7
		l-5.7,0.2l-3,0.5l-0.5,2.6l3.1,3.1l1.8-1.5l6.4-1.2l-0.3,1.6l-1.5-0.5l-1.5,2l-3,1.3l3.3,4.4l-0.6,1.2l3.1,4l0,2.3l-1.8,1l-1.3-1.2
		l1.7-2.8l-3.4,1.3l-0.9-0.9l0.4-1.3l-2.5-2l0.3-3.3l-2.3,1l0.3,4l0.1,4.9l-2.2,0.5l-1.5-1l1-3.2l-0.5-3.3l-1.4,0l-1.1-2.3l1.4-2.2
		l0.5-2.7l1.7-5.2l0.7-1.4l2.9-2.5l2.7,1l4.3,0.5l4-0.1l3.4-2.5L1035.1,590.3z M1047,591.3l-0.2,3l-1.8-0.3l-0.5,2.1l1.4,1.8l-1,0.4
		l-1.4-2.2l-1-4.4l0.7-2.7l1.1-1.2l0.2,1.9l2,0.3L1047,591.3z M1009.8,588.9l3.9,3.2l-4.1,0.4l-1.2,2.3l0.1,3.1l-3.3,2.3l-0.1,3.4
		l-1.3,5.2l-0.5-1.2l-3.9,1.5l-1.4-2.1l-2.5-0.2l-1.7-1.1l-4.1,1.2l-1.2-1.7l-2.3,0.2l-2.8-0.4l-0.5-4.6l-1.7-0.9l-1.7-2.9l-0.5-3
		l0.4-3.2l2-2.3l0.6,2.3l2.4,1.9l2.2-0.7l2.2,0.2l2-1.7l1.6-0.3l3.3,1l2.8-0.7l1.8-4.8l1.3-1.2l1.2-3.9h4l3,0.6l-1.9,3.1l2.5,3.2
		L1009.8,588.9z M968.3,615.2l-3.8,0.1l-2.9-2.9l-4.4-2.8l-1.5-2.1l-2.6-2.8l-1.7-2.6l-2.6-4.8l-3-2.9l-1-2.9l-1.3-2.7l-3.1-2.1
		l-1.8-2.9l-2.6-1.9l-3.6-3.8l-0.3-1.7l2.2,0.1l5.3,0.7l3.1,3.4l2.7,2.3l1.9,1.4l3.3,3.7l3.5,0l2.9,2.3l2,2.9l2.6,1.6l-1.4,2.8
		l2,1.2l1.2,0.1l0.6,2.4l1.2,1.9l2.5,0.3l1.7,2.2l-0.9,4.3L968.3,615.2z"/>
	<path id="IE" class="st0" d="M582.5,375.2l0.6,4.1l-2.6,5.1l-6.1,3.3l-4.9-0.8l2.8-5.9l-1.8-5.9l4.7-4.6l2.6-2.8l0.7,3.2l-0.7,3.2
		l2.1-0.1L582.5,375.2z"/>
	<path id="IL" class="st0" d="M726.9,476.6l-0.6,1.3l-1.2-0.6l-0.7,2.7l0.9,0.4l-0.9,0.6l-0.2,1.1l1.6-0.6l0.1,1.6l-1.7,6.3
		l-2.3-6.8l1-1.3l-0.2-0.2l0.9-1.9l0.7-3.1l0.5-1l0.1,0h1.2l0.3-0.7l0.9-0.1l0,1.7L726.9,476.6L726.9,476.6z"/>
	<path id="IN" class="st0" d="M939.3,495.8l-0.3-1.5l-3.7-0.6l1.2-1.6l-1.6-2.4l-2.5,1.6l-2.9-1l-4,2.5l-3.1,2.9l-2.8,0.5l1.4,1.2
		l-0.2,2.4l-2.8,0.1l-2.9-0.3l-2.2,0.6l-3.1-1.5l-0.1-0.8l-0.3-3.1l-2.1,0.8l-0.3,1.7l0.5,2.4l-0.4,1.5l-2.9,0.1l-4.2-0.9l-2.7-0.4
		l-2-1.9l-4.7-0.5l-4.5-2.2l-3.2-1.9l-3.3-1.5l1.3-3.7l2.2-1.8l-4.8-2.8l-3.4-2.5l-1-4.5l2.5,0.5l0.1-2.1l-1.4-2.1l0.2-2.1h0.1
		l1.5-0.1l2-2.7l1.1-3.4l-3.5-1.7l-4.8,1.7l-0.2,0l0.2,0.1l-5.7-1.7l-1-3.3l-2.5-2l-2,0.5l-1.7,0.8l-1.6,0.2l-0.1,0.1l-3.8,2.9
		l0.4,1.4l1.2,0l3.7,3.2l-2.3,2.1l0.7,5.9l2.9,1.2l0.1,0l0,0l2.8,2l-2.9,2.3l0,2.9l-3.3,4l-2.2,4l-3.6,4.1l-4-0.3l-3.8,4.1l2.3,1.7
		l0.4,2.9l1.9,1.9l0.7,3.2l-7.6,0l-2.3,2.5l4,3.2l1,1.4l-1.7,1.3l4.5,4.5l2.4,0.4l5-2.2l0.7,3.4l0,4.4l1,4.6l1.4,6.9l3.1,4.9
		l0.6,2.2l0.8,4.4l1.8,3.4l1.2,1.6l1.3,3.5l1.6,4.9l3.3,3.2l1.4-1l1.2-2.4l3.1-1l-1-1.1l1.6-2.6l1.8-0.2l0-5.9l1.4-3.3l-0.2-2.9
		l-0.7-4.6l1-2.7l1.6-0.2l3.1-1.3l1.7-0.9v-1.6l3.4-2.3l2.6-2.3l3.9-4.3l4.9-2.5l1.8-2.2l-0.2-2.8l4.3-0.8l2.3,0l0.5-1.3l-0.5-3.1
		l-1.2-2.8l0.6-2.3l-2.1-1l0.8-1.4l2.1-1.4l-2.5-2l1.2-2.6l2.7,1.6l1.6,0.2l0.3,2.6l3.3,0.5l3.2-0.1l2,0.6l-1.6,3.2l-1.5,0.2
		l-1.1,2.1l1.9,1.9l0.6-2.4l1,0l1.8,5.9l1.7-0.9l-0.4-1.6l0.8-1.3l0.1-3.9l2.7,0.9l1.5-3.1l0.2-1.8l1.9-3.2l-0.1-2.2l4.5-2.7
		l2.5,0.7l-0.3-2.4L939.3,495.8z"/>
	<path id="IQ" class="st0" d="M760.3,463l2.2,1.3l0.3,2.5l-1.7,1.4l-0.8,3.2l2.4,3.9l4.2,2.2l1.8,3.1l-0.6,2.9h1.1l0,2.1l1.9,2.1
		l-2-0.2l-2.3-0.3l-2.5,3.8l-6.4-0.3l-9.7-8l-5.1-2.8l-4.2-1.1l-1.4-5l7.6-4.3l1.3-5.1l-0.3-3.1l1.9-1.1l1.8-2.7l1.5-0.7l4,0.6
		l1.2,1.1l1.6-0.7L760.3,463z"/>
	<path id="IR" class="st0" d="M789.5,457.8l3-0.8l2.4-2.5l2.3,0.1l1.5-0.8l2.5,0.4l3.8,2.2l2.8,0.5l3.9,3.8l2.6,0.1l0.3,3.6
		l-1.4,5.2l-0.9,3l1.5,0.6l-1.5,2.2l1.1,3.2l0.3,2.6l2.6,0.7l0.3,2.6l-3.1,3.6l1.7,2.1l1.4,2.4l3.3,1.7l0.1,3.4l1.6,0.6l0.3,1.8
		l-5,2l-1.3,4.4l-6.5-1.1l-3.8-0.9l-3.9-0.5l-1.5-4.7l-1.6-0.7l-2.7,0.7l-3.5,1.8l-4.2-1.3l-3.5-3l-3.3-1.1l-2.3-3.7l-2.5-5.2
		l-1.8,0.6l-2.2-1.3l-1.3,1.5l-1.9-2.1l0-2.1h-1.1l0.6-2.9l-1.8-3.1l-4.2-2.2l-2.4-3.9l0.8-3.2l1.7-1.4l-0.3-2.5l-2.2-1.3l-2.2-5.1
		l-1.9-3.5l0.7-1.3l-1.1-5.1l2.4-1.3l0.5,1.7l1.7,2l2.4,0.6l1.2-0.1l4.1-3.3l1.3-0.3l1,1.3l-1.2,2.2l2.1,2.3l0.8-0.2l1.1,3.2
		l3.3,0.9l2.4,2.2l4.9,0.7l5.4-1.1L789.5,457.8z"/>
	<path id="IS" class="st0" d="M553.9,287l-0.8,5.5l3.9,5.6l-4.5,6.1l-9.9,5.4l-3,1.4l-4.5-1.1l-9.6-2.5l3.4-3.5l-7.5-3.9l6.1-1.6
		l-0.1-2.4l-7.2-1.9l2.3-5.5l5.2-1.3l5.4,5.7l5.2-4.6l4.3,2.4l5.6-4.6L553.9,287z"/>
	<path id="IT" class="st0" d="M657.3,453.3l-1.2,3.4l0.5,1.3l-0.7,2.2l-2.6-1.6l-1.8-0.5l-4.8-2.2l0.5-2.2l4,0.4l3.5-0.5
		L657.3,453.3z M635.6,440l2.1,3.2l-0.5,5.9l-1.6-0.3l-1.4,1.5l-1.3-1.2l-0.1-5.4l-0.8-2.6l1.9,0.2L635.6,440z M646.5,413.5l4.9,1.3
		l-0.4,2.4l0.8,2.1l-2.7-0.7l-2.8,1.7l0.2,2.4l-0.4,1.4l1.1,2.4l3.2,2.4l1.7,3.9l3.8,3.7l2.7,0l0.8,1l-1,0.9l3.1,1.7l2.5,1.4l3,2.4
		l0.4,0.8l-0.6,1.6l-1.9-2.1l-3-0.7l-1.4,2.9l2.5,1.6l-0.4,2.3l-1.4,0.3l-1.8,3.8l-1.4,0.3l0-1.3l0.7-2.3l0.7-0.9l-1.3-2.6l-1.1-2.2
		l-1.4-0.6l-1-1.9l-2.2-0.8l-1.5-1.8l-2.5-0.3l-2.7-2.1l-3.1-3l-2.3-2.7l-1.1-4.7l-1.7-0.6l-2.8-1.6l-1.6,0.6l-2,2.2l-1.4,0.3
		l0.4-2.1l-1.9-0.6l-0.9-3.7l1.2-1.5l-1-1.8l0.1-1.4l1.5,1.1l1.7-0.2l1.9-1.7l0.6,0.8l1.6-0.2l0.7-2l2.5,0.6l1.5-0.8l0.3-2l2.1,0.7
		l0.4-1l3.4-0.9L646.5,413.5z"/>
	<path id="JM" class="st0" d="M336.7,530.8l2.3,0.3l1.8,0.9l0.6,1L339,533l-1,0.6l-1.9-0.6l-2-1.3l0.4-0.8l1.4-0.2L336.7,530.8z"/>
	<path id="JO" class="st0" d="M726.3,477.9l0.6-1.3l3.8,1.6l6.7-4.3l1.4,5l-0.6,0.6l-6.9,2l3.4,4l-1.1,0.7l-0.6,1.3l-2.6,0.5
		l-0.8,1.4l-1.5,1.2l-3.8-0.6l-0.1-0.6l1.7-6.3l-0.1-1.6l0.5-1.2L726.3,477.9L726.3,477.9z"/>
	<path id="JP" class="st0" d="M1067.5,470.7l0.4,1.4l-1.9,2.5l-1.4-1.3l-1.8,1l-0.9,2.4l-2.2-1.2l0-1.9l1.9-2.5l1.9,0.5l1.4-1.7
		L1067.5,470.7z M1089.3,458.1l-1.3,3.4l0.6,2.1l-1.8,3l-4.4,2l-6.1,0.3l-4.9,4.7l-2.3-1.6l-0.1-3.1l-6,0.9l-4.1,1.9l-4,0.1l3.5,3
		l-2.3,6.9l-2.2,1.7l-1.7-1.6l0.8-3.6l-2.2-1.2l-1.4-2.8l3.3-1.3l1.8-2.6l3.5-2.1l2.5-2.9l6.9-1.2l3.7,0.9l3.6-7.6l2.3,2l5-4.3
		l1.9-1.7l2.2-5.4l-0.6-5l1.4-2.9l3.7-0.8l1.9,6.3l-0.1,3.6l-3.2,4.4L1089.3,458.1z M1099.4,426.2l2.4,1l2.4-2l0.8,5.3l-5.1,1.3
		l-3,4.6l-5.4-3.2l-1.9,5.1l-3.8,0.1l-0.5-4.6l1.7-3.6l3.7-0.3l1-6.6l1-3.8l4,5.1L1099.4,426.2z"/>
	<path id="KE" class="st0" d="M745,598.1l2,2.8l-2.4,1.4l-0.8,1.4l-1.3,0.2l-0.5,2.4l-1.1,1.4l-0.7,2.3l-1.4,1.1l-4.9-3.4l-0.2-2
		l-12.5-7l-0.6-0.4l0-3.6l1-1.4l1.7-2.3l1.2-2.5l-1.5-3.9l-0.4-1.7l-1.6-2.4l2.1-2l2.3-2.3l1.8,0.6v1.9l1.2,1.1h2.4l4.4,2.9l1.1,0
		l0.8-0.1l0.8,0.4l2.3,0.3l1-1.4l3.1-1.4l1.4,1.2h2.4l-3,3.9L745,598.1z"/>
	<path id="KG" class="st0" d="M848.2,435.2l0.8-2l2.3-0.7l5.7,1.6l0.5-2.8l1.9-1l4.9,2l1.2-0.5l5.7,0.1l5.1,0.5l1.7,1.7l2.1,0.7
		l-0.5,1.1l-5.4,2.5l-1.2,1.8l-4.4,0.5l-1.3,2.9l-3.7-0.6l-2.4,0.9l-3.3,2.1l0.5,1l-1,1l-6.5,0.7l-4.3-1.4l-3.7,0.3l0.3-2.6l3.7,0.7
		l1.3-1.4l2.6,0.4l4.4-3.2l-4.1-2.4l-2.5,1.1l-2.5-1.7l2.9-3L848.2,435.2z"/>
	<path id="KH" class="st0" d="M960.3,558.6l-1.4-1.8l-1.7-3.6l-0.8-4.2l2.2-2.9l4.4-0.7l3.2,0.5l2.8,1.4l1.6-2.4l3.1,1.3l0.8,2.4
		l-0.4,4.2l-5.8,2.7l1.5,2.1l-3.6,0.2l-3,1.4L960.3,558.6z"/>
	<path id="KP" class="st0" d="M1053.7,434.6l0.5,0.8l-1.3-0.3l-1.5,1.6l-1,1.6l0.1,3.3l-1.8,1l-0.6,0.8l-1.3,1.3l-2.3,0.7l-1.5,1.2
		l-0.1,1.9l-0.4,0.5l1.4,0.7l1.9,1.9l-0.5,1.1l-1.5,0.3l-2.4,0.2l-1.3,2l-1.5-0.1l-0.2,0.4l-1.7-0.8l-0.4,0.8l-1,0.4l-0.1-0.8
		l-0.9-0.4l-0.9-0.7l0.9-1.9l0.8-0.5l-0.3-0.8l0.9-2.4l-0.2-0.7l-2-0.5l-1.6-1.2l2.8-2.9l3.8-2.4l2.4-3.3l1.6,1.4l3,0.2l-0.5-2.4
		l5.3-2l1.4-2.6L1053.7,434.6z"/>
	<path id="KR" class="st0" d="M1045.8,451.7l3,5.1l0.8,2.8l0,4.9l-1.3,2.3l-3.1,0.8l-2.8,1.7l-3.1,0.4l-0.4-2.3l0.6-3.2l-1.5-4.4
		l2.6-0.7l-2.4-3.7l0.2-0.4l1.5,0.1l1.3-2l2.4-0.2l1.5-0.3L1045.8,451.7z"/>
	<path id="XK" class="st0" d="M675.3,436.2l-0.2,0.9l-0.4,0l-0.2-1.7l-0.8-0.5l-0.7-1.2l0.6-1l0.8-0.3l0.5-1.5l0.6-0.3l0.5,0.7
		l0.6,0.3l0.4,0.7l0.6,0.2l0.7,0.9l0.5,0l-0.4,1.1l-0.4,0.6l0.1,0.3l-0.8,0.2L675.3,436.2z"/>
	<path id="KW" class="st0" d="M769.1,487.6l0.7,1.7l-0.3,0.9l1.1,3l-2.4,0.1l-0.9-1.8l-3.1-0.4l2.5-3.8L769.1,487.6z"/>
	<path id="KZ" class="st0" d="M848.2,435.2l-2,0.9l-4.5,3.2l-1.5,3.3l-1.3,0l-0.9-2.1l-4.4-0.1l-0.7-3.8l-1.7,0l0.3-4.7l-4.1-3.4
		l-5.9,0.4l-4,0.7l-3.3-4.3l-2.8-1.8l-5.3-3.5l-0.6-0.4l-8.9,2.9l0.1,17.4l-1.8,0.2l-2.4-3.6l-2.3-1.3l-3.9,1l-1.5,1.5l-0.2-1.1
		l0.8-1.9l-0.6-1.6l-4-1.6l-1.6-4.3l-1.9-1.2l-0.1-1.6l3.4,0.5l0.1-3.5l2.9-0.8l3,0.7l0.6-4.8l-0.6-3.1l-3.5,0.2l-2.9-1.2l-4,2.2
		l-3.2,1.1l-1.8-0.8l0.4-2.6l-2.2-3.4l-2.6,0.1l-2.9-3.5l2-4l-1-1.1l2.7-5.9l3.6,3.1l0.4-3.9l7.1-6l5.4-0.1l7.6,3.8l4.1,2.2l3.7-2.3
		l5.5-0.1l4.4,2.8l1-1.6l4.8,0.2l0.9-2.6l-5.6-3.8l3.3-2.7l-0.6-1.5l3.3-1.5l-2.5-3.9l1.6-2l12.9-2l1.7-1.5l8.6-2.2l3.1-2.5l6.2,1.3
		l1.1,6.1l3.6-1.4l4.4,2l-0.3,3.2l3.3-0.3l8.6-5.5l-1.2,1.8l4.4,4.5l7.7,14.2l1.8-2.9l4.7,3.1l4.9-1.4l1.9,1l1.7,3.1l2.4,1l1.5,2.3
		l4.4-0.7l1.8,3.2l-2.6,3.5l-2.9,0.5l-0.2,5.1l-1.9,2.3l-6.8-1.7l-2.5,8.9l-1.8,1.1l-6.8,1.9l3.1,8.3l-2.4,1.2l0.3,2.7l-2.1-0.7
		l-1.7-1.7l-5.1-0.5l-5.7-0.1l-1.2,0.5l-4.9-2l-1.9,1l-0.5,2.8l-5.7-1.6l-2.3,0.7L848.2,435.2z"/>
	<path id="LA" class="st0" d="M966.2,545.9l1.1-1.6l0.2-3l-2.8-3.1l-0.2-3.5l-2.6-2.9l-2.6-0.2l-0.7,1.2l-2,0.1l-1-0.6l-3.6,2.1
		l-0.1-3.2l0.8-3.8l-2.3-0.2l-0.2-2.2l-1.5-1.1l0.7-1.3l2.9-2.4l0.3,0.9l1.8,0.1l-0.5-4.2l1.8-0.5l2,2.9l1.5,3.3l4.2,0l1.3,3.2
		l-2.2,0.9l-1,1.3l4.1,2.2l2.9,4.3l2.2,3.2l2.6,2.5l0.9,2.5l-0.6,3.5l-3.1-1.3l-1.6,2.4L966.2,545.9z"/>
	<path id="LB" class="st0" d="M727.2,474.3l-0.9,0.1L726,475h-1.2l1.2-3.4l1.7-2.9l0.1-0.1l1.5,0.2l0.6,1.6L728,472L727.2,474.3z"/>
	<path id="LK" class="st0" d="M885.5,569.4L885,573l-1.4,1l-3,0.8l-1.6-2.7l-0.6-4.9l1.6-5.6l2.4,1.9l1.6,2.4L885.5,569.4z"/>
	<path id="LR" class="st0" d="M577.3,580.3l-0.9,0l-3.6-1.6l-3.1-2.6l-2.9-1.9l-2.3-2.2l0.8-1.1l0.2-1l1.5-1.9l1.6-1.6l0.7-0.1
		l0.9-0.4l1.4,2.1l-0.2,1.4l0.7,0.7l1,0l0.7-1.4l1,0.1l-0.2,1l0.3,1.7l-0.7,1.5l1,0.9l1.1,0.2l1.5,1.4l0.1,1.4l-0.3,0.4L577.3,580.3
		z"/>
	<path id="LS" class="st0" d="M703.6,698.8l1.2,1.2l-1.1,1.9l-0.6,1.3l-1.9,0.6l-0.6,1.3l-1.2,0.4l-2.6-3.1l1.8-2.5l1.9-1.5l1.6-0.8
		L703.6,698.8z"/>
	<path id="LT" class="st0" d="M682.1,372.5l-0.3-1.5l0.4-1.6l-1.5-0.9l-3.6-1.1l-0.7-5.1l3.9-1.9l5.8,0.4l3.4-0.6l0.5,1.3l1.8,0.4
		l3.3,3l0.3,2.7l-2.8,1.9l-0.8,3.3l-3.7,2.2l-3.3,0l-0.8-1.8L682.1,372.5z"/>
	<path id="LU" class="st0" d="M624.7,396.1l0.7,1.2l-0.2,2.3l-1,0.1l-0.8-0.5l0.4-3L624.7,396.1z"/>
	<path id="LV" class="st0" d="M676.4,362.3l0.1-4.7l1.7-4l3.2-2.2l2.7,4.8l2.8-0.1l0.7-4.9l2.9-1.1l1.5,0.8l3,2.4l2.9,0l1.7,1.5
		l0.3,3.1l1.1,3.7l-3.7,2.4l-2.1,1l-3.3-3l-1.8-0.4l-0.5-1.3l-3.4,0.6l-5.8-0.4L676.4,362.3z"/>
	<path id="LY" class="st0" d="M655,514.8l-2.4,1.4l-1.9-2l-5.4-1.6l-1.5-2.3l-2.7-1.7l-1.6,0.7l-1.2-2.1l-0.1-1.6l-2-2.8l1.4-1.6
		l-0.3-2.4l0.4-2.1l-0.2-1.8l0.6-3.2l-0.2-1.8l-1.1-3.5l1.7-0.9l0.3-1.7l-0.4-1.7l2.4-1.5l1.1-1.3l1.7-1.2l0.2-3.1l4,1.4l1.4-0.4
		l2.9,0.7l4.6,1.8l1.6,3.6l3.1,0.8l4.9,1.7l3.7,2l1.7-1l1.6-1.8l-0.8-3.1l1.1-2l2.5-1.9l2.4-0.6l4.7,0.8l1.2,1.8l1.3,0l1.1,0.7
		l3.4,0.5l0.8,1.3l-1.2,1.9l0.5,1.7l-0.9,2.5l1,3.2v13.7V518v7.3l-4,0l0,1.5l-13.7-7l-13.7-7.1L655,514.8z"/>
	<path id="MA" class="st0" d="M599.1,476l-1.2-4.3l-0.2-2.5l-1.3-2.7l-1.5,0l-3.6-0.9l-3.3,0.3L586,464l-2.5,0l-1.1,2.6l-2.3,4.3
		l-2.6,1.7l-3.5,1.9l-2.2,2.8l-0.5,2.1l-1.3,3.5l0.9,4.9L568,491l-1.7,1l-2.7,2.7l-3.2,0.4l-1.7,1.5l-0.1,0l-2.2,3.9l-2.3,1.4
		l-1.2,2.3l-0.1,2l-0.9,2.2l-1.2,0.6l-1.9,2.4l-1.2,2.6l0.2,1.2l-1.1,1.9l-1.3,1l-0.2,1.7l-0.1,1.6l0.7-1.2l13.5,0l-0.6-5.3l0.8-1.9
		l3.2-0.3l-0.1-9.7l11.3,0.2v-5.8l0.1-0.7v-0.3l0-4.6l5.6-2.9l3.4-0.6l2.8-1.1l1.3-2l4-1.6l0.1-3l2-0.4l1.6-1.5l4.5-0.7l0.6-1.6
		L599.1,476z"/>
	<path id="MD" class="st0" d="M695.5,406.1l0.8-0.8l2.3-0.5l2.5,1.6l1.4,0.2l1.6,1.4l-0.2,1.7l1.2,0.8l0.5,2.1l1.2,1.3l-0.2,0.7
		l0.6,0.5l-0.9,0.4l-2-0.1l-0.3-0.7l-0.7,0.4l0.2,0.9l-0.9,1.6l-0.6,1.7l-0.9,0.5l-0.6-2.2l0.4-2.1l-0.1-2.2l-2-3l-1.1-2.1l-1.1-1.5
		L695.5,406.1z"/>
	<path id="ME" class="st0" d="M672,434.1l-0.2-0.9l-1.5,2.3l0.2,1.5l-0.7-0.4l-1-1.5l-1.5-0.9l0.4-0.8l0.5-2.6l1.1-1.1l0.6-0.4
		l0.9,0.8l0.5,0.7l1.1,0.5l1.3,1l-0.3,0.4l-0.6,1L672,434.1z"/>
	<path id="MG" class="st0" d="M774.5,638.2l0.9,1.5l0.8,2.3l0.6,4.3l0.9,1.7l-0.3,1.7l-0.6,1.1l-1.2-2.1l-0.6,1.1l0.6,2.6l-0.3,1.5
		l-0.9,0.8l-0.2,3.1l-1.3,4.2l-1.7,5l-2.1,7l-1.3,5.2l-1.6,4.4l-2.8,0.9l-3,1.6l-2-1l-2.7-1.3l-0.9-2l-0.2-3.3l-1.2-3l-0.3-2.7
		l0.6-2.7l1.6-0.6l0-1.2l1.6-2.8l0.3-2.3l-0.8-1.7l-0.6-2.3l-0.3-3.3l1.2-2l0.5-2.3l1.7-0.1l1.9-0.7l1.3-0.6l1.5,0l1.9-2l2.8-2.2
		l1-1.8l-0.5-1.5l1.5,0.4l1.9-2.4l0.1-2.1l1.1-1.6L774.5,638.2z"/>
	<path id="MK" class="st0" d="M674.7,437.1l0.4,0l0.2-0.9l2-0.7l0.8-0.2l1.2-0.3l1.6-0.1l1.7,1.5l0.2,3l-0.7,0.1l-0.6,0.8l-1.9-0.1
		l-1.3,1l-2.2,0.4l-1.4-1.1l-0.5-1.9L674.7,437.1z"/>
	<path id="ML" class="st0" d="M561.9,544.6l1.2-0.6l0.6-2.1l1.1-0.1l2.4,1l1.9-0.7l1.3,0.2l0.5-0.8l13.8,0l0.8-2.5l-0.6-0.4
		l-1.7-15.6l-1.7-16l5.3-0.1l11.6,8.2l11.6,8l0.8,1.7l2.1,1l1.6,0.6l0,2.3l3.8-0.4l0,8.3l-1.9,2.4l-0.3,2.2l-3.1,0.6l-4.7,0.3
		l-1.3,1.3l-2.2,0.1l-2.2,0l-0.9-0.7l-1.9,0.5l-3.2,1.5l-0.6,1.1l-2.7,1.6l-0.5,0.9l-1.4,0.7l-1.7-0.5l-0.9,0.9l-0.5,2.4l-2.7,2.9
		l0.1,1.2l-0.9,1.5l0.2,2l-1.4,0.5l-0.8,0.4l-0.5-1.5l-1,0.4l-0.6-0.1l-0.6,1l-2.7,0l-1-0.5l-0.4,0.3l-1.1-1l0.2-1l-0.4-0.4
		l-0.7,0.3l0.1-1.1l0.7-0.9l-1.4-1.5l-0.4-1l-0.8-0.8l-0.7-0.1l-0.8,0.5l-1.1,0.5l-0.9,0.8l-1.5-0.3l-1-0.9l-0.6-0.1l-0.9,0.5
		l-0.6,0l-0.2-1.3l0.2-1.1l-0.3-1.3l-1.3-1l-0.7-2L561.9,544.6z"/>
	<path id="MM" class="st0" d="M946.6,524.7l-2,1.6l-2.4,0.2l-1.6,3.9l-1.4,0.6l1.7,3.2l2.2,2.6l1.4,2.4l-1.2,3.1l-1.2,0.6l0.8,1.8
		l2.3,2.8l0.4,2l-0.1,1.6l1.3,3.2l-1.9,3.3l-1.7,3.6l-0.3-2.6l1.1-2.7l-1.2-2.1l0.3-3.8l-1.4-1.8l-1.1-4.2l-0.6-4.5l-1.5-3l-2.3,1.8
		l-3.9,2.5l-1.9-0.3l-2.1-0.8l1.2-4.4l-0.7-3.4l-2.7-4.2l0.4-1.3l-2-0.5l-2.4-3l-0.2-3l1.2,0.6l0.1-2.6l1.7-0.9l-0.4-1.6l0.8-1.3
		l0.1-3.9l2.7,0.9l1.5-3.1l0.2-1.8l1.9-3.2l-0.1-2.2l4.5-2.7l2.5,0.7l-0.3-2.4l1.2-0.7l-0.3-1.5l2-0.3l1.2,2.3l1.5,0.9l0.1,3
		l-0.1,3.2l-3.3,3.2l-0.4,4.5l3.6-0.6l0.8,3.4l2.2,0.7l-1,3.1l2.6,1.4l1.5,0.7l2.5-1.1l0.1,1.5l-2.9,2.4l-0.7,1.3L946.6,524.7z"/>
	<path id="MN" class="st0" d="M906,400.5l3.6-0.9l6.6-4.6l5.2-2.5l3,1.7l3.6,0.1l2.3,2.5l3.4,0.2l5,1.3l3.3-3.7l-1.4-3.2l3.6-5.7
		l3.9,2.3l3.1,0.6l4.1,1.4l0.6,4.1l4.9,2.3l3.3-1l4.3-0.7l3.5,0.7l3.4,2.6l2.1,2.7l3.2,0l4.3,0.8l3.2-1.3l4.5-0.9l5-3.8l2.1,0.6
		l1.8,1.8l4.1-0.4l-1.7,4l-2.4,5.2l0.9,2.1l1.9-0.6l3.4,0.8l2.7-1.9l2.8,1.6l3.1,3.6l-0.4,1.8l-2.7-0.6l-5,0.7l-2.4,1.4l-2.5,3.3
		l-5.3,1.9l-3.4,2.6l-3.5-1l-1.9-0.4l-1.8,3.1l1.1,1.8l0.6,1.6l-2.4,1.6l-2.5,2.5l-4,1.6l-5.2,0.2l-5.6,1.6l-4,2.5l-1.5-1.4h-4.2
		l-5.1-2.8l-3.4-0.7l-4.6,0.6l-7.1-1l-3.8,0.1l-2-2.8l-1.6-4.4l-2.1-0.5l-4.2-3l-4.6-0.7l-4.1-0.8l-1.2-2.1l1.3-5.8l-2.4-4.1
		l-4.9-1.9l-2.9-2.7L906,400.5z"/>
	<path id="MR" class="st0" d="M561.9,544.6l-2.3-2.4l-2.1-2.6l-2.3-0.9l-1.6-1l-1.9,0l-1.7,0.8l-1.7-0.3l-1.2,1.1l-0.3-1.9l1-1.8
		l0.4-3.4l-0.4-3.6l-0.4-1.8l0.3-1.8l-0.9-1.7l-1.8-1.6l0.7-1.2l13.5,0l-0.6-5.3l0.8-1.9l3.2-0.3l-0.1-9.7l11.3,0.2v-5.8l13,9.2
		l-5.3,0.1l1.7,16l1.7,15.6l0.6,0.4l-0.8,2.5l-13.8,0l-0.5,0.8l-1.3-0.2l-1.9,0.7l-2.4-1l-1.1,0.1l-0.6,2.1L561.9,544.6z"/>
	<path id="MW" class="st0" d="M722.9,634.9l-1,2.7l1,4.6l1.2,0l1.2,1.1l1.4,2.6l0.3,4.6l-1.5,0.7l-1.1,2.5l-2.2-2.2l-0.2-2.5
		l0.7-1.7l-0.2-1.4l-1.3-0.9l-1,0.3l-2-1.7l-1.8-0.9l1-3.3l1.1-1.2l-0.7-2.9l0.7-2.8l0.6-0.9l-0.9-3l-1.6-1.5l3.4,0.6l0.7,1l1.2,1.6
		L722.9,634.9z"/>
	<path id="MX" class="st0" d="M269.3,503.5l-1.3,3.3l-0.6,2.7l-0.3,5l-0.3,1.8l0.6,2l1.1,1.8l0.7,2.8l2.3,2.7l0.8,2.1l1.3,1.8l3.7,1
		l1.4,1.5l3-1l2.6-0.4l2.6-0.6l2.2-0.6l2.2-1.5l0.8-2.1l0.3-3.1l0.6-1.1l2.3-1l3.7-0.8l3.1,0.1l2.1-0.3l0.8,0.8l-0.1,1.8l-1.8,2.2
		l-0.8,2.2l0.6,0.6l-0.5,1.6l-0.9,2.8l-0.9-0.9l-0.7,0.1l-0.6,0l-1.2,2.2l-0.6-0.4l-0.4,0.2l0,0.5l-3.2,0h-3.2v2h-1.6l1.3,1.2
		l1.3,0.8l0.4,0.8l0.6,0.2l-0.1,1.2l-4.4,0l-1.7,2.9l0.5,0.7l-0.4,0.8l-0.1,1l-3.9-3.8l-1.8-1.2l-2.8-0.9l-1.9,0.3l-2.8,1.3
		l-1.7,0.4l-2.4-0.9l-2.6-0.7l-3.2-1.6l-2.6-0.5l-3.9-1.7l-2.9-1.7l-0.9-1l-1.9-0.2l-3.5-1.1l-1.4-1.6l-3.7-2l-1.7-2.3l-0.8-1.8
		l1.1-0.4l-0.4-1l0.8-0.9l0-1.3l-1.2-1.6l-0.3-1.5l-1.2-1.9l-3-3.7l-3.5-2.9l-1.7-2.3l-3-1.5l-0.6-0.9l0.5-2.4l-1.8-0.9l-2-1.9
		l-0.9-2.7l-1.8-0.3l-2-2l-1.6-1.9l-0.1-1.2l-1.8-3l-1.2-3.1l0-1.5l-2.5-1.6l-1.1,0.2l-2-1.1l-0.6,1.6l0.6,1.9l0.3,3l1.2,1.6
		l2.6,2.7l0.6,0.9l0.5,0.3l0.4,1.3l0.6-0.1l0.7,2.5l1,1l0.7,1.4l2.2,2l1.1,3.6l1,1.7l1,1.8l0.2,2l1.7,0.1l1.4,1.7l1.2,1.7l-0.1,0.7
		l-1.4,1.4l-0.6,0l-0.9-2.3l-2.2-2.1l-2.5-1.8l-1.8-1l0.1-2.8l-0.5-2.1l-1.6-1.2l-2.4-1.7l-0.5,0.5l-0.9-1l-2.1-0.9l-2-2.2l0.2-0.3
		l1.4,0.2l1.3-1.4l0.1-1.8l-2.7-2.8l-2-1.1l-1.3-2.5l-1.3-2.6l-1.6-3.2l-1.4-3.6l3.9-0.3l4.4-0.4l-0.3,0.8l5.2,2l7.9,2.8l6.9,0h2.7
		v-1.7h6l1.2,1.4l1.8,1.3l2,1.8l1.1,2.1l0.9,2.2l1.8,1.2l2.9,1.2l2.2-3.1l2.8-0.1l2.4,1.6l1.7,2.7l1.2,2.3l2,2.2l0.8,2.7l1,1.8
		l2.7,1.2l2.4,0.8L269.3,503.5z"/>
	<path id="MY" class="st0" d="M951.9,573.9l0.3,1.8l2.3-0.4l1.1-1.4l0.8,0.3l2,2.1l1.4,2.3l0.2,2.3l-0.4,1.6l0.3,1.2l0.3,2l1.2,0.9
		l1.3,3l-0.1,1.2l-2.4,0.2l-3.3-2.5l-4.1-2.7l-0.4-1.7l-2-2.3l-0.5-2.8l-1.2-1.9l0.4-2.5l-0.8-1.5l0.6-0.6L951.9,573.9z
		 M1012.3,579.9l-2.5,1.2l-3-0.6h-4l-1.2,3.9l-1.3,1.2l-1.8,4.8l-2.8,0.7l-3.3-1l-1.6,0.3l-2,1.7l-2.2-0.2l-2.2,0.7l-2.4-1.9
		l-0.6-2.3l2.5,1.2l2.7-0.6l0.7-2.9l1.5-0.6l4.1-0.7l2.5-2.7l1.7-2.2l1.6,1.8l0.7-1.2l1.6,0.1l0.2-2.2l0.2-1.7l2.7-2.4l1.7-2.7
		l1.4,0l1.8,1.7l0.2,1.5l2.3,1l2.9,1l-0.2,1.3l-2.3,0.2L1012.3,579.9z"/>
	<path id="MZ" class="st0" d="M722.9,634.9l2.6-0.3l4.1,1l0.9-0.4l2.4-0.1l1.2-1l2.1,0l3.8-1.3l2.7-2l0.6,1.6l-0.1,3.5l0.4,3.1
		l0.1,5.5l0.6,1.7l-1,2.5l-1.3,2.5l-2.2,2.2l-3.1,1.4l-3.9,1.7l-3.9,3.9l-1.3,0.7l-2.4,2.6l-1.4,0.8l-0.3,2.6l1.6,2.8l0.7,2.2l0,1.1
		l0.6-0.2l-0.1,3.6l-0.6,1.7l0.8,0.6l-0.5,1.6l-1.4,1.3l-2.8,1.3l-4.1,2l-1.5,1.4l0.3,1.6l0.9,0.3l-0.3,2l-2.6,0l-0.3-1.7l-0.5-1.7
		l-0.3-1.4l0.6-4.2l-0.9-2.7l-1.6-5.2l3.6-4.2l0.9-2.6l0.5-0.3l0.4-2.1l-0.6-1.1l0.1-2.7l0.7-2.5l0-4.5l-1.8-1.2l-1.6-0.3l-0.7-0.9
		l-1.6-0.7l-2.9,0.1l-0.2-1.3l-0.3-2.5l10.4-2.9l2,1.7l1-0.3l1.3,0.9l0.2,1.4l-0.7,1.7l0.2,2.5l2.2,2.2l1.1-2.5l1.5-0.7l-0.3-4.6
		l-1.4-2.6L724,642l-1.2,0l-1-4.6L722.9,634.9z"/>
	<path id="NA" class="st0" d="M660.1,697.3l-2.6-2.9l-1.3-2.8l-0.8-3.7l-0.8-2.8l-1.2-5.8l-0.1-4.5l-0.4-2l-1.3-1.5l-1.8-3l-1.8-4.4
		l-0.7-2.3l-2.8-3.5l-0.2-2.8l1.7-0.7l2.1-0.6l2.2,0.1l2,1.6l0.5-0.3l14-0.1l2.4,1.7l8.3,0.5l6.3-1.5l2.8-0.8l2.2,0.2l1.3,0.8l0,0.3
		l-1.9,0.8l-1.1,0l-2.2,1.4l-1.3-1.5l-5.3,1.3l-2.6,0.1l-0.1,13l-3.4,0.1v10.9l0,14.1l-3.1,2l-1.8,0.3l-2.2-0.7l-1.5-0.3l-0.6-1.7
		l-1.4-1.1L660.1,697.3z"/>
	<path id="NC" class="st0" d="M1174.8,669l2.8,2.3l1.8,1.7l-1.3,0.9l-1.9-1l-2.5-1.7l-2.2-1.9l-2.3-2.6l-0.5-1.2l1.5,0.1l1.9,1.2
		l1.5,1.2L1174.8,669z"/>
	<path id="NE" class="st0" d="M611.3,554l0.1-2.4l-4-0.8l-0.1-1.7l-1.9-2.3l-0.5-1.6l0.3-1.7l2.2-0.1l1.3-1.3l4.7-0.3l3.1-0.6
		l0.3-2.2l1.9-2.4l0-8.3l4.9-1.6l10-7.2l11.8-7.1l5.4,1.6l1.9,2l2.4-1.4l0.8,5.7l1.3,1l0.1,1.2l1.4,1.2l-0.7,1.6l-1.3,7.3l-0.2,4.7
		l-4.4,3.4l-1.5,4.7l1.4,1.3l0,2.3l2.2,0.1l-0.3,1.6l-1,0.2l-0.1,1.1l-0.6,0.1l-2.3-3.8l-0.8-0.1l-2.7,2l-2.7-1l-1.8-0.2l-1,0.5
		l-2-0.1l-2,1.5l-1.8,0.1l-4.2-1.8l-1.6,0.9l-1.8-0.1l-1.3-1.3l-3.5-1.3l-3.7,0.4l-0.9,0.8l-0.5,2l-1,1.4l-0.2,3.1l-2.6-2l-1.2,0
		L611.3,554z"/>
	<path id="NG" class="st0" d="M633.1,578.9l-3.6,1.2l-1.3-0.2l-1.3,0.8l-2.8-0.1l-1.8-2.1l-1.1-2.5l-2.4-2.3l-2.6,0h-3l0.2-5.6
		l-0.1-2.2l0.6-2.2l1.1-1.1l1.7-2.1l-0.4-0.9l0.7-1.4l-0.8-2.1l0.1-1.2l0.2-3.1l1-1.4l0.5-2l0.9-0.8l3.7-0.4l3.5,1.3l1.3,1.3
		l1.8,0.1l1.6-0.9l4.2,1.8l1.8-0.1l2-1.5l2,0.1l1-0.5l1.8,0.2l2.7,1l2.7-2l0.8,0.1l2.3,3.8l0.6-0.1l1.4,1.4l-0.4,0.6l-0.2,1.2
		l-2.9,2.7l-0.9,2.2l-0.5,1.8l-0.7,0.8l-0.7,2.4l-1.8,1.4l-0.5,1.7l-0.8,1.4l-0.3,1.4l-2.4,1.2L640,571l-1.3,0l-2,2l-1,0l-1.6,3.3
		L633.1,578.9z"/>
	<path id="NI" class="st0" d="M308.7,557l-1.2-1.1l-1.6-1.4l-0.8-1.2l-1.4-1.1l-1.7-1.6l0.4-0.5l0.6,0.5l0.3-0.3l1.1-0.1l0.4-0.8
		l0.5,0l-0.1-1.7l0.8-0.1l0.7,0l0.7-0.9l1,0.7l0.4-0.4l0.6-0.4l1.2-1l0.1-0.7l0.3,0l0.4-0.8l0.4-0.1l0.6,0.5l0.7,0.2l0.8-0.5h0.9
		l1.2-0.5l0.5-0.5l1.2,0.1l-0.3,0.3l-0.2,0.8l0.3,1.3l-0.8,1.2l-0.4,1.4l-0.1,1.6l0.2,0.9l0.1,1.6l-0.5,0.3l-0.3,1.5l0.2,0.9
		l-0.7,0.9l0.2,0.9l0.5,0.6l-0.8,0.7l-1-0.2l-0.6-0.7l-1.1-0.3l-0.8,0.5l-2.3-0.9L308.7,557z"/>
	<path id="NL" class="st0" d="M624.8,377.3l2.9,0.2l0.6,1.9l-0.9,5.2l-0.9,2.1h-2.1l0.6,5.8l-1.9-1.3l-2.2-2.4l-3.2,1.1l-2.5-0.4
		l1.8-1.5l3-8.3L624.8,377.3z"/>
	<path id="NO" class="st0" d="M700.8,241.7l10.8,7.7l-4.4,2.7l3.8,6.3l-5.9,3.9l-2.8,0.9l1.5-6.9l-4.4-4l-5.3,3.4l-1.7,7.2l-3.3,4.2
		l-3.7-2.3l-4.5,0.5l-3.8-5.1l-2.1,2.6l-2.1,0.4l-0.5,6.2l-6.5-1.5l-0.9,5.2l-3.3,0l-2.3,6.4l-3.4,9.7l-5.3,11.7l1.2,2.7l-1.2,3.1
		l-3.4-0.1l-2.2,7.3l0.2,9.9l2.2,3.7l-1.1,8.3l-2.9,4.7l-1.5,3.9l-2.3-4.1l-6.8,7.7l-4.6,1.5l-4.8-3.3l-1.2-7.2l-1.1-16.3l3.2-4.8
		l9.1-6.4l6.8-8.1l6.3-11.4l8.3-16.9l5.8-7l9.5-12.2l7.6-4.4l5.7,0.5l5.2-8.6l6.3,0.5L700.8,241.7z"/>
	<path id="NP" class="st0" d="M907.3,495.8l-0.3,1.7l0.5,2.4l-0.4,1.5l-2.9,0.1l-4.2-0.9l-2.7-0.4l-2-1.9l-4.7-0.5l-4.5-2.2
		l-3.2-1.9l-3.3-1.5l1.3-3.7l2.2-1.8l1.4-1l2.8,1.2l3.5,2.6l1.9,0.6l1.2,1.9l2.7,0.8l2.8,1.7l3.9,0.9L907.3,495.8z"/>
	<path id="NZ" class="st0" d="M1199.7,749l0.8,1.9l2.4-1.8l1,1.9v1.9l-1.3,2.1l-2.2,3.4l-1.8,1.9l1.3,2.3l-2.7,0.1l-3,1.8l-0.9,3.2
		l-1.9,4.9l-2.7,2.2l-1.7,1.4l-3.2-0.1l-2.2-1.6l-3.7-0.3l-0.6-1.8l1.8-3.6l4.3-4.8l2.2-0.9l2.5-1.8l3-2.5l2.1-2.4l1.5-3.5l1.3-1.2
		l0.5-2.5l2.4-2.1L1199.7,749z M1205.2,728.1l2.5,4.5l0.1-2.9l1.6,1.2l0.5,3.3l2.8,1.4l2.3,0.3l2-1.7l1.7,0.5l-0.8,3.9l-1,2.6
		l-2.6-0.1l-0.9,1.3l0.3,1.9l-0.5,0.8l-1.3,2.4l-1.7,3.1l-2.7,1.8l-0.6-1.2l-1.4-0.7l2-3.7l-1.1-2.5l-3.7-1.8l0.1-1.6l2.5-1.5
		l0.6-3.4l-0.2-2.8l-1.4-2.9l0.1-0.7l-1.6-1.8l-2.7-3.7l-1.4-3l1.3-0.3l1.9,2.3l2.7,1.1L1205.2,728.1z"/>
	<path id="OM" class="st0" d="M806.5,521.3l-1.3,2.5l-1.6-0.2l-0.7,0.9l-0.6,1.8l0.4,2.4l-0.3,0.4l-1.6,0l-2.1,1.3l-0.3,1.8
		l-0.8,0.8l-2.1,0l-1.3,0.9l0,1.4l-1.7,1l-1.9-0.3l-2.3,1.2l-1.6,0.2l-1.1-2.5l-2.7-5.9l10.3-3.6l2.3-7.3l-1.6-2.6l0.1-1.5l1-1.5
		l0-1.5l1.6-0.7l-0.6-0.5l0.3-2.5l1.8,0l1.5,2.6l1.9,1.4l2.5,0.5l2,0.7l1.6,2.1l0.9,1.2l1.2,0.5l0,0.8l-1.2,2.2l-0.6,1L806.5,521.3z
		 M798,503.4l-0.5,0.7l-0.6-1.3l1-1.3l0.4,0.3L798,503.4z"/>
	<path id="PA" class="st0" d="M335.6,570.4l-1.1-1l-0.7-1.9l0.8-0.9l-0.9-0.2l-0.6-1.1l-1.7-1l-1.5,0.2l-0.7,1.2l-1.4,0.9l-0.7,0.1
		l-0.3,0.7l1.6,1.9l-0.9,0.4l-0.5,0.5l-1.6,0.2l-0.6-2.1l-0.4,0.6l-1.1-0.2l-0.7-1.4l-1.4-0.2l-0.9-0.4h-1.5l-0.1,0.7l-0.4-0.5
		l0.2-0.7l0.3-0.7l-0.1-0.6l0.5-0.4l-0.7-0.5l0-1.4l1.3-0.3l1.2,1.2l-0.1,0.7l1.4,0.1l0.3-0.3l0.9,0.9l1.7-0.3l1.5-0.9l2.1-0.7
		l1.2-1l1.9,0.2l-0.1,0.3l1.9,0.1l1.5,0.6l1.1,1l1.3,1l-0.4,0.5l0.8,2l-0.6,1l-1.1-0.2L335.6,570.4z"/>
	<path id="PE" class="st0" d="M364.2,656.3l-0.9,1.8l-1.8,0.9L358,657l-0.3-1.5l-6.8-3.6l-6.2-3.9l-2.7-2.2l-1.4-2.9l0.6-1l-2.9-4.6
		l-3.4-6.4l-3.2-6.9l-1.4-1.6l-1.1-2.5l-2.7-2.3l-2.5-1.4l1.1-1.5l-1.7-3.3l1.1-2.4l2.8-2.2l0.4,1.4l-1,0.8l0.1,1.2l1.4-0.3l1.4,0.4
		l1.4,1.7l1.9-1.4l0.6-2.3l2.1-3l4.1-1.3l3.8-3.6l1.1-2.2l-0.5-2.6l0.9-0.3l2.3,1.6l1.1,1.6l1.6,0.9l2,3.6l2.6,0.4l1.9-0.9l1.2,0.6
		l2.1-0.3l2.6,1.6l-2.2,3.5l1,0.1l1.7,1.8l-3.1-0.2l-0.5,0.5l-2.8,0.6l-3.9,2.3l-0.3,1.6l-0.9,1.2l0.3,1.8l-2.1,1v1.5L349,621
		l1.4,3.1l1.9,2.1l-0.7,1.5l2.3,0.2l1.3,1.8l3,0.1l2.8-2l-0.2,5.3l1.6,0.4l1.9-0.6l3,5.6l-0.7,1.2l-0.2,2.5l-0.1,3L365,647l0.6,1.3
		l-0.8,1.2l1.5,3L364.2,656.3z"/>
	<path id="PG" class="st0" d="M1140.7,618.6l-1,0.3l-1.5-1.3l-1.5-2.2l-0.7-2.6l0.5-0.3l0.4,1l1,0.8l1.7,2.2l1.6,1.2L1140.7,618.6z
		 M1127.2,614l-1.8,0.3l-0.5,1l-1.9,0.8l-1.8,0.8h-1.8l-2.8-1l-2-1l0.3-1.1l3.1,0.5l1.9-0.3l0.5-1.6l0.5-0.1l0.3,1.8l2-0.3l1-1.2
		l1.9-1.2l-0.4-2l2.1-0.1l0.7,0.6l-0.1,1.9L1127.2,614z M1110.7,620.5l3.1,2.3l2.2,3.7l2-0.1l-0.1,1.5l2.7,0.6l-1,0.6l3.7,1.5
		l-0.4,1l-2.3,0.2l-0.8-0.9l-3-0.4l-3.5-0.5l-2.7-2.2l-1.9-1.9l-1.8-3l-4.5-1.5l-2.9,1l-2.1,1.1l0.4,2.6l-2.7,1.2l-1.9-0.6l-3.6-0.1
		l-0.1-11.2l-0.1-11.2l6,2.4l6.4,2l2.4,1.8l1.9,1.7l0.5,2l5.7,2.1l0.8,1.8l-3.2,0.4L1110.7,620.5z M1131.2,610.6l-1.1,0.9l-0.6-2
		l-0.8-1.3l-1.6-1.1l-2-1.5l-2.5-1l1-0.8l1.8,1l1.2,0.7l1.4,0.8l1.4,1.4l1.3,1.1L1131.2,610.6z"/>
	<path id="PH" class="st0" d="M1039.1,566.3l0.4,2.3l0.2,1.9l-1.2,3.2l-1.2-3.5l-1.6,1.7l1.1,2.5l-1,1.6l-4.1-2l-1-2.5l1.1-1.6
		l-2.2-1.6l-1.1,1.4l-1.6-0.1l-2.6,1.9l-0.6-1l1.3-2.9l2.2-1l1.9-1.3l1.2,1.6l2.6-0.9l0.6-1.5l2.4-0.1l-0.2-2.7l2.8,1.6l0.3,1.7
		L1039.1,566.3z M1030.8,559.8l-1.2,1.1l-1.1,2.2l-1.1,1l-2.1-2.4l0.7-0.9l0.9-1l0.4-2.2l1.9-0.2l-0.6,2.3l2.6-3.4L1030.8,559.8z
		 M1011.9,563.2l-4.6,3.3l1.7-2.4l2.5-2.1l2.1-2.4l1.8-3.5l0.6,2.8l-2.3,1.9L1011.9,563.2z M1023.6,554.2l2.1,1.1h2.2l-0.1,1.5
		l-1.6,1.5l-2.2,1l-0.1-1.6l0.2-1.8L1023.6,554.2z M1036,553.3l1,3.9l-2.7-0.9l0.1,1.2l0.8,2.1l-1.6,0.8l-0.1-2.4l-1-0.2l-0.5-2.1
		l2,0.3l0-1.3l-2.1-2.7l3.3,0.1L1036,553.3z M1022.4,550.1l-0.9,3l-1.5-1.7l-1.8-2.7l3,0.1L1022.4,550.1z M1021.6,530.8l2.1,1
		l1.1-0.9l0.3,0.9l-0.6,1.5l1.2,2.6l-0.9,3l-2,1.2l-0.5,2.9l0.8,2.8l1.8,0.4l1.5-0.4l4.3,1.9l-0.3,1.9l1.1,0.8l-0.4,1.6l-2.7-1.7
		l-1.3-1.8l-0.9,1.3l-2.2-2.1l-3.1,0.5l-1.7-0.8l0.2-1.5l1.1-0.9l-1-0.8l-0.4,1.3l-1.7-2l-0.5-1.5l-0.1-3.4l1.4,1.2l0.4-5.6l1.1-3.3
		L1021.6,530.8z"/>
	<path id="PK" class="st0" d="M857.2,475.1l-0.7-5.9l2.3-2.1L855,464l-1.2,0l-0.4-1.4l3.8-2.9l0.1-0.1l-2.4,0.3l-3.7,0.9l-2,1.8
		l0.8,1.8l0.4,2.1l-1.7,1.8l0.1,1.6l-0.9,1.5l-3.3-0.1l1.3,2.7l-2.2,1l-1.5,2.5l0.2,2.4l-1.3,1.1l-1.3-0.4l-2.6,0.5l-0.4,1.1h-2.6
		l-1.9,2.3l-0.1,3.4l-4.5,1.6l-2.4-0.3l-0.7,0.9l-2-0.5l-3.5,0.6l-5.8-2l1.7,2.1l1.4,2.4l3.3,1.7l0.1,3.4l1.6,0.6l0.3,1.8l-5,2
		l-1.3,4.4l4.9-0.5l5.6-0.1l6.3-0.7l2.7,2.9l1,2.7l2.5,0.9l2.3-2.5l7.6,0l-0.7-3.2l-1.9-1.9l-0.4-2.9l-2.3-1.7l3.8-4.1l4,0.3
		l3.6-4.1l2.2-4l3.3-4l0-2.9l2.9-2.3l-2.8-2l0,0l-0.1,0L857.2,475.1z"/>
	<path id="PL" class="st0" d="M655.6,390.8l-1.4-3.5l0.3-1.9l-0.9-3l-1.2-2l1-1.5l-0.8-2.9l2.4-1.7l5.4-2.7l4.3-2l3.4,1l0.3,1.4
		l3.3,0.1l4.2,0.7l6.3-0.1l1.8,0.6l0.8,1.8l0.1,2.6l1,2.2l0,2.3l-2.1,1.2l1.1,2.6l0.1,2.5l1.7,4.8l-0.4,1.5l-1.7,0.6l-3.1,4.4
		l0.9,2.4l-0.7-0.3l-3.3-2l-2.5,0.7l-1.6-0.5l-2,1.1l-1.7-1.9l-1.4,0.7l-0.2-0.3l-1.6-2.6l-2.6-0.3l-0.3-1.7l-2.4-0.6l-0.5,1.4
		l-1.9-1.1l0.2-1.5l-2.6-0.5L655.6,390.8z"/>
	<path id="PR" class="st0" d="M375.6,530.7l1.8,0.3l0.6,0.7l-0.9,0.9l-2.6,0l-2,0.1l-0.2-1.5l0.5-0.5L375.6,530.7z"/>
	<path id="PS" class="st0" d="M726.3,477.9v2.5l-0.5,1.2l-1.6,0.6l0.2-1.1l0.9-0.6l-0.9-0.4l0.7-2.7L726.3,477.9z"/>
	<path id="PT" class="st0" d="M572.7,437l1.2-1.2l1.4-0.7l0.9,2.3l2,0l0.6-0.6l2,0.2l1,2.3l-1.6,1.2l0,3.5l-0.6,0.6l-0.1,2.1
		l-1.5,0.4l1.4,2.7l-0.9,2.9l1.2,1.3l-0.5,1.2l-1.3,1.6l0.3,1.4l-1.4,1.1l-1.8-0.6l-1.8,0.5l0.5-3.4l-0.3-2.7l-1.5-0.4l-0.8-1.7
		l0.3-2.9l1.4-1.6l0.2-1.8l0.7-2.7l-0.1-1.9l-0.7-1.6L572.7,437z"/>
	<path id="PY" class="st0" d="M388,673.3l1.4-4.4l0.1-2l1.6-3.2l6-1.1l3.2,0.1l3.2,1.8l0,1.1l1,2l-0.2,5l3.6,0.7l1.4-0.7l2.3,1
		l0.6,1.1l0.3,3.4l0.4,1.4l1.3,0.2l1.3-0.6l1.2,0.7v2.1l-0.5,2.2l-0.7,2.2l-0.6,3.4l-3.1,3l-2.7,0.6l-3.9-0.6l-3.5-1l3.4-5.8
		l-0.5-1.7l-3.5-1.5l-4.2-2.8l-2.8-0.6L388,673.3z"/>
	<path id="QA" class="st0" d="M778.8,507.7l-0.2-2.8l0.9-2l0.9-0.4l1,1.2l0.1,2.2l-0.7,2.2l-1,0.3L778.8,507.7z"/>
	<path id="RO" class="st0" d="M682,407.9l1.5-1.1l2.1,0.6l2.2,0l1.6,1.2l1.2-0.8l2.5-0.5l0.9-1.2l1.4,0l1,0.5l1.1,1.5l1.1,2.1l2,3
		l0.1,2.2l-0.4,2.1l0.6,2.2l1.5,0.9l1.6-0.8l1.6,0.8l0.1,1.3l-1.7,1l-1-0.4l-1,5.8l-2-0.5l-2.5-1.7l-4.1,1.1l-1.7,1.2l-5.1-0.2
		l-2.7-0.7l-1.3,0.4l-1-2l-0.6-0.8l0.8-0.8l-0.9-0.6l-1.1,1.1l-2-1.4l-0.3-2l-2.1-1.2l-0.4-1.6l-1.9-1.9l2.8-0.9l2.1-3.4l1.6-3.4
		L682,407.9z"/>
	<path id="RS" class="st0" d="M675.7,420.2l2.1,1.2l0.3,2l2,1.4l1.1-1.1l0.9,0.6l-0.8,0.8l0.6,0.8L681,427l0.3,1.7l1.7,2l-1.3,1.5
		l-0.6,1.5l0.4,0.6l-0.6,0.7l-1.6,0.1l-1.2,0.3l-0.1-0.3l0.4-0.6l0.4-1.1l-0.5,0l-0.7-0.9l-0.6-0.2l-0.4-0.7l-0.6-0.3l-0.5-0.7
		l-0.6,0.3l-0.5,1.5l-0.8,0.3l0.3-0.4l-1.3-1l-1.1-0.5l-0.5-0.7l-0.9-0.8l0.8-0.2l0.5-2.2l-1.7-1.8l0.9-2.1l-1.2,0l1.3-1.8l-1.1-1.4
		l-0.8-1.9l2.6-1.3l2.1,0.2l1.9,1.9L675.7,420.2z"/>
	<path id="RU_europe" class="st0" d="M765.9,104.4l-7.7-0.6l6.7-3.9l5.2-0.3l0.7,5.7l2-5.1l3.2-3.6l5.1,4.7l-1.3,3.2l-4.6,2.7
		l-3.1,1.6l-0.5,3.3l-4,3.3l-3.7-4.8L765.9,104.4z M809.5,383.3l-2.3-0.8l-0.1-3.3l1.4-2.7l1.6-1.7l-0.9-2.1l-2.3-1.3l-2.3,1.4
		l-2.3,1.8l-2.2-2.9l-1.5-2.2l-1.6-3l3.8-0.5l3.2-0.8l2-3.3l-0.4-2.6l-2.6-2.2l0.7-3l2.7-3.4l2.2-4.3l2.2-6.1l1.6-10.9l2.3-24.5
		l6.4-5l5.9-6.7l4.8-3.8l4.6-4.7l2.5-5l-1.1-9l-10.5-9.1l-4.8-3.1l-10.2-3l-1.8,3.3l3.6,5.6l-3.9,6.2l-3.9-5.7l-5.1,3.9l-6.4,0.3
		l-2.5,3.2l-4.3-1l3.4-5.7l-2.6-0.5l-12,8l-7.2,4.3l-0.8,5.7l-5.3,1.9l-2.7-3l0-5l4.4-1.1l-2-5.1l-9.6-3l2.5,5.8l-1.7,5.4l2.9,5.3
		l-2,5.9l-3.2-3l-3.2-0.5l-8,8.3l2.3,6l-2.9,1.9l-8.3-5l-2.2,3.1l2.1,3.4l-0.4,3.8l-2.7-2l-4.4-2.4l-0.2-8.3l-0.2-3.9l-5.6-6.3
		l2.5-1.1l15.4,6.5l5.6-2.3l3.8-4.5l-0.2-5.9l-2.6-4.3l-13-10.6l-9.4-2.3l-5.7-6l-3.6,3.5l-5.9,3.9l-2.8,0.9l-0.5,6.6l5.3,6.1
		l-3.2,6.7l4,9.8l-2.3,7.1l3.1,6l-1.4,5.1l5.1,5.2l-1.3,3.8l-3.2,4.2l-7.4,9.1l3.6,3.3l-3.9,3.8l0.5,1.2l-2.5,3.8l1,6.1l-1.5,2
		l1.7,1.5l0.3,3.1l1.1,3.7l3.6,1.5l0.5,1.5l1.8-0.7l3.4,1.4l0.3,2.8l-0.7,1.6l2.2,3.9l1.4,1.1l-0.2,1.1l2.3,1l1,1.5l-1.3,1.2
		l-2.8-0.2l-0.7,0.5l0.8,1.9l0.8,3.6l1.3,0.2l0.9-1.3l1,0.3l3.6-0.5l2.2,3.2l-0.9,1.1l0.3,1.7l2.8,0.3l1.2,2.4l-0.1,1.1l4.4,1.9
		l2.6-0.8l2.1,2.5l2-0.1l5.1,1.7l0,1.5l-1.4,2.7l0.8,2.9l-0.5,1.7l-3.3,0.4l-1.8,1.4l-0.1,2.2l3.1-0.8l0.1,1.1l-5.1,2l1.9,2
		l-2.9,4.1l-2.5,0.8l3,2.9l3.9,1.8l4.4,4l0.4-0.6l2.9,0.8l5.1,0.8l4.7,2.2l0.6,0.9l2.1-0.7l3.2,1l1.1,1.9l2.2,1.1l1,0.2l2.4,2.8
		l1.5,0.3l0.6-1.2l2-1.8l-3.8-5.5l0.3-3.2l-3.1-4.5l3.4-5l3.3-0.8l1.6-2.9l-1.7-0.8l0.3-2.6l-2.2-3.4l-2.6,0.1l-2.9-3.5l2-3.9
		l-1-1.1l2.8-5.9l3.5,3.1l0.4-3.9l7.1-6l5.4-0.1l7.6,3.8l4.1,2.2l3.7-2.3l5.5-0.1l4.4,2.8l1-1.6l4.8,0.2l0.9-2.6l-5.6-3.8l0.5-0.4
		l-0.4-0.1L809.5,383.3z M784.6,230.3l-3.5,2.4l0.5,5.9l6.2,2.9l0.9,4.7l11.2,1.3l2-0.9l-6.6-8.7l-0.7-9.2l5.4-11.2l5.1-12.1
		l10.7-12.5l10.5-6.6l12.2-7.1l2.3-4.6l-2.4-5.9l-6.7,2l-5.9,5.5l-11.5,2.7l-11.4,9.1l-7.7,7.2l0.9,6l-8.2,11.1l3.2,1.5l-6.8,10.2
		L784.6,230.3z M680.7,368.4l-3.6-1.1l-4.8,1.9l-0.8,2.6l4.2,0.7l6.3-0.1l-0.3-1.5l0.4-1.6L680.7,368.4z"/>
	<path id="RU_asia" class="st0" d="M1093.1,211.1l4.9,4.7l0.4,3.2l-5.2,0.1l-7.1-1.3l-0.6-0.6l3.3-4.8L1093.1,211.1z M965.7,146.8
		l1-7l-8.7-10.2l-2.6-1.2l-2.8,2.1l-6.3,22.8L965.7,146.8z M1118.9,200.5l4-5.2l-8.6-3.5l-6.4-2.1l-0.8,4.4l6.4,5.2L1118.9,200.5z
		 M1223.7,245.5l4.5-0.6l3.6-2.5l0.3-1.5l-5-3.1l-2.9,0l-0.4,0.5l-4.4,4.5l0.6,3.4L1223.7,245.5z M1088.1,198.4l12.7,0.4l2.7-10
		l-12.4-7.5l-9.1-0.6l-4.5,2.7l-1.8,9.5l6.8,8.6L1088.1,198.4z M925.2,126.8l5.7,7l9.6,5.2l7.5-2.2l0.8-16.7l-7.9-19.7l-6.7-11.1
		l-7.5,5l-8.9,14.5l4.7,4L925.2,126.8z M1251.8,283l-9.3-1.3l0.8,6.3l-2.3-2.1l0.3-5.5l-9-9l-8.4-7.2l-4.8-4.2l-9.9-4.7l-7.2,0.6
		l-11-2.8l-1.5,4.4l2.8,6.2l-4.3,3.1l-6-8.6l-6.5,1.1l-6.5-1.9l-6.1,0.3l-4.6,2l-4.2-2.8l0.4-7.4l-2.9-4.3l-6.9-1.7l-13.9,2l-9-8.2
		l-2.9-6.6l-31.1-7.4l-4.5,5l2.5,10.3l-5.6-1.5l-2.5,3l-6.7-3.3l-5.9,2.9l-5.5-4.9L1056,246l-5.4-4.3l-4.3-8.6l2-4.7l-1.6-7.4
		l-5.6-6.3l-5.5,0.1l-7.3-2.1l-0.2,9.2l-14.4-1.8l-0.8-5.6l-11-2l-5.5,1.9l-1.5,3.1l-1.8-7.9l-3.1,2.3l-5.1-3.1l-4.3-1.8l2.6-3.8
		l9.1-7.3l3.8-4l0.9-7.2l-2.8-5.3l-7.8-7.2l-10.1-0.2l-3.1,3.6l-0.9-7.4l-7.8-2.4l4.7-3.8l-5.9-5.2l-8.1,6.5l-3.3,6.5l-0.9,6.4
		l-6.3-0.2l-7.7,7.7l-2.8-3.2l-9,1.3l-1.2,3.9l-9.1,1.8l-6.7,6.8l-4,0.4l-4,8.6l2.8,6.6l-7.5,1.6l-8.3-0.5l-6,2.5l0.3,12.6l3.1,9.4
		l-6.4-6.4l-7.2,0.6l-5.8,4.4l1.6,7.8l-3.7-1.9l1.4-10.6l-1.8-6.4l-1.7,0.3l0.8,8.1l-6.2,7.4l4.5,8.6l-2.8,10.2l0.8,5.4l3.8,0.8
		l-1.6,6.2l2,5.2l-3,4.3l-0.9,4.4l-3.8,2.2l-1.4,3.1l-3.9-1.2l6.7-12.5l1.5-6.1l-3.8-5.8l0.8-13.6l-1.1-7.3l-2.1-3.4l3.3-8.9
		l-0.7-6.4l-9.1-3.1l-2.6,2.3l-2.3,10.3l-6.3,9.8l0.1,3.4l1.8,8l-1.1,4.7l4.2,1l0.1,2.1l3.5,5l-2.3,4.9l-2-1.7l1.1,9l-2.5,5
		l-4.6,4.7l-4.8,3.8l-5.9,6.7l-6.4,5l-2.3,24.5l-1.6,10.9l-2.2,6.1l-2.2,4.3l-2.7,3.4l-0.7,3l2.6,2.2l0.4,2.6l-2,3.3l-3.2,0.8
		l-3.8,0.5l1.6,3l1.5,2.2l2.2,2.9l2.3-1.8l2.3-1.4l2.3,1.3l0.9,2.1l-1.6,1.7l-1.4,2.7l0.1,3.3l2.3,0.8l1,2.3l0.4,0.1l2.9-2.4
		l-0.6-1.5l3.3-1.5l-2.5-3.9l1.6-2l12.9-2l1.7-1.5l8.6-2.2l3.1-2.5l6.2,1.3l1.1,6.1l3.6-1.4l4.4,2l-0.3,3.2l3.3-0.3l8.6-5.5
		l-1.3,1.8l4.4,4.5l7.7,14.2l1.8-2.9l4.7,3.2l4.9-1.4l1.9,1l1.7,3.1l2.4,1l1.5,2.3l4.4-0.7l1.8,3.2l1.3-0.4l3.6-0.9l6.6-4.6l5.2-2.5
		l3,1.7l3.6,0.1l2.3,2.5l3.4,0.2l5,1.3l3.4-3.7l-1.4-3.2l3.6-5.7l3.9,2.3l3.1,0.6l4.1,1.4l0.6,4.1l4.9,2.3l3.3-1l4.4-0.7l3.5,0.7
		l3.4,2.6l2.1,2.7l3.2,0l4.3,0.9l3.2-1.3l4.5-0.9l5-3.8l2.1,0.6l1.8,1.8l4.1-0.4l4.1,2l4.9-3.4l0-2.4l3.1-5.8l1.9-1.8l0-3.1
		l-1.9-1.3l2.9-2.8l4.3-1l4.6-0.2l5.2,1.7l3,2.1l2.1,5.7l1.3,2.4l1.2,3.4l1.3,5.3l6,1.7l4.1,3.7l1.4,4.9h5.2l3-2l5.7-1.5l-1.8,4.6
		l-1.3,1.8l-1.2,5.5l-2.3,4.8l-4.2-0.9l-3,1.7l0.9,4.1l-0.5,5.6l-1.8,0.1l0,2.4l0.5,0.8l0.5-1.5l4.6-3.4l2.2,2.3l2.2-0.1l4.6-2.8
		l2.2-2.8l4.6-5.6l4.7-5.7l1.2-3.5l5.2-7.4l1.5-8.4l0.3-6.5l2.7-5.5l-0.1-4.8l-5-6.4l-3.8-0.4l-2.2,2.9l-3.3-1.3l-1.7-3.7l-5.4-0.7
		l13.2-14.5l11.1-12.7l11.3-2l10.5,1.2l4.3-3.3l5.4,1l-0.2,4.9l5.3-0.7l7.7-1.7l-2.9-4.2l8.6-11.7l8.9-2.5l2.8,8.8l8.7-7.8l2.1-6
		l4.2-0.6l-2.8,10.3l-6.2,5.6l-5.9,7l-6.1,8.3l-5.4,1.4l-0.2,3l-2.9,3.8l-1.7,8.5l1.9,13.1l1.5,8.2l1.3,3.8l5-5.1l1-5.7l5.1-1.4
		l1.2-6.6l6-3l-1.4-2.6l1.5-5.1l3.2-0.2l0.5-9.2l-3.9-1.4l-0.1-2.6l4.1-6.4l1.1-4.5l4.6,0.9l3.3-2.9l1.6,2.6l9-5.4l4.9,4.8l1.3-3.1
		l5-4.3l5.3-5l3.1-0.8l9.6-5.5l6.4,1.6l0.9-2l-0.4-3.1l-1.6-2l-2-6.4l-3.1-4.2l4.5,0.6l4.4-3.6l0,0l1.9-3.5l-1.5-3.9l4.1-2l-0.7,3.1
		l1.9,2.9l3.9-1.1l3.5,1.3l0.8,3.6l4.6,2.4l2.6,2.8l3.2,0.2l1.4-1.7l0.1-7.9l5.6-0.9l3.4-3.7L1251.8,283z M1102,402.2l-3.5-9.4
		l-1.4-5.5l0.1-5.5l-1.2-5.5l-0.9-3.9l-1.5,0.8l1.4,2.7l-3.2,2.7l-0.3,7.7l2,5.4l-0.1,7.2l-0.8,4l0.4,5.6l-0.4,4.9l0.6,4.2l2.3-3.8
		l2.6,3l0.1-3.5l-3.4-5.2l2.1-7.5L1102,402.2z"/>
	<path id="RW" class="st0" d="M708.6,599.1l1.4,1.9l-0.2,2l-1,0.4l-1.8-0.2l-1.1,1.9l-2.1-0.3l0.3-1.9l0.5-0.3l0.1-2l1-1l0.8,0.4
		L708.6,599.1z"/>
	<path id="SA" class="st0" d="M751.2,538.5l-0.4-1.5l-1-1.1l-0.3-1.4l-1.8-1.3l-1.8-3l-1-3l-2.4-2.5l-1.5-0.6l-2.3-3.5l-0.4-2.6
		l0.1-2.2l-2-4.1l-1.6-1.5l-1.9-0.8l-1.1-2.2l0.2-0.8l-1-2l-1-0.8l-1.3-2.9l-2.1-3.1l-1.8-2.7l-1.7,0l0.5-2.1l0.2-1.4l0.4-1.6
		l3.8,0.6l1.5-1.2l0.8-1.4l2.6-0.5l0.6-1.3l1.1-0.7l-3.4-4l6.9-2l0.6-0.6l4.2,1.1l5.1,2.8l9.7,8l6.4,0.3l3.1,0.4l0.9,1.8l2.4-0.1
		l1.3,3.4l1.7,0.9l0.6,1.4l2.3,1.6l0.2,1.6l-0.3,1.3l0.4,1.3l1,1.1l0.5,1.2l0.5,0.9l1,0.7l1-0.3l0.6,1.4l0.1,0.9l1.3,3.8l10.3,1.9
		l0.7-0.8l1.6,2.6l-2.3,7.3l-10.3,3.6l-9.9,1.4l-3.2,1.6l-2.5,3.8l-1.6,0.6l-0.9-1.2l-1.3,0.2l-3.3-0.4l-0.6-0.4l-4,0.1l-0.9,0.3
		l-1.4-0.9l-0.9,1.8l0.4,1.5L751.2,538.5z"/>
	<path id="SB" class="st0" d="M1162.1,631.3l1,1.2l-2.4,0l-1.3-2.1l2,0.8L1162.1,631.3z M1157.8,629.1l-1.3,0.1l-2.1-0.4l-0.7-0.5
		l0.2-1.4l2.3,0.5l1.1,0.7L1157.8,629.1z M1160.6,628.2l-0.5,0.6l-2.6-3l-0.7-2.1h1.2l1.2,2.8L1160.6,628.2z M1154.4,623.8l0.1,0.7
		l-2.7-1.5l-1.9-1.2l-1.3-1.2l0.5-0.4l1.6,0.8l2.8,1.6L1154.4,623.8z M1146.4,620.4l-0.7,0.2l-1.5-0.8l-1.4-1.4l0.2-0.6l2,1.4
		L1146.4,620.4z"/>
	<path id="SD" class="st0" d="M720.8,562.7l-0.5-0.1l0.1-1.7l-0.4-1.2l-1.8-1.4l-0.4-2.5l0.4-2.6l-1.6-0.2l-0.2,0.8l-2.1,0.2l0.8,1
		l0.3,2.1l-1.9,1.9l-1.7,2.5l-1.8,0.4l-2.9-2l-1.3,0.7l-0.4,1l-1.8,0.6l-0.1,0.7h-3.4l-0.5-0.7l-2.5-0.1l-1.2,0.6l-0.9-0.3l-1.8-2
		l-0.6-0.9l-2.5,0.5l-0.9,1.6l-0.9,3.1l-1.2,0.6l-1.1,0.4l-0.3-0.2l-1.2-1l-0.2-1.1l0.6-1.4v-1.4l-2-2.2l-0.4-1.5l0-0.8l-1.3-1l0-2
		l-0.7-1.3l-1.2,0.2l0.3-1.3l0.9-1.5l-0.4-1.4l1.1-1.1l-0.7-0.8l0.9-2.2l1.6-2.6l3,0.2l-0.2-14.3l0-1.5l4,0V518h13.8h13.4h13.7
		l1.1,3.6l-0.7,0.7l0.5,3.8l1.3,4.3l1.3,0.9l1.9,1.3l-1.7,2l-2.5,0.6l-1.1,1.1l-0.3,2.4l-1.5,5.2l0.4,1.4l-0.6,3l-1.4,3.5l-2.1,1.7
		l-1.5,2.7l-0.4,1.4l-1.6,1l-1,3.6V562.7z"/>
	<path id="SE" class="st0" d="M680.2,293.2l-3.3,5.8l0.5,4.9l-5.5,6.3l-6.6,6.6l-2.5,10.3l2.5,5l3.3,3.9l-3.2,7.7l-3.6,1.5
		l-1.3,10.9l-1.9,5.8l-4.2-0.6l-1.9,4.9l-4,0.3l-1.1-5.8l-2.9-7.1l-2.6-9.2l1.5-3.9l2.9-4.7l1.1-8.3l-2.2-3.7l-0.2-9.9l2.2-7.3
		l3.4,0.1l1.2-3.1l-1.2-2.7l5.3-11.7l3.5-9.7l2.3-6.4l3.3,0l0.9-5.2l6.5,1.5l0.5-6.2l2.1-0.4l4.6,4.7l5.4,6.3l0.1,13.7l1.2,3.3
		L680.2,293.2z"/>
	<path id="SI" class="st0" d="M651.4,414.8l2.9,0.4l1.7-1.1l3-0.1l0.6-0.8l0.6,0.1l0.7,1.7l-2.7,1.3l-0.3,2l-1.2,0.5l0,1.4l-1.3-0.1
		l-1.2-0.8l-0.6,0.8l-2.4-0.2l0.8-0.4l-0.8-2.1L651.4,414.8z"/>
	<path id="SJ" class="st0" d="M689,154.4l-7.7,6.6l-6.1-3.7l2.4-4.2l-2.1-5.3l7.1-3.4l1.4,6.4L689,154.4z M666.7,121.6l11.3,13.9
		l-8.7,7l-1.9,12.4l-3,3.1l-1.6,12.9l-4.2,0.6l-7.4-9.4l3.1-5.7l-5.2-4.7l-6.7-14.5l-2.7-14.5l9.4-7l1.9,6.8l4.9-0.3l1.3-6.7
		l5.1-0.7L666.7,121.6z M691.5,107.5l6.8,7.1l-5.1,10.5l-10,2.2l-10.2-3.1l-0.6-5.3l-4.9-0.3l-3.8-9.2l10.6-5.8l5,5l3.5-6.2
		L691.5,107.5z"/>
	<path id="SK" class="st0" d="M668.8,399.5l0.2,0.3l1.4-0.7l1.7,1.9l2-1.1l1.6,0.5l2.5-0.7l3.3,2l-0.9,1.4l-0.7,2.1l-0.7,0.5
		l-3.7-1.6l-1.1,0.3l-0.8,1.2l-1.6,0.6l-0.4-0.3l-1.7,0.8l-1.4,0.2l-0.3,1l-2.9,0.6l-1.3-0.6l-1.8-1.3l-0.3-1.8l0.3-0.7l0.5-1.1
		l1.5,0.1l1.2-0.5l0.1-0.5l0.7-0.3l0.2-1.2l0.8-0.2l0.5-0.9L668.8,399.5z"/>
	<path id="SL" class="st0" d="M564.4,571.9l-0.9-0.3l-2.5-1.4l-1.8-1.8l-0.6-1.3l-0.4-2.6l1.8-1.5l0.4-1l0.6-0.7l1-0.1l0.8-0.6h2.8
		l1,1.2l0.7,1.5l-0.1,1l0.6,0.9l0,1.3l0.9-0.2l-1.6,1.6l-1.5,1.9l-0.2,1L564.4,571.9z"/>
	<path id="SN" class="st0" d="M546.3,548.3l-1.4-2.8l-1.7-1.2l1.5-0.7l1.7-2.5l0.8-1.8l1.2-1.1l1.7,0.3l1.7-0.8l1.9,0l1.6,1l2.3,0.9
		l2.1,2.6l2.3,2.4l0.2,2.2l0.7,2l1.3,1l0.3,1.3l-0.2,1.1l-0.5,0.2l-1.9-0.3l-0.3,0.4l-0.8,0.1l-2.5-0.9l-1.7,0l-6.4-0.1l-0.9,0.4
		l-1.1-0.1l-1.8,0.6l-0.6-2.7l3.1,0.1l0.8-0.5l0.6,0l1.3-0.8l1.5,0.7l1.5,0.1l1.5-0.8l-0.7-1l-1.1,0.6l-1.1,0l-1.3-0.9l-1.1,0.1
		l-0.8,0.8L546.3,548.3z"/>
	<path id="SO" class="st0" d="M779.9,554.7l-0.1-1l-1.3,0l-1.6,1.2l-1.8,0.3l-1.6,0.5l-1.1,0.1l-2,0.1l-1.2,0.6l-1.7,0.2l-3,1.1
		l-3.7,0.4l-3.3,0.9l-1.7,0l-1.5-1.5l-0.7-1.4l-1.1-0.6l-1.3,1.9l-0.7,1.2l1.3,1.9l1.3,1.7l1.3,1.2l11.3,4.1l2.9,0l-9.7,10.3
		l-4.5,0.1l-3.1,2.4l-2.2,0.1l-0.9,1.1l-3,3.9l0,12.5l2,2.8l0.8-0.8l0.8-1.8l3.8-4.2l3.2-2.6l5.2-3.4l3.4-2.8l4.1-4.7l2.9-3.8l3-5
		l2.1-4.4l1.7-3.9l1-3.7l0.7-1.2l0-1.8L779.9,554.7z"/>
	<path id="SR" class="st0" d="M407,574.7l4.1,0.7l0.4-0.6l2.8-0.2l3.7,0.9l-1.8,3l0.3,2.3l1.4,2l-0.6,1.5l-0.3,1.6l-0.9,1.4l-2-0.7
		l-1.6,0.4l-1.4-0.3l-0.3,1l0.6,0.7L411,589l-1.9-0.3l-2.1-3l-0.5-1.9l-1.1,0l-1.5-2.5l0.6-1.8l-0.2-0.8l2.1-0.9L407,574.7z"/>
	<path id="SS" class="st0" d="M720.8,562.7l0,2.7l-0.5,1.1l-1.8,0.1l-1.2,2l2.1,0.2l1.7,1.7l0.6,1.4l1.6,0.8l2,3.7l-2.3,2.3l-2.1,2
		l-2.1,1.6h-2.4l-2.8,0.8l-2.2-0.8l-1.4,0.9l-3-2.3l-0.8-1.5l-1.9,0.7l-1.6-0.2l-0.9,0.6l-1.5-0.4l-2.1-2.8l-0.6-1.1l-2.6-1.4
		l-0.9-2.1l-1.4-1.5l-2.3-1.8l0-1.1l-1.9-1.4l-2.3-1.3l1.1-0.4l1.2-0.6l0.9-3.1l0.9-1.6l2.5-0.5l0.6,0.9l1.8,2l0.9,0.3l1.2-0.6
		l2.5,0.1l0.5,0.7h3.4l0.1-0.7l1.8-0.6l0.4-1l1.3-0.7l2.9,2l1.8-0.4l1.7-2.5l1.9-1.9l-0.3-2.1l-0.8-1l2.1-0.2l0.2-0.8l1.6,0.2
		l-0.4,2.6l0.4,2.5l1.8,1.4l0.4,1.2l-0.1,1.7L720.8,562.7z"/>
	<path id="SV" class="st0" d="M301.5,549l-0.4,0.8l-2,0l-1.2-0.3l-1.4-0.7l-1.9-0.2l-1-0.8l0.1-0.5l1.2-0.9l0.6-0.4l-0.2-0.4
		l0.8-0.2l1,0.3l0.7,0.7l1,0.6l0.1,0.5l1.5-0.4l0.7,0.2l0.5,0.4L301.5,549z"/>
	<path id="SY" class="st0" d="M737.4,473.9l-6.7,4.3l-3.8-1.6l-0.1,0l0.5-0.6l0-1.7l0.8-2.2l1.9-1.6l-0.6-1.6l-1.5-0.2l-0.3-3.2
		l0.8-1.7l0.9-0.9l0.9-0.9l0.2-2.4l1.1,0.8l3.8-1.2l1.8,0.8l2.8,0l4-1.6l1.9,0.1l3.9-0.7l-1.8,2.7l-1.9,1.1l0.3,3.1l-1.3,5.1
		L737.4,473.9z"/>
	<path id="SZ" class="st0" d="M714.3,690.2l-0.7,1.7l-2,0.4l-2.1-2.1l0-1.3l0.9-1.4l0.3-1.1l1-0.3l1.7,0.7l0.5,1.7L714.3,690.2z"/>
	<path id="TD" class="st0" d="M653.8,550.8l0.3-1.6l-2.2-0.1l0-2.3l-1.4-1.3l1.5-4.7l4.4-3.4l0.2-4.7l1.3-7.3l0.7-1.6l-1.4-1.2
		l-0.1-1.2l-1.3-1l-0.8-5.7l3.5-2l13.7,7.1l13.7,7l0.2,14.3l-3-0.2l-1.6,2.6l-0.9,2.2l0.7,0.8l-1.1,1.1l0.4,1.4l-0.9,1.5l-0.3,1.3
		l1.2-0.2l0.7,1.3l0,2l1.3,1l0,0.8l-2.2,0.6l-1.8,1.4l-2.5,3.8l-3.2,1.6l-3.3-0.2l-1,0.3l0.3,1.2l-1.8,1.2l-1.5,1.3l-4.3,1.3
		l-0.9-0.8l-0.6-0.1l-0.6,0.9l-2.9,0.3l0.5-0.9l-1.1-2.4l-0.5-1.4l-1.5-0.6l-2-2l0.7-1.6l1.6,0.3l1-0.2l1.9,0l-1.9-3.2l0.1-2.3
		l-0.2-2.3L653.8,550.8z"/>
	<path id="TF" class="st0" d="M841.2,786.4l2.2,1.6l3.3,0.7l0.1,1l-1,2.4l-5.3,0.3l-0.1-2.8l0.5-2.2L841.2,786.4z"/>
	<path id="TG" class="st0" d="M610.3,574.1l-2.8,0.7l-0.8-1.2l-0.9-2.2l-0.3-1.7l0.8-3.1l-0.9-1.3l-0.3-2.7v-2.5l-1.4-1.8l0.3-1.1
		l3,0.1l-0.4,1.8l1,1l1.2,1.2l0.1,1.7l0.7,0.7l-0.2,7.9L610.3,574.1z"/>
	<path id="TH" class="st0" d="M957.1,553.2l-3.1-1.6l-3,0.1l0.5-2.8l-3,0l-0.3,3.9l-1.8,5.1l-1.1,3.1l0.2,2.5l2.2,0.1l1.4,3.2l0.6,3
		l1.9,2l2.1,0.4l1.8,1.8l-1.1,1.4l-2.3,0.4l-0.3-1.8l-2.8-1.5l-0.6,0.6l-1.4-1.3l-0.6-1.7l-1.8-1.9l-1.7-1.6l-0.6,2l-0.6-1.9
		l0.4-2.2l1-3.3l1.7-3.6l1.9-3.3l-1.3-3.2l0.1-1.6l-0.4-2l-2.3-2.8l-0.8-1.8l1.2-0.6l1.2-3.1l-1.4-2.4l-2.2-2.6l-1.7-3.2l1.4-0.6
		l1.6-3.9l2.4-0.2l2-1.6l2-0.8l1.5,1.1l0.2,2.2l2.3,0.2l-0.8,3.8l0.1,3.2l3.6-2.1l1,0.6l2-0.1l0.7-1.2l2.6,0.2l2.6,2.9l0.2,3.5
		l2.8,3.1l-0.2,3l-1.1,1.6l-3.2-0.5l-4.4,0.7l-2.2,2.9L957.1,553.2z"/>
	<path id="TJ" class="st0" d="M848.4,444.4l-1.3,1.4l-3.7-0.7l-0.3,2.6l3.7-0.3l4.3,1.4l6.5-0.7l0.9,4.1l1.1-0.4l2.1,1l-0.1,1.7
		l0.5,2.5h-3.6l-2.4-0.3l-2.1,1.9l-1.5,0.4l-1.2,0.9l-1.4-1.4l0.3-3.6l-1-0.2l0.4-1.3l-1.8-1l-1.5,1.5l-0.4,1.8l-0.5,0.6l-2.1-0.1
		l-1.1,2l-1.2-0.8l-2.5,1.4l-1-0.5l1.9-4.4l-0.7-3.3l-2.5-1.1l0.9-1.9l2.9,0.2l1.6-2.5l1.1-2.9l4.6-1.1l-0.7,2.1l0.5,1.2
		L848.4,444.4z"/>
	<path id="TL" class="st0" d="M1034.2,625.7l0.4-0.8l3-0.8l2.4-0.1l1.1-0.4l1.3,0.4l-1.3,0.9l-3.6,1.5l-2.9,1l-0.1-1.1L1034.2,625.7
		z"/>
	<path id="TM" class="st0" d="M814.6,464.4l-0.3-3.6l-2.6-0.1l-3.9-3.8l-2.8-0.5l-3.8-2.2l-2.5-0.4l-1.5,0.8l-2.3-0.1l-2.4,2.5
		l-3,0.8l-0.6-3.1l0.5-4.6l-2.7-1.5l0.9-3.1l-2.3-0.3l0.8-3.8l3.2,1.1l3-1.5l-2.5-2.7l-1-2.6l-2.8,1.2l-0.4,3.3l-1.1-3l1.5-1.5
		l3.9-1l2.3,1.3l2.4,3.6l1.8-0.2l3.9-0.1l-0.6-2.3l3-1.6l2.9-2.7l4.6,2.5l0.4,3.7l1.3,0.9l3.7-0.2l1.2,0.8l1.7,4.7l3.9,3.1l2.2,2.1
		l3.6,2.1l4.6,1.9l-0.1,2.7l-1-0.1l-1.6-1.2l-0.5,1.5l-2.9,0.8l-0.7,3.4l-1.9,1.3l-2.7,0.6l-0.7,1.9l-2.6,0.6L814.6,464.4z"/>
	<path id="TN" class="st0" d="M636.5,486.3l-1.5-7.2l-2.1-1.6l0-1l-2.8-2.4l-0.3-3.1l2.1-2.3l0.8-3.5l-0.6-4l0.7-2.2l3.8-1.7
		l2.4,0.5l-0.1,2.2l2.9-1.6l0.2,0.8l-1.7,2.1l0,2l1.2,1l-0.5,3.6l-2.3,2.1l0.6,2.2l1.8,0.1l0.9,1.9l1.3,0.6l-0.2,3.1l-1.7,1.2
		l-1.1,1.3l-2.4,1.5l0.4,1.7l-0.3,1.7L636.5,486.3z"/>
	<path id="TR" class="st0" d="M731,439.5l4.9,1.8l4-0.7l3,0.4l4.1-2.4l3.7-0.2l3.3,2.2l0.6,1.6l-0.3,2.2l2.6,1.1l1.3,1.3l-2.4,1.3
		l1.1,5l-0.7,1.3l1.9,3.5l-1.6,0.7l-1.2-1.1l-4-0.6l-1.5,0.7l-3.9,0.7l-1.8-0.1l-4,1.6l-2.8,0l-1.8-0.8l-3.8,1.2l-1.1-0.8l-0.2,2.4
		l-0.9,0.9l-0.9,0.9l-1.3-1.9l1.3-1.6l-2.1,0.4l-2.9-1L721,462l-5.2,0.5l-2.8-2.3l-3.7-0.1l-0.8,1.8l-2.4,0.5l-3.3-2.3l-3.8,0.1
		l-2-4.3l-2.5-2.4l1.7-3.4l-2.2-2.1l3.8-4.3l5.3-0.2l1.4-3.5l6.6,0.6l4.1-3l4-1.3l5.7-0.1L731,439.5z M697.5,442.4l-2.9,2.4
		l-1.1-2.1l0-0.9l0.8-0.5l1.1-2.9l-1.7-1.2l3.5-1.4l3,0.6l0.4,1.8l3,1.5l-0.6,1.1L699,441L697.5,442.4z"/>
	<path id="TT" class="st0" d="M391.4,558.2l2-0.5l0.7,0.1l-0.1,2.6l-2.9,0.4l-0.6-0.3l1-1L391.4,558.2z"/>
	<path id="TW" class="st0" d="M1023.2,509.1l-2.1,6l-1.5,3.1l-1.8-3.1l-0.4-2.8l2-3.7l2.8-2.9l1.6,1.1L1023.2,509.1z"/>
	<path id="TZ" class="st0" d="M720.6,598.4l0.6,0.4l12.5,7l0.2,2l4.9,3.4l-1.6,4.2l0.2,1.9l2.2,1.2l0.1,0.9l-0.9,2.1l0.2,1l-0.2,1.7
		l1.2,2.2l1.4,3.4l1.2,0.8l-2.7,2l-3.8,1.3l-2.1,0l-1.2,1l-2.4,0.1l-0.9,0.4l-4.1-1l-2.6,0.3l-1-4.7l-1.2-1.6l-0.7-1l-3.4-0.6l-2-1
		l-2.2-0.6l-1.4-0.6l-1.4-0.9l-1.8-4.4l-2-1.9l-0.7-2l0.3-1.8l-0.6-3.2l1.4-0.2l1.2-1.2l1.3-1.8l0.8-0.7l0-1.1l-0.7-0.8l-0.2-1.3
		l1-0.4l0.2-2l-1.4-1.9l1.2-0.4l3.8,0L720.6,598.4z"/>
	<path id="UA" class="st0" d="M713.3,385.3l1.3,0.2l0.9-1.3l1,0.3l3.6-0.5l2.2,3.2l-0.9,1.1l0.3,1.7l2.8,0.3l1.2,2.4l-0.1,1.1
		l4.4,1.9l2.6-0.8l2.1,2.5l2,0l5.1,1.7l0,1.6l-1.4,2.7l0.7,2.9l-0.5,1.7l-3.3,0.4l-1.8,1.4l-0.1,2.2l-2.8,0.4l-2.3,1.6l-3.2,0.3
		l-3,1.9l-1.6,1.3l1.8,1.8l1.7,1.2l3.5-0.3l-0.7,1.7l-3.8,0.8l-4.7,2.8l-1.9-1l0.7-2.3l-3.8-1.4l0.6-0.9l3.9-2l-0.5-1l-0.6,0.5
		l-0.5-0.3l-5.4-1.2l-0.2-1.8l-3.2,0.6l-1.3,2.7l-2.7,3.6l-1.6-0.8l-1.6,0.8l-1.5-0.9l0.9-0.5l0.6-1.7l0.9-1.6l-0.2-0.9l0.7-0.4
		l0.3,0.7l2,0.1l0.9-0.4l-0.6-0.5l0.2-0.7l-1.2-1.3l-0.5-2.1l-1.2-0.8l0.2-1.7l-1.6-1.4l-1.4-0.2l-2.5-1.6l-2.3,0.5l-0.8,0.8l-1.4,0
		l-0.9,1.2l-2.5,0.5l-1.2,0.8l-1.6-1.2l-2.2,0l-2.1-0.6l-1.5,1.1l-0.2-1.4l-1.9-1.4l0.7-2.1l0.9-1.3l0.8,0.3l-0.9-2.4l3.1-4.4
		l1.7-0.6l0.4-1.5l-1.7-4.8l1.6-0.2l1.9-1.5l2.7-0.1l3.5,0.4l3.8,1.3l2.7,0.1l1.3,0.8l1.3-1l0.9,1.3l3.1-0.3l1.4,0.5l0.2-2.8
		l1.1-1.2L713.3,385.3z"/>
	<path id="UG" class="st0" d="M713.6,598.7l-3.8,0l-1.2,0.4l-2,1.1l-0.8-0.4l0-2.6l0.8-1.3l0.2-2.8l0.7-1.6l1.3-1.8l1.3-0.9l1.1-1.2
		l-1.4-0.5l0.2-4l1.4-0.9l2.2,0.8l2.8-0.8h2.4l2.1-1.6l1.6,2.4l0.4,1.7l1.5,3.9l-1.2,2.5l-1.7,2.3l-1,1.4l0,3.6L713.6,598.7z"/>
	<path id="US" class="st0" d="M154.3,369.7L154.3,369.7l-1.9-2.2l-3-1.9l-1-5.4l-4.4-5.1l-1.8-6.1l-3.3-0.4l-5.5-0.2l-4-1.9
		l-7.1-6.9l-3.3-1.3l-6-2.4l-4.8,0.6l-6.8-3.2l-4.1-3l-3.8,1.5l0.7,4.8l-1.9,0.4l-4,1.4l-3,2.3l-3.8,1.4l-0.5-4l1.5-6.8l3.7-2.2
		l-0.9-1.8l-4.4,4l-2.3,4.6l-5,4.9l2.5,3.3l-3.3,4.7l-3.7,2.7l-3.5,1.9l-0.8,2.8l-5.4,3.2l-1.1,2.9l-4,2.6l-2.4-0.5l-3.2,1.7l-3.5,2
		l-2.9,2l-5.9,1.7l-0.5-1l3.8-2.8l3.4-1.8l3.7-3.3l4.3-0.7l1.7-2.5l4.8-3.7l0.8-1.3l2.5-2.2l0.6-4.9l1.8-3.9l-4,2l-1.1-1.1l-1.9,2.4
		l-2.2-3.4l-0.9,2.4l-1.3-3.3l-3.4,2.7h-2.1l-0.3-4l0.6-2.5l-2.2-2.4l-4.5,1.3l-2.9-3.2l-2.4-1.7l0-4l-2.7-3.1l1.3-4.2l2.8-4.1
		l1.2-3.9l2.8-0.6l2.4,1.2l2.8-3.7l2.5,0.7l2.6-2.4l-0.6-3.6l-1.9-1.4l2.6-3.1l-2.1,0.1l-3.7,1.8l-1,1.8l-2.7-1.8l-4.9,0.9l-5-1.9
		l-1.4-3.3l-4.4-4.8l4.8-3.5l7.7-4.2h2.8l-0.5,4.3l7.3-0.3l-2.8-5.3l-4.2-3.3l-2.4-4.5l-3.3-3.9l-4.7-2.9l1.9-4.9l6.1-0.3l4.3-4.4
		l0.8-4.8l3.5-4.8l3.4-1.2l6.5-4.6l3.2,0.7l5.3-5.7l5.2,2.2l2.5,4.8l1.5-2l5.8,0.6l-0.2,2.4l5.3,1.8l3.5-1l7.3,3.2l6.6,1l2.7,1.3
		l4.6-1.6l5.2,3l3.7,1.4l0,34l0,43.5l3.4,0.2l3.4,1.9l2.4,3l3.1,4.4l3.4-3.7l3.5-2.2l1.8,3.5l2.3,2.7l3.2,3l2.1,4.7l3.5,7.2l5.9,3.9
		l0.1,3.8L154.3,369.7z M370.4,412l-1.5-1.5l-2.3,0.9l-1.1-1.3l-2.6,3.8l-1.1,3.9l-1.2,2.2l-1.5,0.8l-1.1,0.2l-0.3,1.2h-6.3l-5.2,0
		l-1.6,0.9l-3.5,3.4l0.4,0.7l0.2,1.8l-2.6,1.6l-2.8-0.4l-2.7-0.2l-1.6,0.5l0.3,1.4l0,0l0.1,0.5l-3,2.8l-2.6,1.3l-1.8,0.6l-2,1.3
		l-2.5,0.6l-1.7-0.2l-2.1-0.9l1.2-1.8l0.8-1.6l1.6-2.6l-0.2-1.9l-0.6-2.8l-1.3-0.5l-2.1,2.1l-0.7,0l-0.2-1.2l1.9-1.9l0.3-2.2
		l-0.3-2.2l-2.6-1.9l-2.9-1l-0.5,1.9l-0.8,0.5l-0.6,2.4l-0.3-1.6l-1.4,1.2l-0.9,1.6l-0.9,2.4l-0.2,2l1.1,2.9l-0.1,3.1l-1.4,2.3
		l-0.7,0.6l-0.9,0.5l-1.2,0l-0.3-0.3l-0.9-2.4l0-1.2l0.1-1.2l-0.4-2.3l0.6-2.7l0.8-3.3l1.8-3.7l-0.5,0l-2.5,3.1l-0.5-0.6l1.3-1.7
		l2-3.2l2.3-0.4l2.7-1l2.7,0.5l0.1,0l3-0.4l-1.7-2l-0.9-0.2l-1.1-0.2l-0.7-1.4l-3.4,0.4l-3.1,1.1l-2.4-1.9l-1.9-0.6l1.1-2.7
		l-3.1,1.7l-2.8,1.6l-2.7,1.3l-2.1-1.7l-3.5,1l0-0.7l2.3-2.1l2.4-2l3.5-1.7l-4.2-1.3l-2.8,0.7l-3.3-1.6l-3.5-0.8l-2.4-0.3l-1.1-0.9
		l-0.6-2.9l-1.2,0l0,2H269h-11.8h-11.7h-10.3h-10.3h-10.2h-10.5h-3.4h-10.2h-9.8l1.2,4.3l0.6,4.2l-0.8,1.3l-1.8-4.8l-5-1.7l-0.4,1
		l1,2.4l1.1,4.3l0.6,6.7l-0.4,4.4l-0.4,4.3l-1.3,4.4l1.1,3.6l0.1,3.9l-0.7,3.7l1.8,2.4l0.5,3.6l2.7,3.7l1.5,1.4l-0.1,1l2.9,6
		l3.3,4.2l0.4,2.3l0.9,0.7l3.2,0.4l1.2,1.1l1.9,0.2l0.4,1.2l1.6,0.5l2.2,2.4l0.6,2.1l3.9-0.3l4.4-0.4l-0.3,0.8l5.2,2l7.9,2.8l6.9,0
		h2.7l0-1.7h6l1.2,1.4l1.8,1.3l2,1.8l1.1,2.1l0.9,2.2l1.8,1.2l2.9,1.2l2.2-3.1l2.8-0.1l2.4,1.6l1.7,2.7l1.2,2.3l2,2.2l0.8,2.7l1,1.8
		l2.7,1.2l2.4,0.8l1.3-0.1l-0.6-1.3l-0.2-1.8l0-2.7l0.8-1.7l1.9-1.8l3.4-1.7l3.1-2.9l2.9-0.9l2.1-0.3l2.5,0.9l3-0.5l2.6,2.1l2.5,0.1
		l1.3-0.7l1.3,0.6l0.6-0.5l-0.7-0.8l0.1-1.6l-0.6-1.1l1.4-0.6l2.6-0.3l3.1,0.4l3.9-0.5l2.2,1l1.7,1.8l0.6,0.2l3.5-1.8l1.3,0.6
		l2.7,3.3l1,2.1l-0.7,2.6l0.5,1.5l1.6,3l1.8,3.3l1.3,0.9l0.5,1.7l1.7,0.5l1-0.5l0.9-2.3l0.1-1.5l0.1-2.6l-1.6-4.5l0-1.7l-1.5-2.8
		l-1.2-3.4l-0.6-2.8l0.5-2.8l1.6-2.4l1.9-1.9l3.8-2.7l0.5-1.4l1.7-1.5l1.7-0.3l2.3-2.4l3.6-1.2l2.2-3.1l-0.5-4.3l-0.4-1.5l-1-0.3
		l-0.1-4.1l-2.4-1.4l2.3,0.7l-0.7-2.8l0.7-1.9l0.4,3.7l1.8,1.7l-1.1,3l0.3,0.2l1.9-3.5l1.1-1.7l0-1.7l-0.9-0.8l-0.7-2.4l1.1,1.1
		l0.8,0.2l0.3,1.1l2.5-3.4l0.7-3.2l-1-0.2l1-1.2l-0.1,0.6l2.2,0l4.8-1.4l-1-0.9l-5.1,0.9l2.9-1.3l2-0.2l1.5-0.2l2.5-0.8l1.7,0.1
		l2.3-0.7l0.3-1.3l-1-1l0.4,1.7l-1.4-0.1l-1.1-2.4l0-2.5l0.6-1.1l1.8-2.8l3.6-1.4l3.5-1.6l3.7-2.3l-0.6-1.6l-2.2-2.8L370.4,412z
		 M76.2,350l-1.8,1l-3.1,2.3l0.5,3l1.8,1.6l3.4-2.4l3-3l-1.5-2L76.2,350z M20.1,315l2.5-1.5l0.3-0.8l-2.8-0.8V315z M30.6,333.8
		l-3.4,1.2l2.1,1.9l2.3,1.3l2.1-1.1l-0.3-2.6L30.6,333.8z M150.1,373.7l-3.3,0.5l-1.6-0.8l-0.2,1.9l0.6,2.5l1.7,1.8l1.3,2.6l2.1,2.6
		l1.4,0l-3-4.5L150.1,373.7z M65.7,522l-1.2-0.3l-0.3,0.3l0,0.2l0.4,0.3l0.6,0.8l1.2-0.3l0.3-0.4L65.7,522z M62.1,521.3l1.8,0.1
		L64,521l-1.7-0.2L62.1,521.3z M69.3,525.4l-0.6-0.3l-1.3-0.6l-0.3-0.1l-0.2,0.3l0.2,0.7l-0.6,0.6l-0.2,0.4l0.6,1.3l-0.1,1l0.9,0.5
		l0.5-0.6l1.1-0.6l1.3-0.8l0.1-0.2l-0.9-1.3L69.3,525.4z M59.6,519l-0.9,0.5l0.1,0.1l0.4,0.8l1.2,0.1l0.2,0l0.2-0.2l-1-1.2L59.6,519
		z M54.2,517.1l-0.5,0.4l-0.2,0.3l1.2,0.7l0.4-0.4l-0.1-0.9L54.2,517.1z"/>
	<path id="UY" class="st0" d="M405.4,703.8l2.2-0.4l3.5,3.1l1.3-0.1l3.6,2.6l2.7,2.2l2,2.8l-1.5,1.9l1,2.3l-1.5,2.6l-3.9,2.3
		l-2.5-0.8l-1.9,0.5l-3.2-1.8l-2.3,0.1l-2.1-2.3l0.3-2.7l0.7-0.9l0-4.1l0.9-4.1L405.4,703.8z"/>
	<path id="UZ" class="st0" d="M832.9,457.1l0.1-2.7l-4.6-1.9l-3.6-2.1l-2.2-2.1l-3.9-3.1l-1.7-4.7l-1.2-0.8l-3.7,0.2l-1.3-0.9
		l-0.4-3.7l-4.6-2.5l-2.9,2.7l-3,1.6l0.6,2.3l-3.9,0.1l-0.1-17.3l8.9-2.9l0.6,0.4l5.3,3.5l2.8,1.8l3.3,4.3l4-0.7l5.9-0.4l4.1,3.4
		l-0.3,4.7l1.7,0l0.7,3.8l4.4,0.1l0.9,2.1l1.3,0l1.5-3.3l4.5-3.2l2-0.9l1,0.5l-2.9,3l2.5,1.7l2.5-1.1l4.1,2.4l-4.4,3.2l-2.6-0.4
		l-1.4,0.1l-0.5-1.2l0.7-2.1l-4.6,1.1l-1.1,2.9l-1.6,2.5l-2.9-0.2l-0.9,1.9l2.5,1.1l0.7,3.3l-1.9,4.4l-2.6-0.9L832.9,457.1z"/>
	<path id="VE" class="st0" d="M358.2,554.6l-0.1,0.8l-2,0.4l1.1,1.6l0,1.8l-1.5,2l1.3,2.8l1.5-0.2l0.8-2.5l-1.1-1.2l-0.2-2.6
		l4.3-1.4l-0.5-1.6l1.2-1.1l1.2,2.5l2.4,0.1l2.2,1.9l0.1,1.2l3.1,0l3.7-0.4l2,1.6l2.6,0.4l1.9-1.1l0-0.9l4.3-0.2l4.1,0l-2.9,1
		l1.2,1.6l2.8,0.3l2.6,1.7l0.6,2.8l1.8-0.1l1.3,0.8l-2.7,2l-0.3,1.3l1.2,1.3l-0.8,0.6l-2.1,0.6l0.1,1.6l-0.9,0.9l2.3,2.6l0.5,1
		l-1.3,1.3L390,581l-2.5,0.5l-1,0.8l-2.7-0.9l-2.6-0.4l-0.6,0.3l1.5,0.9l-0.1,2.3l0.5,2.2l2.9,0.3l0.2,0.7l-2.5,1l-0.4,1.4l-1.4,0.6
		l-2.6,0.8l-0.7,1.1l-2.7,0.2l-1.9-1.8l-1-3.4l-0.9-1.2l-1.2-0.7l1.7-1.7l-0.1-0.8l-1-1l-0.7-2.3l0.3-2.5l0.8-1.2l0.6-1.8l-1.2-0.6
		l-2,0.4l-2.5-0.2l-1.4,0.4l-2.4-3l-2-0.4l-4.4,0.3l-0.8-1.2l-0.8-0.3l-0.1-0.7l0.4-1.3l-0.3-1.4l-0.8-0.8l-0.4-1.6l-1.8-0.2l0.9-2
		l0.4-2.5l1-1.3l1.3-1l0.9-1.7L358.2,554.6z"/>
	<path id="VN" class="st0" d="M975.9,519.6l-4.6,3.1l-2.9,3.5l-0.8,2.5l2.6,3.8l3.2,4.7l3.1,2.2l2.1,2.9l1.6,6.5l-0.5,6.2l-2.9,2.3
		l-4,2.2l-2.8,2.9l-4.3,3.2l-1.2-2.2l1-2.3l-2.6-2l3-1.4l3.6-0.2l-1.5-2.1l5.8-2.7l0.4-4.2l-0.8-2.4l0.6-3.5l-0.9-2.5l-2.6-2.5
		l-2.2-3.2l-2.9-4.3l-4.1-2.2l1-1.3l2.2-0.9l-1.3-3.2l-4.2,0l-1.5-3.3l-2-2.9l1.8-0.9l2.7,0l3.4-0.4l2.9-2l1.7,1.4l3.2,0.7l-0.6,2.1
		l1.6,1.5L975.9,519.6z"/>
	<path id="VU" class="st0" d="M1181.9,652.3l-1.1,0.5l-1.2-1.6l0.1-1L1181.9,652.3z M1179.3,646.9l0.6,2.9l-0.9-0.4l-0.7,0.2l-0.5-1
		l-0.1-2.7L1179.3,646.9z"/>
	<path id="YE" class="st0" d="M786.7,537.4l-2.5,1l-0.7,1.6l-0.1,1.2l-3.4,1.5l-5.5,1.7l-3.1,2.5L770,547l-1-0.2l-2,1.5l-2.2,0.7
		l-2.9,0.2l-0.9,0.2l-0.7,0.9l-0.9,0.3l-0.5,0.9l-1.7-0.1l-1.1,0.5l-2.4-0.2l-0.9-2l0.1-1.9l-0.6-1l-0.7-2.6l-1-1.5l0.7-0.2
		l-0.4-1.6l0.4-0.7l-0.1-1.5l1.5-1.1l-0.4-1.5l0.9-1.8l1.4,0.9l0.9-0.3l4-0.1l0.6,0.4l3.3,0.4l1.3-0.2l0.9,1.2l1.6-0.6l2.5-3.8
		l3.2-1.6l9.9-1.4l2.7,5.9L786.7,537.4z"/>
	<path id="ZA" class="st0" d="M712.4,700l-0.7,0.6l-1.5,2l-1,2l-1.9,2.9l-3.9,4.2L701,714l-2.6,1.8l-3.6,1.6l-1.8,0.2l-0.4,1.1
		l-2.1-0.6l-1.7,0.8l-3.7-0.8l-2.1,0.5l-1.4-0.2l-3.6,1.6l-2.9,0.7l-2.1,1.6l-1.6,0.1l-1.5-1.5l-1.2-0.1l-1.5-1.8l-0.2,0.6l-0.5-1.1
		l0-2.4l-1.1-2.7l1.1-0.7l-0.1-3.1l-2.3-3.7l-1.7-3.4v0l-2.5-5.1l1.6-1.9l1.4,1.1l0.6,1.7l1.5,0.3l2.2,0.7l1.8-0.3l3.1-2v-14.1
		l0.9,0.6l2,3.6l-0.3,2.3l0.8,1.3l2.5-0.4l1.7-1.7l1.6-1.1l0.8-1.8l1.7-0.9l1.4,0.5l1.6,1.1l2.8,0.2l2.2-0.9l0.3-1.2l0.6-1.8
		l1.9-0.3l1-1.4l1.1-2.5l3.1-2.8l4.9-2.7l1.4,0l1.7,0.6l1.2-0.4l1.8,0.4l1.6,5.2l0.9,2.7l-0.6,4.2l0.3,1.4l-1.7-0.7l-1,0.3l-0.3,1.1
		l-0.9,1.4l0,1.3l2,2.1l2-0.4l0.7-1.7l2.6,0L716,693l-0.4,3.2l-0.9,1.8L712.4,700z M703.6,698.8l-1.5-1.2l-1.6,0.8l-1.9,1.5
		l-1.8,2.5l2.6,3.1l1.2-0.4l0.6-1.3l1.9-0.6l0.6-1.3l1.1-1.9L703.6,698.8z"/>
	<path id="ZM" class="st0" d="M716.7,626.9l1.6,1.5l0.9,3l-0.6,0.9l-0.7,2.8l0.7,2.9l-1.1,1.2l-1,3.3l1.8,0.9l-10.4,2.9l0.3,2.5
		l-2.6,0.5l-1.9,1.4l-0.4,1.2l-1.2,0.3l-3,3l-1.9,2.3l-1.2,0.1l-1.1-0.4l-3.8-0.4l-0.6-0.3l0-0.3l-1.3-0.8l-2.2-0.2l-2.8,0.8
		l-2.2-2.2l-2.3-2.9l0.2-11.2l7.2,0l-0.3-1.2l0.5-1.3l-0.6-1.6l0.4-1.7l-0.4-1.1l1.2,0.1l0.2,1.1l1.6-0.1l2.2,0.3l1.2,1.6l2.8,0.5
		l2.1-1.1l0.8,1.8l2.6,0.5l1.3,1.5l1.4,1.9l2.6,0l-0.3-3.8l-0.9,0.6l-2.4-1.3l-0.9-0.6l0.4-3.5l0.6-4.1l-0.8-1.5l1-2.2l0.9-0.4
		l4.6-0.6l1.3,0.4l1.4,0.9l1.4,0.6l2.2,0.6L716.7,626.9z"/>
	<path id="ZW" class="st0" d="M711.3,673.3l-1.8-0.4l-1.2,0.4l-1.7-0.6l-1.4,0l-2.2-1.7l-2.7-0.6l-1-2.3l0-1.3l-1.5-0.4l-3.9-4
		l-1.1-2.1l-0.7-0.6l-1.3-2.9l3.8,0.4l1.1,0.4l1.2-0.1l1.9-2.3l3-3l1.2-0.3l0.4-1.2l1.9-1.4l2.6-0.5l0.2,1.3l2.9-0.1l1.6,0.7
		l0.7,0.9l1.6,0.3l1.8,1.2l0,4.5l-0.7,2.5l-0.1,2.7l0.6,1.1l-0.4,2.1l-0.5,0.3l-0.9,2.6L711.3,673.3z"/>
</g>
</svg>
